LinguisticsPro-SemiBoldItalic.ufo
<glyph name="exclam" format="2">
  <advance width="275"/>
  <unicode hex="0021"/>
  <outline>
    <contour>
      <point x="159" y="214.333" type="line"/>
      <point x="201.334" y="616.666" type="line" smooth="yes"/>
      <point x="207.667" y="675.333"/>
      <point x="221.334" y="707"/>
      <point x="293.667" y="707" type="curve" smooth="yes"/>
      <point x="367.334" y="707"/>
      <point x="367.334" y="675"/>
      <point x="345.667" y="615" type="curve" smooth="yes"/>
      <point x="205" y="214.333" type="line"/>
    </contour>
    <contour>
      <point x="72" y="59.667" type="curve" smooth="yes"/>
      <point x="72" y="114"/>
      <point x="109.667" y="148.333"/>
      <point x="157.667" y="148.333" type="curve" smooth="yes"/>
      <point x="208.334" y="148.333"/>
      <point x="232.667" y="115"/>
      <point x="232.667" y="77.666" type="curve" smooth="yes"/>
      <point x="232.667" y="23"/>
      <point x="196" y="-12"/>
      <point x="149" y="-12" type="curve" smooth="yes"/>
      <point x="97" y="-12"/>
      <point x="72" y="20.333"/>
    </contour>
  </outline>
</glyph>
<glyph name="quotedbl" format="2">
  <advance width="437"/>
  <unicode hex="0022"/>
  <outline>
    <contour>
      <point x="322" y="427.667" type="line"/>
      <point x="331.333" y="650" type="line" smooth="yes"/>
      <point x="333" y="696.333"/>
      <point x="351" y="718.667"/>
      <point x="405" y="718.667" type="curve" smooth="yes"/>
      <point x="460.333" y="718.667"/>
      <point x="471" y="697"/>
      <point x="452" y="650" type="curve" smooth="yes"/>
      <point x="362" y="427.667" type="line"/>
    </contour>
    <contour>
      <point x="243.333" y="427.667" type="line"/>
      <point x="252.667" y="650" type="line" smooth="yes"/>
      <point x="254.333" y="696.333"/>
      <point x="272.333" y="718.667"/>
      <point x="326.333" y="718.667" type="curve" smooth="yes"/>
      <point x="381.667" y="718.667"/>
      <point x="392.333" y="697"/>
      <point x="373.333" y="650" type="curve" smooth="yes"/>
      <point x="283.333" y="427.667" type="line"/>
    </contour>
  </outline>
</glyph>
<glyph name="numbersign" format="2">
  <advance width="550"/>
  <unicode hex="0023"/>
  <outline>
    <contour>
      <point x="77.667" y="223" type="line"/>
      <point x="100.667" y="287" type="line"/>
      <point x="206" y="287" type="line"/>
      <point x="246.667" y="402" type="line"/>
      <point x="140.334" y="402" type="line"/>
      <point x="163.334" y="466" type="line"/>
      <point x="269" y="466" type="line"/>
      <point x="340.334" y="668" type="line"/>
      <point x="409.667" y="668" type="line"/>
      <point x="339.334" y="466" type="line"/>
      <point x="458" y="466" type="line"/>
      <point x="529.333" y="668" type="line"/>
      <point x="597.667" y="668" type="line"/>
      <point x="527.333" y="466" type="line"/>
      <point x="634" y="466" type="line"/>
      <point x="611.667" y="402" type="line"/>
      <point x="505" y="402" type="line"/>
      <point x="464.333" y="287" type="line"/>
      <point x="571.333" y="287" type="line"/>
      <point x="549" y="223" type="line"/>
      <point x="442" y="223" type="line"/>
      <point x="363.667" y="0" type="line"/>
      <point x="294.334" y="0" type="line"/>
      <point x="372.667" y="223" type="line"/>
      <point x="254" y="223" type="line"/>
      <point x="175.667" y="0" type="line"/>
      <point x="105.334" y="0" type="line"/>
      <point x="183.667" y="223" type="line"/>
    </contour>
    <contour>
      <point x="276.334" y="287" type="line"/>
      <point x="395" y="287" type="line"/>
      <point x="435.667" y="402" type="line"/>
      <point x="317" y="402" type="line"/>
    </contour>
  </outline>
</glyph>
<glyph name="dollar" format="2">
  <advance width="550"/>
  <unicode hex="0024"/>
  <outline>
    <contour>
      <point x="66.667" y="120" type="curve" smooth="yes"/>
      <point x="66.667" y="159.333"/>
      <point x="98.667" y="183.333"/>
      <point x="131" y="183.333" type="curve" smooth="yes"/>
      <point x="155" y="183.333"/>
      <point x="164.667" y="169.667"/>
      <point x="169.667" y="153.333" type="curve" smooth="yes"/>
      <point x="194" y="73"/>
      <point x="228" y="47.333"/>
      <point x="256.667" y="45" type="curve"/>
      <point x="314.667" y="299.333" type="line"/>
      <point x="196.667" y="351.333"/>
      <point x="162.333" y="412.667"/>
      <point x="162.333" y="476" type="curve" smooth="yes"/>
      <point x="162.333" y="592.667"/>
      <point x="261.667" y="668"/>
      <point x="400" y="668" type="curve"/>
      <point x="418.667" y="746.333" type="line"/>
      <point x="468" y="746.333" type="line"/>
      <point x="449.667" y="666" type="line"/>
      <point x="524" y="660.333"/>
      <point x="610.667" y="620"/>
      <point x="610.667" y="554" type="curve" smooth="yes"/>
      <point x="610.667" y="525.333"/>
      <point x="578.334" y="504.333"/>
      <point x="547.334" y="504.333" type="curve" smooth="yes"/>
      <point x="526.333" y="504.333"/>
      <point x="516" y="522.333"/>
      <point x="512" y="536.333" type="curve" smooth="yes"/>
      <point x="496.667" y="588.667"/>
      <point x="471" y="618.333"/>
      <point x="439.667" y="623" type="curve"/>
      <point x="388" y="398.667" type="line"/>
      <point x="481.667" y="357.333"/>
      <point x="554.667" y="307"/>
      <point x="554.667" y="197" type="curve" smooth="yes"/>
      <point x="554.667" y="98.333"/>
      <point x="479.333" y="0"/>
      <point x="297.667" y="0" type="curve"/>
      <point x="274.667" y="-105.667" type="line"/>
      <point x="224" y="-105.667" type="line"/>
      <point x="247.667" y="2" type="line"/>
      <point x="140.666" y="8.333"/>
      <point x="66.667" y="60.667"/>
    </contour>
    <contour>
      <point x="306.667" y="42.333" type="line"/>
      <point x="372.667" y="39"/>
      <point x="440" y="75.333"/>
      <point x="440" y="159.667" type="curve" smooth="yes"/>
      <point x="440" y="214.333"/>
      <point x="415.333" y="251.333"/>
      <point x="359.667" y="277.333" type="curve"/>
    </contour>
    <contour>
      <point x="271" y="518.667" type="curve" smooth="yes"/>
      <point x="271" y="472"/>
      <point x="295.333" y="444.667"/>
      <point x="342.667" y="421.667" type="curve"/>
      <point x="390" y="625.667" type="line"/>
      <point x="327.667" y="625.667"/>
      <point x="271" y="586"/>
    </contour>
  </outline>
</glyph>
<glyph name="percent" format="2">
  <advance width="873"/>
  <unicode hex="0025"/>
  <outline>
    <contour>
      <point x="236.666" y="412.218" type="curve" smooth="yes"/>
      <point x="236.666" y="385"/>
      <point x="245.666" y="346.667"/>
      <point x="286.143" y="346.667" type="curve" smooth="yes"/>
      <point x="373.666" y="346.667"/>
      <point x="394.333" y="526.667"/>
      <point x="394.333" y="576.301" type="curve" smooth="yes"/>
      <point x="394.333" y="602.333"/>
      <point x="388.666" y="643.333"/>
      <point x="348.263" y="643.333" type="curve" smooth="yes"/>
      <point x="262.999" y="643.333"/>
      <point x="236.666" y="459"/>
    </contour>
    <contour>
      <point x="138.333" y="454.242" type="curve" smooth="yes"/>
      <point x="138.333" y="571.767"/>
      <point x="219.122" y="680"/>
      <point x="342.937" y="680" type="curve" smooth="yes"/>
      <point x="391.666" y="680"/>
      <point x="437.118" y="663.269"/>
      <point x="455.532" y="648.015" type="curve" smooth="yes"/>
      <point x="466.8" y="638.692"/>
      <point x="484.806" y="632.333"/>
      <point x="506.873" y="632.333" type="curve" smooth="yes"/>
      <point x="679.364" y="632.333" type="line" smooth="yes"/>
      <point x="708.036" y="632.333"/>
      <point x="735.721" y="650.667"/>
      <point x="759.334" y="677" type="curve" smooth="yes"/>
      <point x="781.667" y="702" type="line"/>
      <point x="820.334" y="670" type="line"/>
      <point x="236.666" y="-29" type="line"/>
      <point x="198.999" y="5.667" type="line"/>
      <point x="687.667" y="591" type="line"/>
      <point x="486.999" y="591" type="line"/>
      <point x="490.999" y="572"/>
      <point x="492.666" y="552.667"/>
      <point x="492.666" y="535.112" type="curve" smooth="yes"/>
      <point x="492.666" y="414.412"/>
      <point x="415.89" y="310"/>
      <point x="281.03" y="310" type="curve" smooth="yes"/>
      <point x="173" y="310"/>
      <point x="138.333" y="377.333"/>
    </contour>
    <contour>
      <point x="617.333" y="88.969" type="curve" smooth="yes"/>
      <point x="617.333" y="63"/>
      <point x="625" y="24.667"/>
      <point x="665.928" y="24.667" type="curve" smooth="yes"/>
      <point x="754.334" y="24.667"/>
      <point x="775.667" y="204.667"/>
      <point x="775.667" y="253.704" type="curve" smooth="yes"/>
      <point x="775.667" y="280.333"/>
      <point x="769.334" y="321.333"/>
      <point x="728.93" y="321.333" type="curve" smooth="yes"/>
      <point x="643.666" y="321.333"/>
      <point x="617.333" y="137"/>
    </contour>
    <contour>
      <point x="519" y="132.234" type="curve" smooth="yes"/>
      <point x="519" y="249.64"/>
      <point x="599.642" y="358"/>
      <point x="734.844" y="358" type="curve" smooth="yes"/>
      <point x="842" y="358"/>
      <point x="874" y="291"/>
      <point x="874" y="212.93" type="curve" smooth="yes"/>
      <point x="874" y="90.963"/>
      <point x="797.863" y="-12"/>
      <point x="663.019" y="-12" type="curve" smooth="yes"/>
      <point x="553.667" y="-12"/>
      <point x="519" y="55.334"/>
    </contour>
  </outline>
</glyph>
<glyph name="ampersand" format="2">
  <advance width="743"/>
  <unicode hex="0026"/>
  <outline>
    <contour>
      <point x="352" y="521.334" type="curve" smooth="yes"/>
      <point x="352" y="482"/>
      <point x="368" y="439"/>
      <point x="386.667" y="409.667" type="curve"/>
      <point x="441" y="434"/>
      <point x="492.333" y="490"/>
      <point x="492.333" y="566.667" type="curve" smooth="yes"/>
      <point x="492.333" y="603.667"/>
      <point x="471.666" y="637.667"/>
      <point x="433.666" y="637.667" type="curve" smooth="yes"/>
      <point x="392.333" y="637.667"/>
      <point x="352" y="595.334"/>
    </contour>
    <contour>
      <point x="220.666" y="190" type="curve" smooth="yes"/>
      <point x="220.666" y="116.333"/>
      <point x="272.667" y="57.667"/>
      <point x="349" y="51" type="curve" smooth="yes"/>
      <point x="356.333" y="50.333"/>
      <point x="363.667" y="50.667"/>
      <point x="371.667" y="51" type="curve" smooth="yes"/>
      <point x="412" y="53"/>
      <point x="455.333" y="70.333"/>
      <point x="479" y="92.333" type="curve"/>
      <point x="397.667" y="164.667"/>
      <point x="331" y="263.333"/>
      <point x="293" y="331.667" type="curve"/>
      <point x="273" y="321"/>
      <point x="220.666" y="275.333"/>
    </contour>
    <contour>
      <point x="96.333" y="168" type="curve" smooth="yes"/>
      <point x="96.333" y="293.667"/>
      <point x="204.666" y="341"/>
      <point x="273" y="372.334" type="curve"/>
      <point x="257.333" y="401.667"/>
      <point x="245" y="443.667"/>
      <point x="243.667" y="478" type="curve" smooth="yes"/>
      <point x="243.333" y="486.334"/>
      <point x="243.333" y="493.667"/>
      <point x="244" y="501" type="curve" smooth="yes"/>
      <point x="252" y="612"/>
      <point x="335" y="680"/>
      <point x="431.666" y="680" type="curve" smooth="yes"/>
      <point x="519.666" y="680"/>
      <point x="589" y="630.334"/>
      <point x="589" y="546" type="curve" smooth="yes"/>
      <point x="589" y="445.334"/>
      <point x="496" y="405.667"/>
      <point x="406.333" y="373.667" type="curve"/>
      <point x="442" y="313.333"/>
      <point x="501.333" y="233"/>
      <point x="561.667" y="168.333" type="curve"/>
      <point x="624.334" y="238"/>
      <point x="643.334" y="340"/>
      <point x="649.667" y="417" type="curve"/>
      <point x="680.667" y="437.334"/>
      <point x="723.334" y="444"/>
      <point x="750.667" y="440.334" type="curve"/>
      <point x="767.667" y="404.334"/>
      <point x="760.667" y="361"/>
      <point x="744.334" y="330" type="curve" smooth="yes"/>
      <point x="710" y="266"/>
      <point x="669.334" y="206.333"/>
      <point x="591" y="136.333" type="curve"/>
      <point x="636.667" y="90"/>
      <point x="685" y="43"/>
      <point x="745.334" y="23.333" type="curve"/>
      <point x="740.667" y="-7" type="line"/>
      <point x="706" y="-5.667" type="line" smooth="yes"/>
      <point x="614.333" y="-2.667"/>
      <point x="559.333" y="22.333"/>
      <point x="511.333" y="63" type="curve"/>
      <point x="451" y="12.333"/>
      <point x="374.667" y="-12"/>
      <point x="301.333" y="-12" type="curve" smooth="yes"/>
      <point x="164.666" y="-12"/>
      <point x="96.333" y="75.333"/>
    </contour>
  </outline>
</glyph>
<glyph name="quotesingle" format="2">
  <advance width="236"/>
  <unicode hex="0027"/>
  <outline>
    <contour>
      <point x="178" y="407" type="line"/>
      <point x="189.333" y="650" type="line" smooth="yes"/>
      <point x="191.667" y="696.333"/>
      <point x="207.667" y="718.667"/>
      <point x="261.667" y="718.667" type="curve" smooth="yes"/>
      <point x="317" y="718.667"/>
      <point x="326.333" y="697"/>
      <point x="308.667" y="650" type="curve" smooth="yes"/>
      <point x="218" y="407" type="line"/>
    </contour>
  </outline>
</glyph>
<glyph name="parenleft" format="2">
  <advance width="350"/>
  <unicode hex="0028"/>
  <outline>
    <contour>
      <point x="138.667" y="125" type="curve"/>
      <point x="129.333" y="182.334"/>
      <point x="138.667" y="250.334"/>
      <point x="150" y="301" type="curve" smooth="yes"/>
      <point x="167.667" y="380"/>
      <point x="195" y="474.667"/>
      <point x="242" y="552" type="curve"/>
      <point x="299.667" y="643.667"/>
      <point x="378.333" y="701.334"/>
      <point x="479.667" y="696.667" type="curve"/>
      <point x="477.333" y="665.667" type="line"/>
      <point x="357.667" y="645.334"/>
      <point x="273.333" y="441.334"/>
      <point x="239.667" y="290" type="curve"/>
      <point x="202.333" y="128.667"/>
      <point x="212" y="-74"/>
      <point x="297.667" y="-102.333" type="curve"/>
      <point x="287.667" y="-132.666" type="line"/>
      <point x="183.667" y="-122.666"/>
      <point x="132" y="-16.666"/>
    </contour>
  </outline>
</glyph>
<glyph name="parenright" format="2">
  <advance width="350"/>
  <unicode hex="0029"/>
  <outline>
    <contour>
      <point x="-1.667" y="-132.667" type="curve"/>
      <point x="0.667" y="-102.334" type="line"/>
      <point x="120.333" y="-82.001"/>
      <point x="204.667" y="122.666"/>
      <point x="238.333" y="274" type="curve"/>
      <point x="275.667" y="435.333"/>
      <point x="266" y="637.334"/>
      <point x="180.333" y="665.667" type="curve"/>
      <point x="190.333" y="696.667" type="line"/>
      <point x="276.333" y="688"/>
      <point x="326" y="621"/>
      <point x="343" y="522" type="curve" smooth="yes"/>
      <point x="356.667" y="441.333"/>
      <point x="346.333" y="344.667"/>
      <point x="328" y="263" type="curve" smooth="yes"/>
      <point x="310.333" y="184"/>
      <point x="283" y="89.333"/>
      <point x="236" y="11.999" type="curve"/>
      <point x="178.333" y="-79.667"/>
      <point x="99.667" y="-137.334"/>
    </contour>
  </outline>
</glyph>
<glyph name="asterisk" format="2">
  <advance width="471"/>
  <unicode hex="002A"/>
  <outline>
    <contour>
      <point x="158" y="422.333" type="curve" smooth="yes"/>
      <point x="145.333" y="448.333"/>
      <point x="149.333" y="471.667"/>
      <point x="176.333" y="479" type="curve" smooth="yes"/>
      <point x="293.666" y="511.333" type="line" smooth="yes"/>
      <point x="313.666" y="516.667"/>
      <point x="314.333" y="530.333"/>
      <point x="292.666" y="536.667" type="curve" smooth="yes"/>
      <point x="211.333" y="561" type="line" smooth="yes"/>
      <point x="183" y="569.333"/>
      <point x="183.666" y="599.667"/>
      <point x="199" y="621" type="curve" smooth="yes"/>
      <point x="217.666" y="646.667"/>
      <point x="243" y="650.333"/>
      <point x="257" y="635" type="curve" smooth="yes"/>
      <point x="316.333" y="569" type="line" smooth="yes"/>
      <point x="329.666" y="554.333"/>
      <point x="341.333" y="563"/>
      <point x="339.333" y="582.667" type="curve"/>
      <point x="333.333" y="668.667" type="line" smooth="yes"/>
      <point x="332" y="694"/>
      <point x="346.667" y="707"/>
      <point x="383" y="707" type="curve" smooth="yes"/>
      <point x="418.333" y="707"/>
      <point x="433.666" y="691"/>
      <point x="420.333" y="666.333" type="curve" smooth="yes"/>
      <point x="375.667" y="579.333" type="line" smooth="yes"/>
      <point x="366.333" y="560.667"/>
      <point x="379.333" y="552.667"/>
      <point x="396" y="567" type="curve" smooth="yes"/>
      <point x="476.333" y="634" type="line"/>
      <point x="496.333" y="649.667"/>
      <point x="518.666" y="643.667"/>
      <point x="532" y="619" type="curve" smooth="yes"/>
      <point x="547.333" y="590.667"/>
      <point x="539.666" y="567"/>
      <point x="516" y="561" type="curve" smooth="yes"/>
      <point x="401.666" y="533.333" type="line" smooth="yes"/>
      <point x="380.333" y="528.333"/>
      <point x="375.333" y="514"/>
      <point x="394" y="508.667" type="curve"/>
      <point x="480" y="479" type="line" smooth="yes"/>
      <point x="508.333" y="470"/>
      <point x="508" y="442.333"/>
      <point x="488" y="416.333" type="curve" smooth="yes"/>
      <point x="470.666" y="393.667"/>
      <point x="450.333" y="389.667"/>
      <point x="430" y="413.333" type="curve" smooth="yes"/>
      <point x="374.333" y="478.333" type="line" smooth="yes"/>
      <point x="362.333" y="492.667"/>
      <point x="351.333" y="483"/>
      <point x="352.667" y="462.667" type="curve" smooth="yes"/>
      <point x="358" y="367.667" type="line" smooth="yes"/>
      <point x="360.333" y="337.333"/>
      <point x="339.666" y="328.667"/>
      <point x="312" y="328.667" type="curve" smooth="yes"/>
      <point x="273.666" y="328.667"/>
      <point x="258.333" y="348.333"/>
      <point x="272.333" y="376" type="curve" smooth="yes"/>
      <point x="317" y="466" type="line"/>
      <point x="326.333" y="483.333"/>
      <point x="314" y="493.667"/>
      <point x="296.333" y="477.667" type="curve" smooth="yes"/>
      <point x="222.333" y="409.333" type="line" smooth="yes"/>
      <point x="195.666" y="385.333"/>
      <point x="172" y="394.333"/>
    </contour>
  </outline>
</glyph>
<glyph name="plus" format="2">
  <advance width="590"/>
  <unicode hex="002B"/>
  <outline>
    <contour>
      <point x="109.666" y="213.667" type="line"/>
      <point x="109.666" y="286.334" type="line"/>
      <point x="308.333" y="286.334" type="line"/>
      <point x="308.333" y="490.001" type="line"/>
      <point x="395" y="490.001" type="line"/>
      <point x="395" y="286.334" type="line"/>
      <point x="593.667" y="286.334" type="line"/>
      <point x="593.667" y="213.667" type="line"/>
      <point x="395" y="213.667" type="line"/>
      <point x="395" y="0" type="line"/>
      <point x="308.333" y="0" type="line"/>
      <point x="308.333" y="213.667" type="line"/>
    </contour>
  </outline>
</glyph>
<glyph name="comma" format="2">
  <advance width="275"/>
  <unicode hex="002C"/>
  <outline>
    <contour>
      <point x="32.667" y="-130.667" type="line"/>
      <point x="70.667" y="-93.667"/>
      <point x="107.667" y="-47.667"/>
      <point x="109" y="0.333" type="curve" smooth="yes"/>
      <point x="109.667" y="20"/>
      <point x="103" y="37.333"/>
      <point x="97.333" y="49.666" type="curve" smooth="yes"/>
      <point x="90.333" y="65"/>
      <point x="84.667" y="77.333"/>
      <point x="84.667" y="95.666" type="curve" smooth="yes"/>
      <point x="84.667" y="135.666"/>
      <point x="116.667" y="167.333"/>
      <point x="158" y="167.333" type="curve"/>
      <point x="206.334" y="168.666"/>
      <point x="230.667" y="128"/>
      <point x="230.667" y="85.333" type="curve" smooth="yes"/>
      <point x="230.667" y="-18"/>
      <point x="129.667" y="-100"/>
      <point x="55.667" y="-156" type="curve"/>
    </contour>
  </outline>
</glyph>
<glyph name="hyphen" format="2">
  <advance width="391"/>
  <unicode hex="002D"/>
  <outline>
    <contour>
      <point x="98.333" y="207.333" type="line"/>
      <point x="116.333" y="294" type="line"/>
      <point x="406.333" y="294" type="line"/>
      <point x="388.333" y="207.333" type="line"/>
    </contour>
  </outline>
</glyph>
<glyph name="period" format="2">
  <advance width="275"/>
  <unicode hex="002E"/>
  <outline>
    <contour>
      <point x="72" y="59.667" type="curve" smooth="yes"/>
      <point x="72" y="114"/>
      <point x="109.667" y="148.333"/>
      <point x="157.667" y="148.333" type="curve" smooth="yes"/>
      <point x="208.334" y="148.333"/>
      <point x="232.667" y="115"/>
      <point x="232.667" y="77.666" type="curve" smooth="yes"/>
      <point x="232.667" y="23"/>
      <point x="196" y="-12"/>
      <point x="149" y="-12" type="curve" smooth="yes"/>
      <point x="97" y="-12"/>
      <point x="72" y="20.333"/>
    </contour>
  </outline>
</glyph>
<glyph name="slash" format="2">
  <advance width="263"/>
  <unicode hex="002F"/>
  <outline>
    <contour>
      <point x="24.333" y="-15" type="line"/>
      <point x="305" y="707" type="line"/>
      <point x="395.333" y="707" type="line"/>
      <point x="114.666" y="-15" type="line"/>
    </contour>
  </outline>
</glyph>
<glyph name="zero" format="2">
  <advance width="550"/>
  <unicode hex="0030"/>
  <outline>
    <contour>
      <point x="93" y="213.333" type="curve" smooth="yes"/>
      <point x="93" y="526.666"/>
      <point x="271" y="682.666"/>
      <point x="417.334" y="682.666" type="curve" smooth="yes"/>
      <point x="518.667" y="682.666"/>
      <point x="604" y="608"/>
      <point x="604" y="455" type="curve" smooth="yes"/>
      <point x="604" y="190.333"/>
      <point x="458" y="-14.667"/>
      <point x="283.667" y="-14.667" type="curve" smooth="yes"/>
      <point x="168.666" y="-14.667"/>
      <point x="93" y="73.333"/>
    </contour>
    <contour>
      <point x="216.333" y="142.666" type="curve" smooth="yes"/>
      <point x="216.333" y="58.333"/>
      <point x="253.333" y="27.666"/>
      <point x="281" y="27.666" type="curve" smooth="yes"/>
      <point x="357.333" y="27.666"/>
      <point x="480.667" y="302.333"/>
      <point x="480.667" y="527.333" type="curve" smooth="yes"/>
      <point x="480.667" y="605.666"/>
      <point x="457" y="640.333"/>
      <point x="425" y="640.333" type="curve" smooth="yes"/>
      <point x="304" y="640.333"/>
      <point x="216.333" y="301.666"/>
    </contour>
  </outline>
</glyph>
<glyph name="one" format="2">
  <advance width="441"/>
  <unicode hex="0031"/>
  <outline>
    <contour>
      <point x="51.333" y="0" type="line"/>
      <point x="58.667" y="35" type="line"/>
      <point x="137" y="40.667" type="line" smooth="yes"/>
      <point x="158" y="42.333"/>
      <point x="169.667" y="50.667"/>
      <point x="175.333" y="78" type="curve" smooth="yes"/>
      <point x="283.667" y="563.333" type="line" smooth="yes"/>
      <point x="289" y="589.667"/>
      <point x="285" y="598.333"/>
      <point x="269" y="601" type="curve" smooth="yes"/>
      <point x="186" y="613" type="line"/>
      <point x="194" y="643" type="line"/>
      <point x="427" y="680" type="line"/>
      <point x="435" y="673.333" type="line"/>
      <point x="302.333" y="78" type="line" smooth="yes"/>
      <point x="296.333" y="49.333"/>
      <point x="306.667" y="41"/>
      <point x="328" y="40" type="curve" smooth="yes"/>
      <point x="406.333" y="35" type="line"/>
      <point x="399" y="0" type="line"/>
    </contour>
  </outline>
</glyph>
<glyph name="two" format="2">
  <advance width="565"/>
  <unicode hex="0032"/>
  <outline>
    <contour>
      <point x="43.333" y="14" type="line"/>
      <point x="65" y="106.667"/>
      <point x="141" y="180.667"/>
      <point x="273.666" y="272.667" type="curve" smooth="yes"/>
      <point x="393.667" y="355.667"/>
      <point x="468.667" y="437.667"/>
      <point x="468.667" y="546.667" type="curve" smooth="yes"/>
      <point x="468.667" y="593.667"/>
      <point x="453.334" y="637.667"/>
      <point x="396.667" y="637.667" type="curve" smooth="yes"/>
      <point x="348.333" y="637.667"/>
      <point x="311" y="595.667"/>
      <point x="277.333" y="510" type="curve" smooth="yes"/>
      <point x="268.666" y="487"/>
      <point x="258.666" y="468.334"/>
      <point x="231" y="468.334" type="curve" smooth="yes"/>
      <point x="200.333" y="468.334"/>
      <point x="166" y="492"/>
      <point x="166" y="531.667" type="curve" smooth="yes"/>
      <point x="166" y="598.667"/>
      <point x="253" y="680"/>
      <point x="394" y="680" type="curve" smooth="yes"/>
      <point x="526.334" y="680"/>
      <point x="606" y="617.667"/>
      <point x="606" y="508" type="curve" smooth="yes"/>
      <point x="606" y="390.334"/>
      <point x="518.667" y="328.333"/>
      <point x="395.333" y="270" type="curve"/>
      <point x="318.666" y="232"/>
      <point x="208.333" y="162.333"/>
      <point x="188" y="102" type="curve"/>
      <point x="427.334" y="102" type="line" smooth="yes"/>
      <point x="472" y="102"/>
      <point x="484.667" y="111.333"/>
      <point x="516" y="159" type="curve"/>
      <point x="552.667" y="154.333" type="line"/>
      <point x="494.667" y="0" type="line"/>
      <point x="55.667" y="0" type="line"/>
    </contour>
  </outline>
</glyph>
<glyph name="three" format="2">
  <advance width="559"/>
  <unicode hex="0033"/>
  <outline>
    <contour>
      <point x="58.334" y="115.666" type="curve" smooth="yes"/>
      <point x="58.334" y="158"/>
      <point x="97" y="185.333"/>
      <point x="126.667" y="185.333" type="curve" smooth="yes"/>
      <point x="197" y="185.333"/>
      <point x="156.334" y="30.333"/>
      <point x="282" y="30.333" type="curve" smooth="yes"/>
      <point x="344" y="30.333"/>
      <point x="410" y="90.333"/>
      <point x="410" y="218.333" type="curve" smooth="yes"/>
      <point x="410" y="293"/>
      <point x="380.333" y="340"/>
      <point x="322" y="340" type="curve" smooth="yes"/>
      <point x="278" y="340"/>
      <point x="242.667" y="327.333"/>
      <point x="225.667" y="327.333" type="curve" smooth="yes"/>
      <point x="207" y="327.333"/>
      <point x="202.667" y="340"/>
      <point x="202.667" y="355.333" type="curve" smooth="yes"/>
      <point x="202.667" y="377.667"/>
      <point x="213" y="401.666"/>
      <point x="230.667" y="401.666" type="curve" smooth="yes"/>
      <point x="254.333" y="401.666"/>
      <point x="288" y="388"/>
      <point x="327.667" y="388" type="curve" smooth="yes"/>
      <point x="409" y="388"/>
      <point x="457.333" y="478.333"/>
      <point x="457.333" y="552.667" type="curve" smooth="yes"/>
      <point x="457.333" y="595"/>
      <point x="437" y="637.667"/>
      <point x="384.333" y="637.667" type="curve" smooth="yes"/>
      <point x="337" y="637.667"/>
      <point x="302.667" y="599.334"/>
      <point x="273" y="530" type="curve" smooth="yes"/>
      <point x="264.333" y="510.333"/>
      <point x="254.667" y="496.333"/>
      <point x="231.333" y="496.333" type="curve" smooth="yes"/>
      <point x="202.334" y="496.333"/>
      <point x="170" y="517.333"/>
      <point x="168.667" y="553" type="curve" smooth="yes"/>
      <point x="167.334" y="609"/>
      <point x="255.667" y="680"/>
      <point x="382.667" y="680" type="curve" smooth="yes"/>
      <point x="478" y="680"/>
      <point x="590.666" y="642.667"/>
      <point x="590.666" y="521.667" type="curve" smooth="yes"/>
      <point x="590.666" y="424.666"/>
      <point x="509.666" y="378"/>
      <point x="415" y="369.333" type="curve"/>
      <point x="415" y="365.667" type="line"/>
      <point x="489" y="349.667"/>
      <point x="551.333" y="297"/>
      <point x="551.333" y="204.333" type="curve" smooth="yes"/>
      <point x="551.333" y="51"/>
      <point x="417" y="-12"/>
      <point x="282.333" y="-12" type="curve" smooth="yes"/>
      <point x="133" y="-12"/>
      <point x="58.334" y="58.333"/>
    </contour>
  </outline>
</glyph>
<glyph name="four" format="2">
  <advance width="590"/>
  <unicode hex="0034"/>
  <outline>
    <contour>
      <point x="181" y="237" type="curve"/>
      <point x="371" y="237" type="line"/>
      <point x="442.667" y="553" type="line"/>
      <point x="440.667" y="553.667" type="line"/>
      <point x="349" y="453"/>
      <point x="261.667" y="345"/>
    </contour>
    <contour>
      <point x="78.333" y="205.333" type="line"/>
      <point x="205.333" y="367"/>
      <point x="338.333" y="522"/>
      <point x="486.333" y="668" type="curve"/>
      <point x="587.667" y="668" type="line"/>
      <point x="494" y="237" type="line"/>
      <point x="588.667" y="237" type="line"/>
      <point x="575.333" y="178.333" type="line"/>
      <point x="481.333" y="178.333" type="line"/>
      <point x="457.667" y="70.333" type="line" smooth="yes"/>
      <point x="452.667" y="48.333"/>
      <point x="459.667" y="39.667"/>
      <point x="477" y="38.667" type="curve" smooth="yes"/>
      <point x="525.667" y="35" type="line"/>
      <point x="517.333" y="0" type="line"/>
      <point x="225.333" y="0" type="line"/>
      <point x="234" y="35" type="line"/>
      <point x="293.667" y="39.333" type="line"/>
      <point x="302" y="40" type="line" smooth="yes"/>
      <point x="318.667" y="41"/>
      <point x="330.333" y="48"/>
      <point x="335.333" y="70.333" type="curve" smooth="yes"/>
      <point x="358.333" y="178.333" type="line"/>
      <point x="90.667" y="178.333" type="line"/>
    </contour>
  </outline>
</glyph>
<glyph name="five" format="2">
  <advance width="554"/>
  <unicode hex="0035"/>
  <outline>
    <contour>
      <point x="60" y="114.666" type="curve" smooth="yes"/>
      <point x="58.667" y="154.666"/>
      <point x="95.667" y="184.666"/>
      <point x="131.667" y="184.666" type="curve" smooth="yes"/>
      <point x="155.667" y="184.666"/>
      <point x="164.667" y="167"/>
      <point x="171.667" y="142.333" type="curve" smooth="yes"/>
      <point x="195.667" y="56"/>
      <point x="231.334" y="30.333"/>
      <point x="282" y="30.333" type="curve" smooth="yes"/>
      <point x="350.667" y="30.333"/>
      <point x="416" y="108.666"/>
      <point x="416" y="238" type="curve" smooth="yes"/>
      <point x="416" y="318.333"/>
      <point x="376.333" y="372.333"/>
      <point x="307.667" y="372.333" type="curve" smooth="yes"/>
      <point x="258.667" y="372.333"/>
      <point x="219.334" y="351"/>
      <point x="183" y="307.666" type="curve"/>
      <point x="151" y="328.333" type="line"/>
      <point x="220" y="658" type="line"/>
      <point x="233.334" y="668" type="line"/>
      <point x="609" y="668" type="line"/>
      <point x="615.334" y="656.333" type="line"/>
      <point x="560.667" y="566" type="line"/>
      <point x="294.667" y="566" type="line" smooth="yes"/>
      <point x="274.334" y="566"/>
      <point x="266.667" y="562.667"/>
      <point x="258.667" y="537.333" type="curve" smooth="yes"/>
      <point x="210.667" y="382.333" type="line"/>
      <point x="212.667" y="380.333" type="line"/>
      <point x="250.334" y="407.666"/>
      <point x="302.333" y="429.666"/>
      <point x="359.333" y="429.666" type="curve" smooth="yes"/>
      <point x="490.334" y="429.666"/>
      <point x="556.667" y="352.666"/>
      <point x="556.667" y="239.333" type="curve" smooth="yes"/>
      <point x="556.667" y="79.333"/>
      <point x="429.333" y="-12"/>
      <point x="277.667" y="-12" type="curve" smooth="yes"/>
      <point x="129" y="-12"/>
      <point x="61.333" y="56.666"/>
    </contour>
  </outline>
</glyph>
<glyph name="six" format="2">
  <advance width="564"/>
  <unicode hex="0036"/>
  <outline>
    <contour>
      <point x="226.334" y="164" type="curve" smooth="yes"/>
      <point x="226.334" y="98.666"/>
      <point x="247.334" y="30.333"/>
      <point x="319.667" y="30.333" type="curve" smooth="yes"/>
      <point x="390" y="30.333"/>
      <point x="446.333" y="120.333"/>
      <point x="446.333" y="246.333" type="curve" smooth="yes"/>
      <point x="446.333" y="317.667"/>
      <point x="409.667" y="359"/>
      <point x="354.333" y="359" type="curve" smooth="yes"/>
      <point x="314.667" y="359"/>
      <point x="281.667" y="338.667"/>
      <point x="258.667" y="306" type="curve" smooth="yes"/>
      <point x="236.667" y="273.667"/>
      <point x="226.334" y="225.333"/>
    </contour>
    <contour>
      <point x="98.667" y="217" type="curve" smooth="yes"/>
      <point x="98.667" y="351"/>
      <point x="146.667" y="506.333"/>
      <point x="226.667" y="591.667" type="curve" smooth="yes"/>
      <point x="232.667" y="598"/>
      <point x="238.667" y="604.334"/>
      <point x="245.001" y="609.667" type="curve"/>
      <point x="293" y="653.334"/>
      <point x="354.667" y="680"/>
      <point x="431.333" y="680" type="curve" smooth="yes"/>
      <point x="570.333" y="680"/>
      <point x="617" y="600.667"/>
      <point x="617" y="562.667" type="curve" smooth="yes"/>
      <point x="617" y="522"/>
      <point x="577.999" y="504"/>
      <point x="550.666" y="504" type="curve" smooth="yes"/>
      <point x="533" y="504"/>
      <point x="523.334" y="513"/>
      <point x="517.667" y="527.333" type="curve"/>
      <point x="515.667" y="531.333"/>
      <point x="513.667" y="536"/>
      <point x="513" y="540.667" type="curve"/>
      <point x="500.334" y="603.667"/>
      <point x="471.667" y="637.667"/>
      <point x="428.333" y="637.667" type="curve" smooth="yes"/>
      <point x="352.667" y="637.667"/>
      <point x="284" y="521.333"/>
      <point x="246.667" y="352.667" type="curve"/>
      <point x="248.667" y="352.667" type="line"/>
      <point x="279.334" y="387.667"/>
      <point x="330" y="419.333"/>
      <point x="381.667" y="425.333" type="curve" smooth="yes"/>
      <point x="387" y="426"/>
      <point x="392.333" y="426.666"/>
      <point x="397.667" y="426.666" type="curve" smooth="yes"/>
      <point x="519" y="426.666"/>
      <point x="580.666" y="350.333"/>
      <point x="580.666" y="239" type="curve" smooth="yes"/>
      <point x="580.666" y="110.333"/>
      <point x="490.333" y="-12"/>
      <point x="322" y="-12" type="curve" smooth="yes"/>
      <point x="151.334" y="-12"/>
      <point x="98.667" y="97"/>
    </contour>
  </outline>
</glyph>
<glyph name="seven" format="2">
  <advance width="548"/>
  <unicode hex="0037"/>
  <outline>
    <contour>
      <point x="156.666" y="514.667" type="line"/>
      <point x="209.333" y="668" type="line"/>
      <point x="650.666" y="668" type="line"/>
      <point x="659.999" y="656.333" type="line"/>
      <point x="626.333" y="556.333"/>
      <point x="548.666" y="468.667"/>
      <point x="452.666" y="357" type="curve" smooth="yes"/>
      <point x="377.666" y="270.333"/>
      <point x="339.333" y="177.667"/>
      <point x="319.666" y="41" type="curve" smooth="yes"/>
      <point x="314.666" y="3.667"/>
      <point x="295.666" y="-12"/>
      <point x="250.333" y="-12" type="curve" smooth="yes"/>
      <point x="205" y="-12"/>
      <point x="180.333" y="6.667"/>
      <point x="180.333" y="39.667" type="curve" smooth="yes"/>
      <point x="180.333" y="130.667"/>
      <point x="264.999" y="231.333"/>
      <point x="394.333" y="370.333" type="curve" smooth="yes"/>
      <point x="474.666" y="455.667"/>
      <point x="523.333" y="535"/>
      <point x="534.333" y="566" type="curve"/>
      <point x="285.999" y="566" type="line" smooth="yes"/>
      <point x="236" y="566"/>
      <point x="217.666" y="552"/>
      <point x="203.333" y="528.667" type="curve" smooth="yes"/>
      <point x="190" y="507.333" type="line"/>
    </contour>
  </outline>
</glyph>
<glyph name="eight" format="2">
  <advance width="567"/>
  <unicode hex="0038"/>
  <outline>
    <contour>
      <point x="304" y="465" type="curve" smooth="yes"/>
      <point x="304" y="410.334"/>
      <point x="328.667" y="379.667"/>
      <point x="375.334" y="379.667" type="curve" smooth="yes"/>
      <point x="431.667" y="379.667"/>
      <point x="479.333" y="449"/>
      <point x="483.333" y="546" type="curve"/>
      <point x="484" y="553.667"/>
      <point x="483.666" y="562"/>
      <point x="483.333" y="569.334" type="curve" smooth="yes"/>
      <point x="481" y="602.334"/>
      <point x="461.667" y="637.667"/>
      <point x="415.334" y="637.667" type="curve" smooth="yes"/>
      <point x="340" y="637.667"/>
      <point x="304" y="537"/>
    </contour>
    <contour>
      <point x="218.666" y="139" type="curve" smooth="yes"/>
      <point x="218.666" y="75.667"/>
      <point x="248.666" y="34.667"/>
      <point x="301.333" y="31" type="curve" smooth="yes"/>
      <point x="308.333" y="30.667"/>
      <point x="315.333" y="31"/>
      <point x="321.667" y="31.667" type="curve" smooth="yes"/>
      <point x="393.334" y="40.334"/>
      <point x="437.667" y="128.334"/>
      <point x="437.667" y="231" type="curve" smooth="yes"/>
      <point x="437.667" y="292.667"/>
      <point x="412" y="332.333"/>
      <point x="358" y="335.667" type="curve" smooth="yes"/>
      <point x="352" y="336"/>
      <point x="346" y="335.667"/>
      <point x="339.667" y="335" type="curve" smooth="yes"/>
      <point x="272.333" y="327"/>
      <point x="218.666" y="244.667"/>
    </contour>
    <contour>
      <point x="83.333" y="167" type="curve" smooth="yes"/>
      <point x="83.333" y="276.333"/>
      <point x="161.667" y="358.334"/>
      <point x="264.333" y="367.334" type="curve"/>
      <point x="264.333" y="370.667" type="line"/>
      <point x="221.999" y="385"/>
      <point x="177" y="425.334"/>
      <point x="177" y="495.334" type="curve" smooth="yes"/>
      <point x="177" y="545.334"/>
      <point x="195" y="588.334"/>
      <point x="228.666" y="620.667" type="curve" smooth="yes"/>
      <point x="267.666" y="658.667"/>
      <point x="324.333" y="678.333"/>
      <point x="399" y="679.667" type="curve"/>
      <point x="401.334" y="680"/>
      <point x="403.667" y="680"/>
      <point x="406" y="680" type="curve" smooth="yes"/>
      <point x="565" y="680"/>
      <point x="611" y="596.667"/>
      <point x="611" y="523.334" type="curve" smooth="yes"/>
      <point x="611" y="422.667"/>
      <point x="535.333" y="377.334"/>
      <point x="465.333" y="364.667" type="curve"/>
      <point x="465.333" y="361" type="line"/>
      <point x="519" y="345.333"/>
      <point x="573" y="293"/>
      <point x="573" y="209.667" type="curve" smooth="yes"/>
      <point x="573" y="147.667"/>
      <point x="553" y="93.667"/>
      <point x="511.666" y="54" type="curve" smooth="yes"/>
      <point x="468.333" y="13"/>
      <point x="403.334" y="-12"/>
      <point x="311.667" y="-12" type="curve" smooth="yes"/>
      <point x="148.667" y="-12"/>
      <point x="83.333" y="74"/>
    </contour>
  </outline>
</glyph>
<glyph name="nine" format="2">
  <advance width="550"/>
  <unicode hex="0039"/>
  <outline>
    <contour>
      <point x="259" y="442.667" type="curve" smooth="yes"/>
      <point x="259" y="377.667"/>
      <point x="289" y="324"/>
      <point x="358.333" y="324" type="curve" smooth="yes"/>
      <point x="449.667" y="324"/>
      <point x="469.667" y="431.333"/>
      <point x="469.667" y="501.334" type="curve" smooth="yes"/>
      <point x="469.667" y="574.334"/>
      <point x="446.667" y="637.667"/>
      <point x="384" y="637.667" type="curve" smooth="yes"/>
      <point x="299.333" y="637.667"/>
      <point x="259" y="531"/>
    </contour>
    <contour>
      <point x="83.667" y="106.666" type="curve" smooth="yes"/>
      <point x="83.667" y="144.666"/>
      <point x="117" y="171.333"/>
      <point x="146" y="171.333" type="curve" smooth="yes"/>
      <point x="212.333" y="171.333"/>
      <point x="179.667" y="31.666"/>
      <point x="277.667" y="31.666" type="curve" smooth="yes"/>
      <point x="372" y="31.666"/>
      <point x="425.334" y="163.666"/>
      <point x="453.667" y="326.667" type="curve"/>
      <point x="451.667" y="327.667" type="line"/>
      <point x="412.334" y="286.333"/>
      <point x="367.334" y="259.333"/>
      <point x="309.667" y="259.333" type="curve" smooth="yes"/>
      <point x="210.333" y="259.333"/>
      <point x="130.667" y="327.333"/>
      <point x="130.667" y="433" type="curve" smooth="yes"/>
      <point x="130.667" y="575.334"/>
      <point x="231" y="680"/>
      <point x="374.667" y="680" type="curve" smooth="yes"/>
      <point x="532.667" y="680"/>
      <point x="593.334" y="580.667"/>
      <point x="593.334" y="431.333" type="curve" smooth="yes"/>
      <point x="593.334" y="194"/>
      <point x="480" y="-12.667"/>
      <point x="283.333" y="-12.667" type="curve" smooth="yes"/>
      <point x="197.667" y="-12.667"/>
      <point x="83.667" y="31.666"/>
    </contour>
  </outline>
</glyph>
<glyph name="colon" format="2">
  <advance width="275"/>
  <unicode hex="003A"/>
  <outline>
    <contour>
      <point x="143.667" y="401.334" type="curve" smooth="yes"/>
      <point x="143.667" y="455.667"/>
      <point x="181.334" y="490"/>
      <point x="229.334" y="490" type="curve" smooth="yes"/>
      <point x="280.001" y="490"/>
      <point x="304.334" y="456.667"/>
      <point x="304.334" y="419.333" type="curve" smooth="yes"/>
      <point x="304.334" y="364.667"/>
      <point x="267.667" y="329.667"/>
      <point x="220.667" y="329.667" type="curve" smooth="yes"/>
      <point x="168.667" y="329.667"/>
      <point x="143.667" y="362"/>
    </contour>
    <contour>
      <point x="72" y="59.667" type="curve" smooth="yes"/>
      <point x="72" y="114"/>
      <point x="109.667" y="148.333"/>
      <point x="157.667" y="148.333" type="curve" smooth="yes"/>
      <point x="208.334" y="148.333"/>
      <point x="232.667" y="115"/>
      <point x="232.667" y="77.666" type="curve" smooth="yes"/>
      <point x="232.667" y="23"/>
      <point x="196" y="-12"/>
      <point x="149" y="-12" type="curve" smooth="yes"/>
      <point x="97" y="-12"/>
      <point x="72" y="20.333"/>
    </contour>
  </outline>
</glyph>
<glyph name="semicolon" format="2">
  <advance width="275"/>
  <unicode hex="003B"/>
  <outline>
    <contour>
      <point x="32.667" y="-130.667" type="line"/>
      <point x="70.667" y="-93.667"/>
      <point x="107.667" y="-47.667"/>
      <point x="109" y="0.333" type="curve" smooth="yes"/>
      <point x="109.667" y="18.666"/>
      <point x="103.667" y="35.333"/>
      <point x="98.667" y="46.666" type="curve" smooth="yes"/>
      <point x="97" y="50.333"/>
      <point x="95" y="54"/>
      <point x="94" y="57.666" type="curve"/>
      <point x="89.333" y="68.666"/>
      <point x="85.667" y="78.666"/>
      <point x="85" y="92" type="curve" smooth="yes"/>
      <point x="84.667" y="96.666"/>
      <point x="84.667" y="101"/>
      <point x="85.333" y="105.666" type="curve" smooth="yes"/>
      <point x="90" y="140.333"/>
      <point x="120" y="167.333"/>
      <point x="158" y="167.333" type="curve"/>
      <point x="206.334" y="168.666"/>
      <point x="230.667" y="128"/>
      <point x="230.667" y="85.333" type="curve" smooth="yes"/>
      <point x="230.667" y="-18"/>
      <point x="129.667" y="-100"/>
      <point x="55.667" y="-156" type="curve"/>
    </contour>
    <contour>
      <point x="143.667" y="401.334" type="curve" smooth="yes"/>
      <point x="143.667" y="455.667"/>
      <point x="181.334" y="490"/>
      <point x="229.334" y="490" type="curve" smooth="yes"/>
      <point x="280.001" y="490"/>
      <point x="304.334" y="456.667"/>
      <point x="304.334" y="419.333" type="curve" smooth="yes"/>
      <point x="304.334" y="364.667"/>
      <point x="267.667" y="329.667"/>
      <point x="220.667" y="329.667" type="curve" smooth="yes"/>
      <point x="168.667" y="329.667"/>
      <point x="143.667" y="362"/>
    </contour>
  </outline>
</glyph>
<glyph name="less" format="2">
  <advance width="590"/>
  <unicode hex="003C"/>
  <outline>
    <contour>
      <point x="96" y="208.333" type="line"/>
      <point x="96" y="290" type="line"/>
      <point x="574" y="495.667" type="line"/>
      <point x="574" y="412" type="line"/>
      <point x="180.333" y="249.333" type="line"/>
      <point x="574" y="86.667" type="line"/>
      <point x="574" y="3.667" type="line"/>
    </contour>
  </outline>
</glyph>
<glyph name="equal" format="2">
  <advance width="590"/>
  <unicode hex="003D"/>
  <outline>
    <contour>
      <point x="109.667" y="248.333" type="line"/>
      <point x="109.667" y="321" type="line"/>
      <point x="593.667" y="321" type="line"/>
      <point x="593.667" y="248.333" type="line"/>
    </contour>
    <contour>
      <point x="109.667" y="179" type="line"/>
      <point x="109.667" y="251.667" type="line"/>
      <point x="593.667" y="251.667" type="line"/>
      <point x="593.667" y="179" type="line"/>
    </contour>
  </outline>
</glyph>
<glyph name="greater" format="2">
  <advance width="590"/>
  <unicode hex="003E"/>
  <outline>
    <contour>
      <point x="109.333" y="3.667" type="line"/>
      <point x="109.333" y="86.667" type="line"/>
      <point x="503" y="249.333" type="line"/>
      <point x="109.333" y="412" type="line"/>
      <point x="109.333" y="495.667" type="line"/>
      <point x="587.333" y="290" type="line"/>
      <point x="587.333" y="208.333" type="line"/>
    </contour>
  </outline>
</glyph>
<glyph name="question" format="2">
  <advance width="444"/>
  <unicode hex="003F"/>
  <outline>
    <contour>
      <point x="150" y="59.667" type="curve" smooth="yes"/>
      <point x="150" y="114"/>
      <point x="187.667" y="148.333"/>
      <point x="235.667" y="148.333" type="curve" smooth="yes"/>
      <point x="286.333" y="148.333"/>
      <point x="310.667" y="115"/>
      <point x="310.667" y="77.666" type="curve" smooth="yes"/>
      <point x="310.667" y="23"/>
      <point x="274" y="-12"/>
      <point x="227" y="-12" type="curve" smooth="yes"/>
      <point x="175" y="-12"/>
      <point x="150" y="20.333"/>
    </contour>
    <contour>
      <point x="156.667" y="587.667" type="curve" smooth="yes"/>
      <point x="156.667" y="634"/>
      <point x="217.333" y="707"/>
      <point x="348" y="707" type="curve" smooth="yes"/>
      <point x="463" y="707"/>
      <point x="525" y="659"/>
      <point x="529.667" y="585.334" type="curve"/>
      <point x="530.334" y="580"/>
      <point x="530.334" y="574.667"/>
      <point x="530" y="569.667" type="curve"/>
      <point x="528" y="494"/>
      <point x="471" y="455.667"/>
      <point x="395.667" y="423.667" type="curve" smooth="yes"/>
      <point x="333.334" y="397.334"/>
      <point x="287" y="366.667"/>
      <point x="287" y="320.001" type="curve" smooth="yes"/>
      <point x="287" y="285.667"/>
      <point x="316" y="270.667"/>
      <point x="341" y="269.334" type="curve" smooth="yes"/>
      <point x="359" y="268.001"/>
      <point x="372" y="268.667"/>
      <point x="384" y="270.334" type="curve"/>
      <point x="390.667" y="245.334" type="line"/>
      <point x="360.667" y="224.667"/>
      <point x="311.334" y="211.667"/>
      <point x="273.333" y="211.667" type="curve" smooth="yes"/>
      <point x="211.333" y="211.667"/>
      <point x="161.333" y="245.001"/>
      <point x="161.333" y="303.667" type="curve" smooth="yes"/>
      <point x="161.333" y="353.334"/>
      <point x="199.667" y="390.001"/>
      <point x="267.334" y="427.334" type="curve" smooth="yes"/>
      <point x="355" y="476"/>
      <point x="400" y="539.334"/>
      <point x="400" y="609.667" type="curve" smooth="yes"/>
      <point x="400" y="639.334"/>
      <point x="387.333" y="664.667"/>
      <point x="357.667" y="664.667" type="curve" smooth="yes"/>
      <point x="323.667" y="664.667"/>
      <point x="295" y="629"/>
      <point x="267.334" y="565.667" type="curve" smooth="yes"/>
      <point x="265" y="560.334"/>
      <point x="262.334" y="555.334"/>
      <point x="259.667" y="550.667" type="curve" smooth="yes"/>
      <point x="252.334" y="538.334"/>
      <point x="241" y="531"/>
      <point x="222" y="531" type="curve" smooth="yes"/>
      <point x="197.333" y="531"/>
      <point x="156.667" y="547.334"/>
    </contour>
  </outline>
</glyph>
<glyph name="at" format="2">
  <advance width="817"/>
  <unicode hex="0040"/>
  <outline>
    <contour>
      <point x="411.334" y="258.667" type="curve" smooth="yes"/>
      <point x="411.334" y="228.333"/>
      <point x="421.334" y="215"/>
      <point x="438.001" y="215" type="curve" smooth="yes"/>
      <point x="480.334" y="215"/>
      <point x="544.334" y="328"/>
      <point x="571" y="399.334" type="curve" smooth="yes"/>
      <point x="584" y="432.667"/>
      <point x="595.667" y="464.667"/>
      <point x="605.333" y="495.334" type="curve"/>
      <point x="596.667" y="501.667"/>
      <point x="586.334" y="505"/>
      <point x="576.334" y="505.667" type="curve" smooth="yes"/>
      <point x="571" y="506"/>
      <point x="566" y="505.334"/>
      <point x="560.334" y="504.667" type="curve"/>
      <point x="472.667" y="491.334"/>
      <point x="411.334" y="319.667"/>
    </contour>
    <contour>
      <point x="124.333" y="305.667" type="curve" smooth="yes"/>
      <point x="124.333" y="557.001"/>
      <point x="325.334" y="707"/>
      <point x="543.334" y="707" type="curve" smooth="yes"/>
      <point x="740.666" y="707"/>
      <point x="862" y="574.667"/>
      <point x="862" y="414" type="curve" smooth="yes"/>
      <point x="862" y="293.667"/>
      <point x="776.666" y="164.667"/>
      <point x="631.667" y="164.667" type="curve" smooth="yes"/>
      <point x="557.667" y="164.667"/>
      <point x="541.334" y="205.333"/>
      <point x="552.334" y="257.333" type="curve" smooth="yes"/>
      <point x="555.667" y="274"/>
      <point x="559.667" y="291"/>
      <point x="564.334" y="309" type="curve"/>
      <point x="561.667" y="310.667" type="line"/>
      <point x="521.667" y="229.333"/>
      <point x="456.667" y="164"/>
      <point x="378.001" y="164.667" type="curve" smooth="yes"/>
      <point x="333.334" y="165"/>
      <point x="302.667" y="196"/>
      <point x="302.667" y="252.333" type="curve" smooth="yes"/>
      <point x="302.667" y="327.667"/>
      <point x="371.334" y="540.334"/>
      <point x="564.667" y="540.334" type="curve" smooth="yes"/>
      <point x="584.334" y="540.334"/>
      <point x="600" y="536.667"/>
      <point x="614.333" y="529.334" type="curve"/>
      <point x="617.667" y="536.001" type="line"/>
      <point x="712.667" y="536.001" type="line"/>
      <point x="688" y="444.667"/>
      <point x="664" y="354"/>
      <point x="642.667" y="262.667" type="curve" smooth="yes"/>
      <point x="636.667" y="237.333"/>
      <point x="639" y="216"/>
      <point x="666.667" y="213.667" type="curve"/>
      <point x="674.667" y="212.333"/>
      <point x="683" y="213.333"/>
      <point x="691.333" y="216" type="curve"/>
      <point x="751" y="232.667"/>
      <point x="795.333" y="335.333"/>
      <point x="795.333" y="409" type="curve"/>
      <point x="796.333" y="568.334"/>
      <point x="680" y="653.333"/>
      <point x="538.667" y="653.333" type="curve" smooth="yes"/>
      <point x="355" y="653.333"/>
      <point x="223" y="488"/>
      <point x="223" y="307" type="curve" smooth="yes"/>
      <point x="223" y="193.333"/>
      <point x="287" y="34"/>
      <point x="504" y="34" type="curve" smooth="yes"/>
      <point x="569.334" y="34"/>
      <point x="635.333" y="48"/>
      <point x="681.667" y="67.667" type="curve"/>
      <point x="691.667" y="36" type="line"/>
      <point x="635.667" y="-0.667"/>
      <point x="544.667" y="-15"/>
      <point x="484.667" y="-15" type="curve" smooth="yes"/>
      <point x="295.667" y="-15"/>
      <point x="124.333" y="87"/>
    </contour>
  </outline>
</glyph>
<glyph name="A" format="2">
  <advance width="631"/>
  <unicode hex="0041"/>
  <anchor x="462.667" y="733.333" name="top"/>
  <anchor x="299" y="705.333" name="tonos"/>
  <anchor x="466.667" y="663.333" name="aring"/>
  <anchor x="523.333" y="10" name="ogonek"/>
  <outline>
    <contour>
      <point x="-23.667" y="0" type="line"/>
      <point x="-17" y="35" type="line"/>
      <point x="12" y="38.333" type="line" smooth="yes"/>
      <point x="42.333" y="41.333"/>
      <point x="58" y="51.667"/>
      <point x="82" y="91" type="curve" smooth="yes"/>
      <point x="113" y="141.667"/>
      <point x="182.667" y="264.667"/>
      <point x="239.667" y="365" type="curve" smooth="yes"/>
      <point x="425" y="692" type="line"/>
      <point x="527.333" y="692" type="line"/>
      <point x="594.667" y="87.333" type="line" smooth="yes"/>
      <point x="598.333" y="55"/>
      <point x="603" y="40.333"/>
      <point x="628.667" y="38" type="curve" smooth="yes"/>
      <point x="668.667" y="35" type="line"/>
      <point x="661.333" y="0" type="line"/>
      <point x="379.333" y="0" type="line"/>
      <point x="386.667" y="35" type="line"/>
      <point x="439" y="39.333" type="line" smooth="yes"/>
      <point x="459" y="41.333"/>
      <point x="465" y="51.333"/>
      <point x="462.667" y="77" type="curve" smooth="yes"/>
      <point x="445" y="253" type="line"/>
      <point x="237" y="253" type="line"/>
      <point x="203.333" y="192"/>
      <point x="175" y="133"/>
      <point x="145.333" y="76.333" type="curve"/>
      <point x="135.667" y="56"/>
      <point x="137" y="40.667"/>
      <point x="158.333" y="39.333" type="curve" smooth="yes"/>
      <point x="214" y="35" type="line"/>
      <point x="207.333" y="0" type="line"/>
    </contour>
    <contour>
      <point x="261" y="297.667" type="curve"/>
      <point x="440" y="297.667" type="line"/>
      <point x="412.333" y="569.667" type="line"/>
      <point x="410.333" y="569.667" type="line"/>
      <point x="381" y="519.334"/>
      <point x="287.333" y="347.334"/>
    </contour>
  </outline>
</glyph>
<glyph name="B" format="2">
  <advance width="664"/>
  <unicode hex="0042"/>
  <outline>
    <contour>
      <point x="39.333" y="0" type="line"/>
      <point x="47.333" y="35" type="line"/>
      <point x="96" y="39.666" type="line" smooth="yes"/>
      <point x="123.333" y="42"/>
      <point x="131.666" y="58"/>
      <point x="139.333" y="93" type="curve" smooth="yes"/>
      <point x="252.666" y="599" type="line" smooth="yes"/>
      <point x="260.666" y="634.334"/>
      <point x="259.333" y="649.667"/>
      <point x="233" y="651.667" type="curve" smooth="yes"/>
      <point x="179.333" y="657" type="line"/>
      <point x="188" y="692" type="line"/>
      <point x="446.333" y="692" type="line" smooth="yes"/>
      <point x="556.667" y="692"/>
      <point x="706.333" y="679.333"/>
      <point x="706.333" y="535.667" type="curve" smooth="yes"/>
      <point x="706.333" y="455"/>
      <point x="648.333" y="383"/>
      <point x="516.666" y="368.333" type="curve"/>
      <point x="516.333" y="366" type="line"/>
      <point x="586.667" y="353.333"/>
      <point x="667.333" y="306.667"/>
      <point x="667.333" y="199.667" type="curve" smooth="yes"/>
      <point x="667.333" y="56.666"/>
      <point x="532" y="0"/>
      <point x="362.666" y="0" type="curve" smooth="yes"/>
    </contour>
    <contour>
      <point x="277.333" y="107" type="line" smooth="yes"/>
      <point x="268.333" y="67.333"/>
      <point x="273" y="42.333"/>
      <point x="346" y="42.333" type="curve" smooth="yes"/>
      <point x="469.333" y="42.333"/>
      <point x="521.333" y="125.333"/>
      <point x="521.333" y="217.667" type="curve" smooth="yes"/>
      <point x="521.333" y="308.333"/>
      <point x="461" y="347"/>
      <point x="371.333" y="347" type="curve" smooth="yes"/>
      <point x="331" y="347" type="line"/>
    </contour>
    <contour>
      <point x="340" y="389.333" type="line"/>
      <point x="391" y="389.333" type="line" smooth="yes"/>
      <point x="488.666" y="389.333"/>
      <point x="569" y="441.333"/>
      <point x="569" y="544.333" type="curve" smooth="yes"/>
      <point x="569" y="616.334"/>
      <point x="524" y="649.667"/>
      <point x="453.333" y="649.667" type="curve" smooth="yes"/>
      <point x="401.666" y="649.667"/>
      <point x="397.333" y="643.334"/>
      <point x="390.333" y="613.334" type="curve" smooth="yes"/>
    </contour>
  </outline>
</glyph>
<glyph name="C" format="2">
  <advance width="668"/>
  <unicode hex="0043"/>
  <outline>
    <contour>
      <point x="112" y="275" type="curve" smooth="yes"/>
      <point x="112" y="534.667"/>
      <point x="285" y="707"/>
      <point x="549" y="707" type="curve" smooth="yes"/>
      <point x="609.666" y="707"/>
      <point x="711.666" y="694"/>
      <point x="770.666" y="657.334" type="curve"/>
      <point x="732.666" y="488" type="line"/>
      <point x="697.333" y="488" type="line"/>
      <point x="698.333" y="585"/>
      <point x="667.333" y="664.667"/>
      <point x="547.666" y="664.667" type="curve" smooth="yes"/>
      <point x="339.333" y="664.667"/>
      <point x="260.333" y="419"/>
      <point x="260.333" y="239.667" type="curve" smooth="yes"/>
      <point x="260.333" y="95.666"/>
      <point x="330.666" y="27.333"/>
      <point x="429.333" y="27.333" type="curve" smooth="yes"/>
      <point x="545" y="27.333"/>
      <point x="598.666" y="106"/>
      <point x="659.666" y="208.667" type="curve"/>
      <point x="695" y="208.667" type="line"/>
      <point x="642" y="26.333" type="line"/>
      <point x="578" y="-6.333"/>
      <point x="501.333" y="-15"/>
      <point x="431.666" y="-15" type="curve" smooth="yes"/>
      <point x="154.333" y="-15"/>
      <point x="112" y="169.666"/>
    </contour>
  </outline>
</glyph>
<glyph name="D" format="2">
  <advance width="770"/>
  <unicode hex="0044"/>
  <outline>
    <contour>
      <point x="40" y="0" type="line"/>
      <point x="48" y="35" type="line"/>
      <point x="96.667" y="39.666" type="line" smooth="yes"/>
      <point x="124" y="41.666"/>
      <point x="132" y="58"/>
      <point x="139.667" y="93" type="curve" smooth="yes"/>
      <point x="253.333" y="599" type="line" smooth="yes"/>
      <point x="261" y="634"/>
      <point x="260" y="650"/>
      <point x="233.667" y="652" type="curve" smooth="yes"/>
      <point x="180" y="657" type="line"/>
      <point x="188.667" y="692" type="line"/>
      <point x="461.667" y="692" type="line" smooth="yes"/>
      <point x="660.667" y="692"/>
      <point x="813.333" y="630.334"/>
      <point x="813.333" y="405.667" type="curve" smooth="yes"/>
      <point x="813.333" y="167.333"/>
      <point x="611.667" y="0"/>
      <point x="356.333" y="0" type="curve" smooth="yes"/>
    </contour>
    <contour>
      <point x="274.333" y="93.333" type="line" smooth="yes"/>
      <point x="264.333" y="50"/>
      <point x="296.667" y="42.333"/>
      <point x="347" y="42.333" type="curve" smooth="yes"/>
      <point x="583" y="42.333"/>
      <point x="669" y="291.333"/>
      <point x="669" y="447" type="curve" smooth="yes"/>
      <point x="669" y="537"/>
      <point x="647.667" y="649.667"/>
      <point x="483" y="649.667" type="curve" smooth="yes"/>
      <point x="411.333" y="649.667"/>
      <point x="397.333" y="644"/>
      <point x="390" y="610.667" type="curve" smooth="yes"/>
    </contour>
  </outline>
</glyph>
<glyph name="E" format="2">
  <advance width="613"/>
  <unicode hex="0045"/>
  <anchor x="148.667" y="703.667" name="tonos"/>
  <anchor x="148.667" y="692" name="greek.UC.tonos"/>
  <anchor x="479.667" y="10" name="ogonek"/>
  <anchor x="458.333" y="733.333" name="top"/>
  <outline>
    <contour>
      <point x="39.334" y="0" type="line"/>
      <point x="47.334" y="35" type="line"/>
      <point x="96" y="39.667" type="line" smooth="yes"/>
      <point x="123.334" y="41.667"/>
      <point x="131" y="57.667"/>
      <point x="139" y="93" type="curve" smooth="yes"/>
      <point x="253" y="599.667" type="line" smooth="yes"/>
      <point x="255.214" y="609.451"/>
      <point x="256.331" y="617.71"/>
      <point x="256.331" y="624.577" type="curve" smooth="yes"/>
      <point x="256.331" y="642.493"/>
      <point x="248.68" y="650.887"/>
      <point x="233" y="652.334" type="curve" smooth="yes"/>
      <point x="179" y="657" type="line"/>
      <point x="188.667" y="692" type="line"/>
      <point x="712" y="692" type="line"/>
      <point x="672.666" y="513.001" type="line"/>
      <point x="638.333" y="513.001" type="line"/>
      <point x="633.666" y="567" type="line" smooth="yes"/>
      <point x="629.333" y="619"/>
      <point x="607" y="649.667"/>
      <point x="526.334" y="649.667" type="curve" smooth="yes"/>
      <point x="433.667" y="649.667" type="line" smooth="yes"/>
      <point x="404.667" y="649.667"/>
      <point x="398" y="645.334"/>
      <point x="391.667" y="618" type="curve" smooth="yes"/>
      <point x="339.334" y="384.334" type="line"/>
      <point x="445.667" y="384.334" type="line" smooth="yes"/>
      <point x="517" y="384.334"/>
      <point x="531.333" y="401.001"/>
      <point x="561.333" y="472.667" type="curve"/>
      <point x="596.666" y="472.667" type="line"/>
      <point x="548" y="251" type="line"/>
      <point x="512.667" y="251" type="line"/>
      <point x="513.209" y="258.297"/>
      <point x="513.359" y="268.225"/>
      <point x="513.359" y="281.015" type="curve" smooth="yes"/>
      <point x="513.359" y="320.942"/>
      <point x="497.043" y="339.667"/>
      <point x="435.667" y="339.667" type="curve" smooth="yes"/>
      <point x="329.334" y="339.667" type="line"/>
      <point x="277" y="109.334" type="line" smooth="yes"/>
      <point x="274.706" y="99.454"/>
      <point x="273.447" y="90.963"/>
      <point x="273.447" y="83.684" type="curve"/>
      <point x="273.446" y="47.733"/>
      <point x="304.73" y="42.334"/>
      <point x="385.648" y="42.334" type="curve" smooth="yes"/>
      <point x="476.667" y="42.334"/>
      <point x="525" y="64"/>
      <point x="572.666" y="148" type="curve" smooth="yes"/>
      <point x="601" y="197.334" type="line"/>
      <point x="636.333" y="197.334" type="line"/>
      <point x="579.999" y="0" type="line"/>
    </contour>
  </outline>
</glyph>
<glyph name="F" format="2">
  <advance width="580"/>
  <unicode hex="0046"/>
  <outline>
    <contour>
      <point x="39.334" y="0" type="line"/>
      <point x="47.334" y="35" type="line"/>
      <point x="96" y="39.333" type="line" smooth="yes"/>
      <point x="123.334" y="41.333"/>
      <point x="131.334" y="58"/>
      <point x="139" y="92" type="curve" smooth="yes"/>
      <point x="253" y="600" type="line" smooth="yes"/>
      <point x="260.667" y="633.667"/>
      <point x="259.334" y="649"/>
      <point x="233" y="651.667" type="curve" smooth="yes"/>
      <point x="179.334" y="657" type="line"/>
      <point x="188" y="692" type="line"/>
      <point x="710.333" y="692" type="line"/>
      <point x="670.999" y="515" type="line"/>
      <point x="636.666" y="515" type="line"/>
      <point x="631.999" y="569.667" type="line" smooth="yes"/>
      <point x="627.999" y="621"/>
      <point x="605.999" y="649.667"/>
      <point x="518.334" y="649.667" type="curve" smooth="yes"/>
      <point x="428" y="649.667" type="line" smooth="yes"/>
      <point x="405.334" y="649.667"/>
      <point x="397.667" y="643.334"/>
      <point x="392.334" y="620.334" type="curve" smooth="yes"/>
      <point x="335.667" y="367" type="line"/>
      <point x="455" y="367" type="line" smooth="yes"/>
      <point x="526.334" y="367"/>
      <point x="541.333" y="384.333"/>
      <point x="571.333" y="456.333" type="curve"/>
      <point x="606.666" y="456.333" type="line"/>
      <point x="558" y="233" type="line"/>
      <point x="522.667" y="233" type="line"/>
      <point x="526" y="296.666"/>
      <point x="517.667" y="322.333"/>
      <point x="445.667" y="322.333" type="curve" smooth="yes"/>
      <point x="325" y="322.333" type="line"/>
      <point x="272.334" y="90" type="line" smooth="yes"/>
      <point x="264.667" y="56"/>
      <point x="270" y="42"/>
      <point x="299.334" y="39.333" type="curve" smooth="yes"/>
      <point x="361" y="35" type="line"/>
      <point x="353.667" y="0" type="line"/>
    </contour>
  </outline>
</glyph>
<glyph name="G" format="2">
  <advance width="720"/>
  <unicode hex="0047"/>
  <outline>
    <contour>
      <point x="112" y="284.333" type="curve" smooth="yes"/>
      <point x="112" y="541"/>
      <point x="294" y="707"/>
      <point x="548.333" y="707" type="curve" smooth="yes"/>
      <point x="620.334" y="707"/>
      <point x="711.334" y="694.667"/>
      <point x="772.333" y="655.667" type="curve"/>
      <point x="737" y="487" type="line"/>
      <point x="701.667" y="487" type="line"/>
      <point x="698" y="583.667"/>
      <point x="665" y="664.667"/>
      <point x="546.667" y="664.667" type="curve" smooth="yes"/>
      <point x="337.666" y="664.667"/>
      <point x="261.333" y="423.333"/>
      <point x="261.333" y="253.333" type="curve" smooth="yes"/>
      <point x="261.333" y="103.666"/>
      <point x="321.666" y="27.333"/>
      <point x="436" y="27.333" type="curve" smooth="yes"/>
      <point x="510.667" y="27.333"/>
      <point x="523" y="43.666"/>
      <point x="531.333" y="79.333" type="curve" smooth="yes"/>
      <point x="565.667" y="219" type="line" smooth="yes"/>
      <point x="574.667" y="254"/>
      <point x="569" y="269.666"/>
      <point x="549.333" y="271.666" type="curve" smooth="yes"/>
      <point x="481.667" y="277.333" type="line"/>
      <point x="489" y="312.333" type="line"/>
      <point x="784.667" y="312.333" type="line"/>
      <point x="776.667" y="277.333" type="line"/>
      <point x="734.667" y="272" type="line" smooth="yes"/>
      <point x="713" y="269.333"/>
      <point x="708.334" y="252.333"/>
      <point x="700.334" y="219" type="curve" smooth="yes"/>
      <point x="656.667" y="33" type="line"/>
      <point x="589.667" y="-1.333"/>
      <point x="503" y="-15"/>
      <point x="428.667" y="-15" type="curve" smooth="yes"/>
      <point x="236.666" y="-15"/>
      <point x="112" y="76"/>
    </contour>
  </outline>
</glyph>
<glyph name="H" format="2">
  <advance width="790"/>
  <unicode hex="0048"/>
  <anchor x="153" y="705.333" name="tonos"/>
  <outline>
    <contour>
      <point x="38.3333" y="0" type="line"/>
      <point x="46.3333" y="35" type="line"/>
      <point x="94.6663" y="39.667" type="line" smooth="yes"/>
      <point x="122" y="41.667"/>
      <point x="130" y="57.667"/>
      <point x="138" y="93" type="curve" smooth="yes"/>
      <point x="252" y="599" type="line" smooth="yes"/>
      <point x="259.666" y="633.667"/>
      <point x="258.333" y="650.333"/>
      <point x="232" y="652.333" type="curve" smooth="yes"/>
      <point x="178.333" y="657" type="line"/>
      <point x="187.333" y="692" type="line"/>
      <point x="486.666" y="692" type="line"/>
      <point x="477.666" y="657" type="line"/>
      <point x="430" y="652.667" type="line" smooth="yes"/>
      <point x="402.333" y="650.667"/>
      <point x="394.666" y="634"/>
      <point x="386.666" y="599" type="curve" smooth="yes"/>
      <point x="338.333" y="384.334" type="line"/>
      <point x="623" y="384.334" type="line"/>
      <point x="671" y="599" type="line" smooth="yes"/>
      <point x="678.666" y="633.667"/>
      <point x="677.333" y="650.333"/>
      <point x="651" y="652.333" type="curve" smooth="yes"/>
      <point x="597.333" y="657" type="line"/>
      <point x="606.333" y="692" type="line"/>
      <point x="905.666" y="692" type="line"/>
      <point x="896.666" y="657" type="line"/>
      <point x="849" y="652.667" type="line" smooth="yes"/>
      <point x="821.333" y="650.667"/>
      <point x="813.666" y="634"/>
      <point x="805.666" y="599" type="curve" smooth="yes"/>
      <point x="691.666" y="93" type="line" smooth="yes"/>
      <point x="683.666" y="58"/>
      <point x="685" y="41.667"/>
      <point x="711.666" y="39" type="curve" smooth="yes"/>
      <point x="764.666" y="35" type="line"/>
      <point x="756.666" y="0" type="line"/>
      <point x="457.333" y="0" type="line"/>
      <point x="465.333" y="35" type="line"/>
      <point x="513.666" y="39.667" type="line" smooth="yes"/>
      <point x="541" y="41.667"/>
      <point x="549" y="57.667"/>
      <point x="557" y="93" type="curve" smooth="yes"/>
      <point x="612.666" y="339.667" type="line"/>
      <point x="328" y="339.667" type="line"/>
      <point x="272.666" y="93" type="line" smooth="yes"/>
      <point x="265" y="58"/>
      <point x="266" y="41.667"/>
      <point x="292.666" y="39" type="curve" smooth="yes"/>
      <point x="345.666" y="35" type="line"/>
      <point x="337.666" y="0" type="line"/>
    </contour>
  </outline>
</glyph>
<glyph name="I" format="2">
  <advance width="371"/>
  <unicode hex="0049"/>
  <anchor x="346.333" y="740" name="top"/>
  <anchor x="154" y="705.333" name="tonos"/>
  <outline>
    <contour>
      <point x="38.3337" y="0" type="line"/>
      <point x="46.3337" y="35" type="line"/>
      <point x="94.6667" y="39.667" type="line" smooth="yes"/>
      <point x="122" y="42.667"/>
      <point x="130.334" y="58.333"/>
      <point x="138" y="93" type="curve" smooth="yes"/>
      <point x="252" y="599" type="line" smooth="yes"/>
      <point x="254.544" y="610.316"/>
      <point x="256.18" y="619.602"/>
      <point x="256.18" y="627.057" type="curve" smooth="yes"/>
      <point x="256.18" y="642.361"/>
      <point x="249.561" y="650.567"/>
      <point x="232" y="652.333" type="curve" smooth="yes"/>
      <point x="178.334" y="657" type="line"/>
      <point x="187.334" y="692" type="line"/>
      <point x="486.667" y="692" type="line"/>
      <point x="477.667" y="657" type="line"/>
      <point x="430" y="652.667" type="line" smooth="yes"/>
      <point x="402.334" y="650"/>
      <point x="394.334" y="633.333"/>
      <point x="386.667" y="599" type="curve" smooth="yes"/>
      <point x="272.667" y="93" type="line" smooth="yes"/>
      <point x="270.097" y="81.479"/>
      <point x="268.436" y="71.886"/>
      <point x="268.436" y="64.163" type="curve" smooth="yes"/>
      <point x="268.436" y="48.651"/>
      <point x="274.951" y="40.335"/>
      <point x="292.667" y="39" type="curve" smooth="yes"/>
      <point x="345.667" y="35" type="line"/>
      <point x="337.667" y="0" type="line"/>
    </contour>
  </outline>
</glyph>
<glyph name="K" format="2">
  <advance width="675"/>
  <unicode hex="004B"/>
  <outline>
    <contour>
      <point x="40" y="0" type="line"/>
      <point x="48" y="35" type="line"/>
      <point x="96.333" y="39.667" type="line" smooth="yes"/>
      <point x="123.667" y="41.667"/>
      <point x="132" y="58.333"/>
      <point x="139.667" y="93" type="curve" smooth="yes"/>
      <point x="253.667" y="599" type="line" smooth="yes"/>
      <point x="261.333" y="633"/>
      <point x="260" y="650.333"/>
      <point x="233.667" y="652.333" type="curve" smooth="yes"/>
      <point x="180" y="657" type="line"/>
      <point x="189" y="692" type="line"/>
      <point x="488.333" y="692" type="line"/>
      <point x="479.333" y="657" type="line"/>
      <point x="431.667" y="652.667" type="line" smooth="yes"/>
      <point x="404" y="650.667"/>
      <point x="396" y="633.333"/>
      <point x="388.333" y="599" type="curve" smooth="yes"/>
      <point x="335.667" y="365.333" type="line"/>
      <point x="337.667" y="363.333" type="line"/>
      <point x="433.333" y="448.333"/>
      <point x="522.333" y="531"/>
      <point x="609.667" y="618.333" type="curve" smooth="yes"/>
      <point x="631" y="640"/>
      <point x="633.667" y="650.667"/>
      <point x="606.667" y="654" type="curve" smooth="yes"/>
      <point x="577.333" y="657" type="line"/>
      <point x="583.333" y="692" type="line"/>
      <point x="845.667" y="692" type="line"/>
      <point x="839.667" y="657" type="line"/>
      <point x="772" y="651.333"/>
      <point x="752" y="645"/>
      <point x="701.667" y="610.333" type="curve" smooth="yes"/>
      <point x="610.333" y="548.333"/>
      <point x="530" y="479"/>
      <point x="446" y="400.333" type="curve"/>
      <point x="490" y="300.333"/>
      <point x="544.667" y="187.667"/>
      <point x="613" y="97.667" type="curve" smooth="yes"/>
      <point x="641" y="60.667"/>
      <point x="662.333" y="38.333"/>
      <point x="707.333" y="28" type="curve"/>
      <point x="701" y="-5.667" type="line"/>
      <point x="656.667" y="-5.667" type="line" smooth="yes"/>
      <point x="538.333" y="-5.667"/>
      <point x="496.667" y="27"/>
      <point x="450" y="104.667" type="curve" smooth="yes"/>
      <point x="403" y="180.333"/>
      <point x="368" y="257.667"/>
      <point x="332.667" y="344.333" type="curve"/>
      <point x="330.667" y="344.333" type="line"/>
      <point x="274.333" y="93" type="line" smooth="yes"/>
      <point x="266.667" y="58.667"/>
      <point x="267.667" y="41.667"/>
      <point x="294.333" y="39" type="curve" smooth="yes"/>
      <point x="347.333" y="35" type="line"/>
      <point x="339.333" y="0" type="line"/>
    </contour>
  </outline>
</glyph>
<glyph name="L" format="2">
  <advance width="579"/>
  <unicode hex="004C"/>
  <outline>
    <contour>
      <point x="40" y="0" type="line"/>
      <point x="48" y="35" type="line"/>
      <point x="96.333" y="39.667" type="line" smooth="yes"/>
      <point x="123.667" y="42.334"/>
      <point x="131.667" y="57.334"/>
      <point x="139.667" y="93" type="curve" smooth="yes"/>
      <point x="253.667" y="599" type="line" smooth="yes"/>
      <point x="261.667" y="634"/>
      <point x="260" y="650.667"/>
      <point x="233.667" y="652.667" type="curve" smooth="yes"/>
      <point x="180" y="657" type="line"/>
      <point x="189" y="692" type="line"/>
      <point x="490" y="692" type="line"/>
      <point x="481" y="657" type="line"/>
      <point x="431.667" y="653" type="line" smooth="yes"/>
      <point x="404" y="650.333"/>
      <point x="396" y="634"/>
      <point x="388" y="599" type="curve" smooth="yes"/>
      <point x="277.667" y="108" type="line" smooth="yes"/>
      <point x="266.667" y="59.667"/>
      <point x="285.667" y="50.667"/>
      <point x="340" y="46.667" type="curve" smooth="yes"/>
      <point x="393.667" y="43.334"/>
      <point x="442.333" y="58.334"/>
      <point x="493.333" y="113.667" type="curve"/>
      <point x="535.134" y="120.281"/>
      <point x="561.129" y="143.874"/>
      <point x="583" y="192.667" type="curve"/>
      <point x="618.333" y="192.667" type="line"/>
      <point x="562.667" y="0" type="line"/>
    </contour>
  </outline>
</glyph>
<glyph name="M" format="2">
  <advance width="921"/>
  <unicode hex="004D"/>
  <outline>
    <contour>
      <point x="33.667" y="0" type="line"/>
      <point x="40" y="35" type="line"/>
      <point x="75" y="38" type="line" smooth="yes"/>
      <point x="100" y="40.333"/>
      <point x="116.667" y="52.333"/>
      <point x="127.333" y="85.667" type="curve" smooth="yes"/>
      <point x="138" y="119.333"/>
      <point x="148.333" y="158"/>
      <point x="162.333" y="225.667" type="curve"/>
      <point x="244.333" y="599" type="line" smooth="yes"/>
      <point x="252.333" y="634"/>
      <point x="250.667" y="649.667"/>
      <point x="224.333" y="651.667" type="curve" smooth="yes"/>
      <point x="170.667" y="657" type="line"/>
      <point x="179.667" y="692" type="line"/>
      <point x="406.333" y="692" type="line"/>
      <point x="420" y="611"/>
      <point x="436" y="530.333"/>
      <point x="452" y="449" type="curve"/>
      <point x="500.667" y="186.667" type="line"/>
      <point x="503.667" y="186.667" type="line"/>
      <point x="659.333" y="446.667" type="line" smooth="yes"/>
      <point x="709" y="529"/>
      <point x="758.667" y="610.333"/>
      <point x="801.667" y="692" type="curve"/>
      <point x="1034.33" y="692" type="line"/>
      <point x="1025.33" y="657" type="line"/>
      <point x="977.667" y="653" type="line" smooth="yes"/>
      <point x="950" y="651"/>
      <point x="942.333" y="634.333"/>
      <point x="934.333" y="599" type="curve" smooth="yes"/>
      <point x="821" y="93" type="line" smooth="yes"/>
      <point x="813.333" y="58.333"/>
      <point x="814.333" y="42.333"/>
      <point x="841" y="39.667" type="curve" smooth="yes"/>
      <point x="894" y="35" type="line"/>
      <point x="886" y="0" type="line"/>
      <point x="594" y="0" type="line"/>
      <point x="602" y="35" type="line"/>
      <point x="649.667" y="39.667" type="line" smooth="yes"/>
      <point x="677" y="41.667"/>
      <point x="685" y="57.667"/>
      <point x="693" y="93" type="curve" smooth="yes"/>
      <point x="806.667" y="592" type="line"/>
      <point x="803.667" y="592" type="line"/>
      <point x="455.333" y="12" type="line"/>
      <point x="402.667" y="12" type="line"/>
      <point x="300" y="592" type="line"/>
      <point x="297.333" y="592" type="line"/>
      <point x="218.667" y="225.667" type="line" smooth="yes"/>
      <point x="204" y="158.667"/>
      <point x="197.333" y="120"/>
      <point x="194.333" y="85.667" type="curve" smooth="yes"/>
      <point x="191.333" y="53.333"/>
      <point x="203" y="40.333"/>
      <point x="233" y="38" type="curve" smooth="yes"/>
      <point x="281.333" y="35" type="line"/>
      <point x="274.333" y="0" type="line"/>
    </contour>
  </outline>
</glyph>
<glyph name="N" format="2">
  <advance width="748"/>
  <unicode hex="004E"/>
  <anchor x="531" y="740" name="top"/>
  <outline>
    <contour>
      <point x="30.333" y="0" type="line"/>
      <point x="37.333" y="35" type="line"/>
      <point x="72.333" y="38" type="line" smooth="yes"/>
      <point x="98.333" y="40.333"/>
      <point x="114" y="52.333"/>
      <point x="125.333" y="85.667" type="curve" smooth="yes"/>
      <point x="136.667" y="119.333"/>
      <point x="147" y="158"/>
      <point x="162.333" y="225.667" type="curve" smooth="yes"/>
      <point x="245.667" y="599" type="line" smooth="yes"/>
      <point x="253.667" y="634"/>
      <point x="252" y="649.667"/>
      <point x="225.667" y="651.667" type="curve" smooth="yes"/>
      <point x="172.667" y="657" type="line"/>
      <point x="181.667" y="692" type="line"/>
      <point x="393" y="692" type="line"/>
      <point x="467.667" y="516.333"/>
      <point x="543.667" y="341.333"/>
      <point x="620.333" y="165.667" type="curve"/>
      <point x="623.667" y="165.667" type="line"/>
      <point x="690.333" y="466.333" type="line" smooth="yes"/>
      <point x="705" y="533.333"/>
      <point x="713" y="572"/>
      <point x="716" y="606.333" type="curve" smooth="yes"/>
      <point x="719" y="639.333"/>
      <point x="708" y="651"/>
      <point x="678" y="653.667" type="curve" smooth="yes"/>
      <point x="629" y="657" type="line"/>
      <point x="636" y="692" type="line"/>
      <point x="878.667" y="692" type="line"/>
      <point x="871.667" y="657" type="line"/>
      <point x="836.667" y="654" type="line" smooth="yes"/>
      <point x="810.667" y="651.667"/>
      <point x="795" y="639.667"/>
      <point x="783.667" y="606.333" type="curve" smooth="yes"/>
      <point x="772.333" y="572.667"/>
      <point x="762" y="534"/>
      <point x="746.667" y="466.333" type="curve" smooth="yes"/>
      <point x="642.667" y="0" type="line"/>
      <point x="551.667" y="0" type="line"/>
      <point x="469" y="192.333"/>
      <point x="385.667" y="384.667"/>
      <point x="301" y="577" type="curve"/>
      <point x="297.333" y="577" type="line"/>
      <point x="218" y="225.667" type="line"/>
      <point x="204" y="158.667"/>
      <point x="196.667" y="120"/>
      <point x="193" y="85.667" type="curve" smooth="yes"/>
      <point x="190" y="53.333"/>
      <point x="201.667" y="40.333"/>
      <point x="231" y="38" type="curve" smooth="yes"/>
      <point x="280" y="35" type="line"/>
      <point x="273" y="0" type="line"/>
    </contour>
  </outline>
</glyph>
<glyph name="O" format="2">
  <advance width="758"/>
  <unicode hex="004F"/>
  <anchor x="520.667" y="733.333" name="top"/>
  <anchor x="398" y="10" name="ogonek"/>
  <anchor x="153" y="705.333" name="tonos"/>
  <outline>
    <contour>
      <point x="113.333" y="266" type="curve" smooth="yes"/>
      <point x="113.333" y="498"/>
      <point x="252" y="707"/>
      <point x="504.666" y="707" type="curve" smooth="yes"/>
      <point x="671.666" y="707"/>
      <point x="798.333" y="620.334"/>
      <point x="798.333" y="417.333" type="curve" smooth="yes"/>
      <point x="798.333" y="189.667"/>
      <point x="664" y="-15"/>
      <point x="415.666" y="-15" type="curve" smooth="yes"/>
      <point x="215.333" y="-15"/>
      <point x="113.333" y="98.333"/>
    </contour>
    <contour>
      <point x="258.333" y="203.333" type="curve" smooth="yes"/>
      <point x="258.333" y="89"/>
      <point x="309.333" y="27.333"/>
      <point x="401.333" y="27.333" type="curve" smooth="yes"/>
      <point x="570.666" y="27.333"/>
      <point x="653.333" y="306.333"/>
      <point x="653.333" y="492.667" type="curve" smooth="yes"/>
      <point x="653.333" y="598.334"/>
      <point x="612" y="664.667"/>
      <point x="516" y="664.667" type="curve" smooth="yes"/>
      <point x="338" y="664.667"/>
      <point x="258.333" y="364.333"/>
    </contour>
  </outline>
</glyph>
<glyph name="P" format="2">
  <advance width="645"/>
  <unicode hex="0050"/>
  <outline>
    <contour>
      <point x="40" y="0" type="line"/>
      <point x="48" y="35" type="line"/>
      <point x="96.333" y="39.667" type="line" smooth="yes"/>
      <point x="123.667" y="41.667"/>
      <point x="131.667" y="57.667"/>
      <point x="139.667" y="93" type="curve" smooth="yes"/>
      <point x="254.333" y="599" type="line" smooth="yes"/>
      <point x="262.333" y="634"/>
      <point x="260.667" y="650"/>
      <point x="234.333" y="652" type="curve" smooth="yes"/>
      <point x="180.667" y="657" type="line"/>
      <point x="189.667" y="692" type="line"/>
      <point x="435.667" y="692" type="line" smooth="yes"/>
      <point x="566" y="692"/>
      <point x="713" y="666"/>
      <point x="713" y="502.667" type="curve" smooth="yes"/>
      <point x="713" y="316.333"/>
      <point x="533.667" y="269.333"/>
      <point x="381.333" y="269.333" type="curve" smooth="yes"/>
      <point x="314.667" y="269.333" type="line"/>
      <point x="274.333" y="93" type="line" smooth="yes"/>
      <point x="266.667" y="59.667"/>
      <point x="267.667" y="42.333"/>
      <point x="295.667" y="40.333" type="curve" smooth="yes"/>
      <point x="362" y="35" type="line"/>
      <point x="354.667" y="0" type="line"/>
    </contour>
    <contour>
      <point x="332.333" y="347.666" type="line" smooth="yes"/>
      <point x="326.667" y="323.666"/>
      <point x="326.667" y="311.666"/>
      <point x="381" y="311.666" type="curve" smooth="yes"/>
      <point x="506" y="311.666"/>
      <point x="572" y="413.666"/>
      <point x="572" y="529.333" type="curve" smooth="yes"/>
      <point x="572" y="608.334"/>
      <point x="530.333" y="649.667"/>
      <point x="451.333" y="649.667" type="curve" smooth="yes"/>
      <point x="405" y="649.667"/>
      <point x="398.667" y="640.667"/>
      <point x="392" y="612.667" type="curve" smooth="yes"/>
    </contour>
  </outline>
</glyph>
<glyph name="Q" format="2">
  <advance width="758"/>
  <unicode hex="0051"/>
  <outline>
    <component base="O"/>
    <contour>
      <point x="341" y="5.334" type="curve"/>
      <point x="493.667" y="5.334" type="line"/>
      <point x="527.667" y="-63.666"/>
      <point x="609.667" y="-156.666"/>
      <point x="697.333" y="-156.666" type="curve"/>
      <point x="701.667" y="-178.333" type="line"/>
      <point x="681.333" y="-189.666"/>
      <point x="646.667" y="-196.333"/>
      <point x="614.667" y="-196.333" type="curve" smooth="yes"/>
      <point x="470.333" y="-196.333"/>
      <point x="372.667" y="-82.333"/>
    </contour>
  </outline>
</glyph>
<glyph name="R" format="2">
  <advance width="667"/>
  <unicode hex="0052"/>
  <outline>
    <contour>
      <point x="40" y="0" type="line"/>
      <point x="48" y="35" type="line"/>
      <point x="96.333" y="39.667" type="line" smooth="yes"/>
      <point x="123.667" y="41.667"/>
      <point x="131.667" y="57.333"/>
      <point x="139.667" y="93" type="curve" smooth="yes"/>
      <point x="253.667" y="599" type="line" smooth="yes"/>
      <point x="261.667" y="634"/>
      <point x="260" y="650"/>
      <point x="233.667" y="652" type="curve" smooth="yes"/>
      <point x="180" y="657" type="line"/>
      <point x="189" y="692" type="line"/>
      <point x="467" y="692" type="line" smooth="yes"/>
      <point x="606" y="692"/>
      <point x="713" y="650.667"/>
      <point x="713" y="528.333" type="curve" smooth="yes"/>
      <point x="713" y="426"/>
      <point x="627" y="354.666"/>
      <point x="503" y="343.666" type="curve"/>
      <point x="503" y="341.666" type="line"/>
      <point x="601.334" y="317.333"/>
      <point x="604" y="252.667"/>
      <point x="601.667" y="172.667" type="curve" smooth="yes"/>
      <point x="599.334" y="120.667"/>
      <point x="606.334" y="87"/>
      <point x="619" y="65.333" type="curve" smooth="yes"/>
      <point x="630.334" y="46.667"/>
      <point x="654.334" y="38.333"/>
      <point x="686.333" y="35" type="curve"/>
      <point x="677.333" y="0" type="line"/>
      <point x="587.334" y="0" type="line" smooth="yes"/>
      <point x="521.333" y="0"/>
      <point x="482.667" y="27"/>
      <point x="473" y="81" type="curve"/>
      <point x="462" y="151"/>
      <point x="474.667" y="228.667"/>
      <point x="468" y="264" type="curve" smooth="yes"/>
      <point x="459.333" y="308.667"/>
      <point x="433" y="320"/>
      <point x="384" y="320" type="curve" smooth="yes"/>
      <point x="325.333" y="320" type="line"/>
      <point x="274.333" y="93" type="line" smooth="yes"/>
      <point x="266.333" y="57.667"/>
      <point x="267.667" y="42"/>
      <point x="294.333" y="39.333" type="curve" smooth="yes"/>
      <point x="347.333" y="35" type="line"/>
      <point x="339.333" y="0" type="line"/>
    </contour>
    <contour>
      <point x="334.667" y="362.333" type="line"/>
      <point x="398" y="362.333" type="line" smooth="yes"/>
      <point x="493.667" y="362.333"/>
      <point x="572" y="426"/>
      <point x="572" y="542.333" type="curve" smooth="yes"/>
      <point x="572" y="618"/>
      <point x="527.333" y="649.667"/>
      <point x="461" y="649.667" type="curve" smooth="yes"/>
      <point x="403.667" y="649.667"/>
      <point x="398" y="639.334"/>
      <point x="391.667" y="613" type="curve" smooth="yes"/>
    </contour>
  </outline>
</glyph>
<glyph name="S" format="2">
  <advance width="545"/>
  <unicode hex="0053"/>
  <outline>
    <contour>
      <point x="67" y="69" type="curve"/>
      <point x="91" y="238" type="line"/>
      <point x="125.333" y="238" type="line"/>
      <point x="132.666" y="99"/>
      <point x="213.334" y="27.333"/>
      <point x="295.333" y="27.333" type="curve" smooth="yes"/>
      <point x="382" y="27.333"/>
      <point x="425.667" y="88"/>
      <point x="425.667" y="155.666" type="curve" smooth="yes"/>
      <point x="425.667" y="227"/>
      <point x="380.334" y="272.333"/>
      <point x="314.333" y="308.333" type="curve" smooth="yes"/>
      <point x="227.333" y="356"/>
      <point x="160.667" y="409"/>
      <point x="160.667" y="501" type="curve" smooth="yes"/>
      <point x="160.667" y="586.334"/>
      <point x="215.667" y="707"/>
      <point x="407.334" y="707" type="curve" smooth="yes"/>
      <point x="464.667" y="707"/>
      <point x="546.001" y="693.333"/>
      <point x="595.667" y="654" type="curve"/>
      <point x="561.001" y="500" type="line"/>
      <point x="526.001" y="500" type="line"/>
      <point x="528.001" y="611.667"/>
      <point x="481.667" y="664.667"/>
      <point x="402.334" y="664.667" type="curve" smooth="yes"/>
      <point x="324.667" y="664.667"/>
      <point x="282" y="609.334"/>
      <point x="282" y="550.334" type="curve" smooth="yes"/>
      <point x="282" y="485.667"/>
      <point x="341.667" y="448.333"/>
      <point x="401.667" y="415" type="curve" smooth="yes"/>
      <point x="502.001" y="360.333"/>
      <point x="552.334" y="300"/>
      <point x="552.334" y="208.667" type="curve" smooth="yes"/>
      <point x="552.334" y="89.666"/>
      <point x="478" y="-13"/>
      <point x="292.667" y="-15" type="curve"/>
      <point x="215.667" y="-15"/>
      <point x="114.666" y="10.333"/>
    </contour>
  </outline>
</glyph>
<glyph name="T" format="2">
  <advance width="613"/>
  <unicode hex="0054"/>
  <outline>
    <contour>
      <point x="129.667" y="509" type="line"/>
      <point x="171" y="692" type="line"/>
      <point x="752.333" y="692" type="line"/>
      <point x="711" y="509" type="line"/>
      <point x="676.667" y="509" type="line"/>
      <point x="674" y="559.667" type="line" smooth="yes"/>
      <point x="670.334" y="620.667"/>
      <point x="644.667" y="649.667"/>
      <point x="573.667" y="649.667" type="curve" smooth="yes"/>
      <point x="520.667" y="649.667" type="line"/>
      <point x="394.667" y="92.334" type="line" smooth="yes"/>
      <point x="387" y="58"/>
      <point x="388" y="41.667"/>
      <point x="416" y="39.667" type="curve" smooth="yes"/>
      <point x="483" y="35" type="line"/>
      <point x="474.667" y="0" type="line"/>
      <point x="145.334" y="0" type="line"/>
      <point x="153.667" y="35" type="line"/>
      <point x="214.667" y="39" type="line" smooth="yes"/>
      <point x="244" y="41"/>
      <point x="252.334" y="58"/>
      <point x="260" y="92.334" type="curve" smooth="yes"/>
      <point x="386" y="649.667" type="line"/>
      <point x="328.334" y="649.667" type="line" smooth="yes"/>
      <point x="256.334" y="649.667"/>
      <point x="220" y="621.667"/>
      <point x="190" y="559.334" type="curve" smooth="yes"/>
      <point x="165" y="509" type="line"/>
    </contour>
  </outline>
</glyph>
<glyph name="U" format="2">
  <advance width="782"/>
  <unicode hex="0055"/>
  <anchor x="556.333" y="733.333" name="top"/>
  <outline>
    <contour>
      <point x="165" y="246" type="curve" smooth="yes"/>
      <point x="245.667" y="599" type="line" smooth="yes"/>
      <point x="253.667" y="634"/>
      <point x="252" y="650"/>
      <point x="225.667" y="652" type="curve" smooth="yes"/>
      <point x="172" y="657" type="line"/>
      <point x="181" y="692" type="line"/>
      <point x="480.333" y="692" type="line"/>
      <point x="471.333" y="657" type="line"/>
      <point x="423.667" y="653" type="line" smooth="yes"/>
      <point x="396" y="651"/>
      <point x="388.333" y="634.333"/>
      <point x="380.333" y="599" type="curve" smooth="yes"/>
      <point x="300.667" y="245" type="line" smooth="yes"/>
      <point x="264" y="81.666"/>
      <point x="320" y="27.333"/>
      <point x="409.667" y="27.333" type="curve" smooth="yes"/>
      <point x="514.667" y="27.333"/>
      <point x="561.667" y="111.666"/>
      <point x="594.667" y="258.666" type="curve" smooth="yes"/>
      <point x="671.667" y="599" type="line" smooth="yes"/>
      <point x="679.667" y="634"/>
      <point x="678" y="650"/>
      <point x="651.667" y="652" type="curve" smooth="yes"/>
      <point x="598" y="657" type="line"/>
      <point x="607" y="692" type="line"/>
      <point x="906.333" y="692" type="line"/>
      <point x="897.333" y="657" type="line"/>
      <point x="849.667" y="652.667" type="line" smooth="yes"/>
      <point x="822" y="650.667"/>
      <point x="814.333" y="634.333"/>
      <point x="806.333" y="599" type="curve" smooth="yes"/>
      <point x="726" y="251" type="line" smooth="yes"/>
      <point x="679" y="45.333"/>
      <point x="582.667" y="-15"/>
      <point x="404.667" y="-15" type="curve" smooth="yes"/>
      <point x="229.333" y="-15"/>
      <point x="121.333" y="53.666"/>
    </contour>
  </outline>
</glyph>
<glyph name="V" format="2">
  <advance width="632"/>
  <unicode hex="0056"/>
  <outline>
    <contour>
      <point x="128.333" y="657" type="line"/>
      <point x="134.667" y="692" type="line"/>
      <point x="412.667" y="692" type="line"/>
      <point x="406.333" y="657" type="line"/>
      <point x="345" y="651" type="line" smooth="yes"/>
      <point x="326.333" y="649"/>
      <point x="324.667" y="636.333"/>
      <point x="326.667" y="619.333" type="curve" smooth="yes"/>
      <point x="330.667" y="578.333"/>
      <point x="347.333" y="417.333"/>
      <point x="352.667" y="373.333" type="curve" smooth="yes"/>
      <point x="381.667" y="124" type="line"/>
      <point x="383.667" y="124" type="line"/>
      <point x="410.833" y="170.158"/>
      <point x="489.178" y="312.776"/>
      <point x="513.333" y="357" type="curve" smooth="yes"/>
      <point x="578.667" y="476.333"/>
      <point x="626" y="565.333"/>
      <point x="651" y="619.667" type="curve" smooth="yes"/>
      <point x="660.667" y="640.667"/>
      <point x="657" y="651.333"/>
      <point x="638.333" y="652.667" type="curve" smooth="yes"/>
      <point x="582.667" y="657" type="line"/>
      <point x="589.667" y="692" type="line"/>
      <point x="819" y="692" type="line"/>
      <point x="812.667" y="657" type="line"/>
      <point x="755" y="651.667"/>
      <point x="746.333" y="647"/>
      <point x="719.667" y="605" type="curve" smooth="yes"/>
      <point x="681" y="543.667"/>
      <point x="622.667" y="444.667"/>
      <point x="561.667" y="337" type="curve" smooth="yes"/>
      <point x="371.333" y="0" type="line"/>
      <point x="268.333" y="0" type="line"/>
      <point x="232.333" y="313.333" type="line" smooth="yes"/>
      <point x="219.333" y="432"/>
      <point x="206" y="532.333"/>
      <point x="196.667" y="606.333" type="curve" smooth="yes"/>
      <point x="192.333" y="638.333"/>
      <point x="184.667" y="650.333"/>
      <point x="164.333" y="652.667" type="curve" smooth="yes"/>
    </contour>
  </outline>
</glyph>
<glyph name="W" format="2">
  <advance width="929"/>
  <unicode hex="0057"/>
  <outline>
    <contour>
      <point x="117" y="657" type="line"/>
      <point x="123.667" y="692" type="line"/>
      <point x="397.333" y="692" type="line"/>
      <point x="390.333" y="657" type="line"/>
      <point x="332" y="651.667" type="line" smooth="yes"/>
      <point x="314" y="650"/>
      <point x="310.333" y="638.667"/>
      <point x="311.667" y="618.333" type="curve" smooth="yes"/>
      <point x="333.333" y="138" type="line"/>
      <point x="338.333" y="138" type="line"/>
      <point x="582.667" y="675.333" type="line"/>
      <point x="680.667" y="675.333" type="line"/>
      <point x="718.333" y="138" type="line"/>
      <point x="723" y="138" type="line"/>
      <point x="831.667" y="373.667" type="line" smooth="yes"/>
      <point x="878.667" y="475.333"/>
      <point x="912.333" y="553.333"/>
      <point x="934.333" y="610.667" type="curve" smooth="yes"/>
      <point x="943.667" y="635.667"/>
      <point x="943.333" y="649.333"/>
      <point x="923.333" y="651.333" type="curve" smooth="yes"/>
      <point x="866.333" y="657" type="line"/>
      <point x="872.667" y="692" type="line"/>
      <point x="1101.33" y="692" type="line"/>
      <point x="1095" y="657" type="line"/>
      <point x="1034.33" y="651"/>
      <point x="1027.33" y="647"/>
      <point x="998.667" y="593" type="curve"/>
      <point x="970" y="535.333"/>
      <point x="919.667" y="436.333"/>
      <point x="869" y="329.667" type="curve" smooth="yes"/>
      <point x="711.667" y="0" type="line"/>
      <point x="606.333" y="0" type="line"/>
      <point x="570.333" y="515" type="line"/>
      <point x="565.333" y="515" type="line"/>
      <point x="326" y="0" type="line"/>
      <point x="220.667" y="0" type="line"/>
      <point x="182.667" y="612" type="line" smooth="yes"/>
      <point x="180.667" y="640.667"/>
      <point x="176.333" y="650.667"/>
      <point x="158.333" y="652.667" type="curve" smooth="yes"/>
    </contour>
  </outline>
</glyph>
<glyph name="X" format="2">
  <advance width="631"/>
  <unicode hex="0058"/>
  <outline>
    <contour>
      <point x="-14.333" y="0" type="line"/>
      <point x="-7.667" y="35" type="line"/>
      <point x="48.333" y="41"/>
      <point x="74" y="47.667"/>
      <point x="108" y="81.667" type="curve" smooth="yes"/>
      <point x="164.667" y="139"/>
      <point x="260" y="251"/>
      <point x="333.333" y="339" type="curve"/>
      <point x="295.667" y="431.667"/>
      <point x="253.333" y="538.333"/>
      <point x="218.667" y="616" type="curve" smooth="yes"/>
      <point x="206" y="644.333"/>
      <point x="186.333" y="654"/>
      <point x="131" y="657" type="curve"/>
      <point x="139.667" y="692" type="line"/>
      <point x="431" y="692" type="line"/>
      <point x="424.333" y="657" type="line"/>
      <point x="373" y="651" type="line" smooth="yes"/>
      <point x="353.333" y="649"/>
      <point x="350.333" y="638"/>
      <point x="358.667" y="617" type="curve" smooth="yes"/>
      <point x="374.18" y="578.122"/>
      <point x="412.319" y="480.975"/>
      <point x="428.667" y="441.333" type="curve"/>
      <point x="431.333" y="441.333" type="line"/>
      <point x="484" y="503.667"/>
      <point x="545" y="577.333"/>
      <point x="579.333" y="622.667" type="curve" smooth="yes"/>
      <point x="591.667" y="639"/>
      <point x="590.333" y="651"/>
      <point x="573" y="653" type="curve"/>
      <point x="527.333" y="657" type="line"/>
      <point x="535.333" y="692" type="line"/>
      <point x="776" y="692" type="line"/>
      <point x="768" y="657" type="line"/>
      <point x="717.667" y="653.667"/>
      <point x="688.667" y="643"/>
      <point x="665.333" y="621.333" type="curve" smooth="yes"/>
      <point x="610" y="569"/>
      <point x="514.667" y="470.333"/>
      <point x="450" y="393.667" type="curve"/>
      <point x="492.333" y="290.333"/>
      <point x="544.333" y="166.333"/>
      <point x="579.667" y="87.333" type="curve" smooth="yes"/>
      <point x="595.667" y="52.333"/>
      <point x="620.667" y="40"/>
      <point x="677.333" y="35" type="curve"/>
      <point x="670.667" y="0" type="line"/>
      <point x="362" y="0" type="line"/>
      <point x="369" y="35" type="line"/>
      <point x="422.333" y="40.667" type="line" smooth="yes"/>
      <point x="443" y="42.667"/>
      <point x="450.333" y="54.667"/>
      <point x="442.667" y="74" type="curve" smooth="yes"/>
      <point x="424.233" y="120.19"/>
      <point x="376.409" y="236.864"/>
      <point x="356" y="286.333" type="curve"/>
      <point x="353.333" y="286.333" type="line"/>
      <point x="294.667" y="214"/>
      <point x="227.667" y="127.667"/>
      <point x="187" y="70.333" type="curve" smooth="yes"/>
      <point x="175.333" y="53"/>
      <point x="178" y="41.667"/>
      <point x="194.333" y="40.333" type="curve" smooth="yes"/>
      <point x="254.667" y="35" type="line"/>
      <point x="247.333" y="0" type="line"/>
    </contour>
  </outline>
</glyph>
<glyph name="Y" format="2">
  <advance width="612"/>
  <unicode hex="0059"/>
  <outline>
    <contour>
      <point x="128.333" y="658.333" type="curve"/>
      <point x="135.667" y="692" type="line"/>
      <point x="419.333" y="692" type="line"/>
      <point x="412" y="657" type="line"/>
      <point x="357" y="651.333" type="line" smooth="yes"/>
      <point x="342.654" y="649.873"/>
      <point x="337.43" y="644.277"/>
      <point x="337.443" y="634.636" type="curve" smooth="yes"/>
      <point x="337.447" y="631.082"/>
      <point x="338.155" y="626.977"/>
      <point x="339.333" y="622.333" type="curve" smooth="yes"/>
      <point x="416.333" y="338.667" type="line"/>
      <point x="419.333" y="338.667" type="line"/>
      <point x="448.287" y="379.101"/>
      <point x="480.341" y="425.364"/>
      <point x="510.21" y="469.535" type="curve" smooth="yes"/>
      <point x="529.584" y="498.376" type="line" smooth="yes"/>
      <point x="562.875" y="548.143"/>
      <point x="591.645" y="592.761"/>
      <point x="603.038" y="612.165" type="curve" smooth="yes"/>
      <point x="611.808" y="626.993"/>
      <point x="613.982" y="632.96"/>
      <point x="613.983" y="637.802" type="curve" smooth="yes"/>
      <point x="613.986" y="646.061"/>
      <point x="607.672" y="651.07"/>
      <point x="594" y="652.333" type="curve" smooth="yes"/>
      <point x="541.333" y="657" type="line"/>
      <point x="548.667" y="692" type="line"/>
      <point x="793" y="692" type="line"/>
      <point x="786.333" y="657" type="line"/>
      <point x="727.333" y="651.666"/>
      <point x="712" y="641.333"/>
      <point x="679.727" y="604.1" type="curve" smooth="yes"/>
      <point x="654.428" y="575.027"/>
      <point x="614.374" y="524.321"/>
      <point x="572.33" y="468.338" type="curve" smooth="yes"/>
      <point x="551.412" y="440.273" type="line" smooth="yes"/>
      <point x="520.964" y="399.101"/>
      <point x="490.446" y="356.445"/>
      <point x="464" y="317.667" type="curve" smooth="yes"/>
      <point x="448.667" y="295.667"/>
      <point x="438.04" y="276.738"/>
      <point x="432" y="249.667" type="curve" smooth="yes"/>
      <point x="396" y="91.333" type="line" smooth="yes"/>
      <point x="393.561" y="80.273"/>
      <point x="391.967" y="71.2"/>
      <point x="391.967" y="63.965" type="curve" smooth="yes"/>
      <point x="391.967" y="49.142"/>
      <point x="398.455" y="41.682"/>
      <point x="416.333" y="40.333" type="curve" smooth="yes"/>
      <point x="484.333" y="35" type="line"/>
      <point x="476.333" y="0" type="line"/>
      <point x="147" y="0" type="line"/>
      <point x="155" y="35" type="line"/>
      <point x="218.333" y="40" type="line" smooth="yes"/>
      <point x="242.333" y="42.333"/>
      <point x="254" y="58"/>
      <point x="261.333" y="91.333" type="curve" smooth="yes"/>
      <point x="295.333" y="246" type="line" smooth="yes"/>
      <point x="297.741" y="256.584"/>
      <point x="298.802" y="265.842"/>
      <point x="298.802" y="274.433" type="curve" smooth="yes"/>
      <point x="298.802" y="286.137"/>
      <point x="296.855" y="296.485"/>
      <point x="294" y="307" type="curve" smooth="yes"/>
      <point x="266.333" y="412.333"/>
      <point x="236.667" y="516"/>
      <point x="206" y="611.666" type="curve" smooth="yes"/>
      <point x="195" y="646"/>
      <point x="181.333" y="654"/>
    </contour>
  </outline>
</glyph>
<glyph name="Z" format="2">
  <advance width="619"/>
  <unicode hex="005A"/>
  <outline>
    <contour>
      <point x="8.334" y="17.667" type="line"/>
      <point x="194" y="228.333"/>
      <point x="378" y="439.333"/>
      <point x="559.333" y="649.667" type="curve"/>
      <point x="400.333" y="649.667" type="line" smooth="yes"/>
      <point x="307" y="649.667"/>
      <point x="261" y="628.334"/>
      <point x="227.333" y="550.667" type="curve" smooth="yes"/>
      <point x="210" y="511" type="line"/>
      <point x="174.667" y="511" type="line"/>
      <point x="213" y="692" type="line"/>
      <point x="738.333" y="692" type="line"/>
      <point x="745.333" y="675" type="line"/>
      <point x="559" y="464.333"/>
      <point x="374" y="252.667"/>
      <point x="192" y="42.333" type="curve"/>
      <point x="391.667" y="42.333" type="line" smooth="yes"/>
      <point x="490.667" y="42.333"/>
      <point x="538.667" y="65.333"/>
      <point x="588" y="150.666" type="curve" smooth="yes"/>
      <point x="615" y="197.333" type="line"/>
      <point x="650.333" y="197.333" type="line"/>
      <point x="594" y="0" type="line"/>
      <point x="14.334" y="0" type="line"/>
    </contour>
  </outline>
</glyph>
<glyph name="bracketleft" format="2">
  <advance width="343"/>
  <unicode hex="005B"/>
  <outline>
    <contour>
      <point x="95.333" y="-128" type="line"/>
      <point x="281.333" y="692" type="line"/>
      <point x="458.333" y="692" type="line"/>
      <point x="451.333" y="660.333" type="line"/>
      <point x="427.333" y="658.333"/>
      <point x="407" y="656"/>
      <point x="388" y="653.333" type="curve" smooth="yes"/>
      <point x="359" y="649.333"/>
      <point x="353.333" y="635"/>
      <point x="346.333" y="606" type="curve" smooth="yes"/>
      <point x="203.333" y="-26.333" type="line"/>
      <point x="199.667" y="-42" type="line" smooth="yes"/>
      <point x="193" y="-71"/>
      <point x="194.333" y="-85.333"/>
      <point x="219.667" y="-89.333" type="curve" smooth="yes"/>
      <point x="237" y="-92"/>
      <point x="257" y="-94.333"/>
      <point x="279.333" y="-96.333" type="curve"/>
      <point x="272.333" y="-128" type="line"/>
    </contour>
  </outline>
</glyph>
<glyph name="backslash" format="2">
  <advance width="437"/>
  <unicode hex="005C"/>
  <outline>
    <contour>
      <point x="140.667" y="707" type="line"/>
      <point x="231" y="707" type="line"/>
      <point x="442" y="-15" type="line"/>
      <point x="351.667" y="-15" type="line"/>
    </contour>
  </outline>
</glyph>
<glyph name="bracketright" format="2">
  <advance width="343"/>
  <unicode hex="005D"/>
  <outline>
    <contour>
      <point x="13.333" y="-128" type="line"/>
      <point x="20.333" y="-96.333" type="line"/>
      <point x="44.667" y="-94.333"/>
      <point x="65" y="-92"/>
      <point x="84" y="-89.333" type="curve" smooth="yes"/>
      <point x="112.667" y="-85.333"/>
      <point x="118.333" y="-71"/>
      <point x="125.333" y="-42" type="curve" smooth="yes"/>
      <point x="272" y="606" type="line" smooth="yes"/>
      <point x="279" y="635"/>
      <point x="277.667" y="649.333"/>
      <point x="252" y="653.333" type="curve" smooth="yes"/>
      <point x="235" y="656"/>
      <point x="215" y="658.333"/>
      <point x="192.333" y="660.333" type="curve"/>
      <point x="199.333" y="692" type="line"/>
      <point x="376.333" y="692" type="line"/>
      <point x="190.333" y="-128" type="line"/>
    </contour>
  </outline>
</glyph>
<glyph name="asciicircum" format="2">
  <advance width="590"/>
  <unicode hex="005E"/>
  <outline>
    <contour>
      <point x="115.333" y="219.333" type="line"/>
      <point x="312" y="668" type="line"/>
      <point x="403.667" y="668" type="line"/>
      <point x="595.334" y="219.333" type="line"/>
      <point x="500.667" y="219.333" type="line"/>
      <point x="357.334" y="569" type="line"/>
      <point x="210" y="219.333" type="line"/>
    </contour>
  </outline>
</glyph>
<glyph name="underscore" format="2">
  <advance width="500"/>
  <unicode hex="005F"/>
  <outline>
    <contour>
      <point x="0" y="-75" type="line"/>
      <point x="500" y="-75" type="line"/>
      <point x="500" y="-125" type="line"/>
      <point x="0" y="-125" type="line"/>
    </contour>
  </outline>
</glyph>
<glyph name="a" format="2">
  <advance width="584"/>
  <unicode hex="0061"/>
  <outline>
    <contour>
      <point x="62.667" y="107.667" type="curve" smooth="yes"/>
      <point x="62.667" y="239"/>
      <point x="174.001" y="502"/>
      <point x="412.001" y="502" type="curve" smooth="yes"/>
      <point x="439.001" y="502"/>
      <point x="466.001" y="495"/>
      <point x="483.667" y="483.667" type="curve"/>
      <point x="488.001" y="494" type="line"/>
      <point x="607.334" y="494" type="line"/>
      <point x="504.667" y="108.334" type="line" smooth="yes"/>
      <point x="497.001" y="79.667"/>
      <point x="496.667" y="58.667"/>
      <point x="515.334" y="58.667" type="curve" smooth="yes"/>
      <point x="540.667" y="58.667"/>
      <point x="580.667" y="117.667"/>
      <point x="603.334" y="158.667" type="curve"/>
      <point x="630.667" y="143.334" type="line"/>
      <point x="591.334" y="62"/>
      <point x="531.334" y="-12"/>
      <point x="442.667" y="-12" type="curve" smooth="yes"/>
      <point x="382.667" y="-12"/>
      <point x="363.667" y="29"/>
      <point x="386.667" y="109.334" type="curve" smooth="yes"/>
      <point x="414.667" y="206" type="line"/>
      <point x="410.001" y="206" type="line"/>
      <point x="355.334" y="111.334"/>
      <point x="275.001" y="-12"/>
      <point x="160.001" y="-12" type="curve" smooth="yes"/>
      <point x="90" y="-12"/>
      <point x="62.667" y="47"/>
    </contour>
    <contour>
      <point x="198.334" y="113.334" type="curve" smooth="yes"/>
      <point x="198.334" y="81.667"/>
      <point x="206.001" y="58.667"/>
      <point x="232.334" y="58.667" type="curve" smooth="yes"/>
      <point x="269.667" y="58.667"/>
      <point x="316.001" y="113"/>
      <point x="367.334" y="193.334" type="curve" smooth="yes"/>
      <point x="417.667" y="273.334"/>
      <point x="453.667" y="371"/>
      <point x="471.667" y="443" type="curve"/>
      <point x="458.001" y="453.667"/>
      <point x="439.334" y="459.667"/>
      <point x="418.667" y="459.667" type="curve" smooth="yes"/>
      <point x="291.001" y="459.667"/>
      <point x="198.334" y="220"/>
    </contour>
  </outline>
</glyph>
<glyph name="b" format="2">
  <advance width="577"/>
  <unicode hex="0062"/>
  <outline>
    <contour>
      <point x="73.333" y="3.333" type="line"/>
      <point x="216.333" y="630.333" type="line" smooth="yes"/>
      <point x="224.667" y="667.333"/>
      <point x="220.667" y="677.667"/>
      <point x="199.667" y="680" type="curve" smooth="yes"/>
      <point x="147.333" y="687" type="line"/>
      <point x="152.667" y="716" type="line"/>
      <point x="361" y="742" type="line"/>
      <point x="366.667" y="736.333" type="line"/>
      <point x="255" y="301.333" type="line"/>
      <point x="259" y="301.333" type="line"/>
      <point x="330.667" y="431"/>
      <point x="419.667" y="502"/>
      <point x="505" y="502" type="curve" smooth="yes"/>
      <point x="581.666" y="502"/>
      <point x="615.333" y="449.333"/>
      <point x="615.333" y="375.333" type="curve" smooth="yes"/>
      <point x="615.333" y="197.333"/>
      <point x="483.333" y="-12"/>
      <point x="289.667" y="-12" type="curve" smooth="yes"/>
      <point x="225.333" y="-12"/>
      <point x="176.333" y="13.333"/>
      <point x="152.333" y="48.666" type="curve"/>
      <point x="117.333" y="0" type="line"/>
    </contour>
    <contour>
      <point x="230.333" y="109" type="curve" smooth="yes"/>
      <point x="230.333" y="63"/>
      <point x="251.333" y="30.333"/>
      <point x="297" y="30.333" type="curve" smooth="yes"/>
      <point x="420" y="30.333"/>
      <point x="480" y="287.666"/>
      <point x="480" y="364.333" type="curve" smooth="yes"/>
      <point x="480" y="410.666"/>
      <point x="467" y="431.333"/>
      <point x="438" y="431.333" type="curve" smooth="yes"/>
      <point x="336.667" y="431.333"/>
      <point x="230.333" y="200"/>
    </contour>
  </outline>
</glyph>
<glyph name="c" format="2">
  <advance width="451"/>
  <unicode hex="0063"/>
  <outline>
    <contour>
      <point x="75.667" y="157.365" type="curve" smooth="yes"/>
      <point x="75.667" y="310.667"/>
      <point x="183" y="502"/>
      <point x="377.221" y="502" type="curve" smooth="yes"/>
      <point x="465.333" y="502"/>
      <point x="521.333" y="462.667"/>
      <point x="521.333" y="415.907" type="curve" smooth="yes"/>
      <point x="521.333" y="372.667"/>
      <point x="473.333" y="347"/>
      <point x="444.946" y="347" type="curve" smooth="yes"/>
      <point x="385.012" y="347"/>
      <point x="418.567" y="459.667"/>
      <point x="356.935" y="459.667" type="curve" smooth="yes"/>
      <point x="283" y="459.667"/>
      <point x="210" y="298"/>
      <point x="210" y="164.148" type="curve" smooth="yes"/>
      <point x="210" y="99.666"/>
      <point x="227" y="48.333"/>
      <point x="285.81" y="48.333" type="curve" smooth="yes"/>
      <point x="353" y="48.333"/>
      <point x="404" y="115.333"/>
      <point x="440.667" y="171.333" type="curve"/>
      <point x="468.667" y="151" type="line"/>
      <point x="397.667" y="17.333"/>
      <point x="304.667" y="-12"/>
      <point x="234.156" y="-12" type="curve" smooth="yes"/>
      <point x="148.175" y="-12"/>
      <point x="75.667" y="31.333"/>
    </contour>
  </outline>
</glyph>
<glyph name="d" format="2">
  <advance width="602"/>
  <unicode hex="0064"/>
  <outline>
    <contour>
      <point x="67" y="112.667" type="curve" smooth="yes"/>
      <point x="67" y="240.333"/>
      <point x="170.667" y="502"/>
      <point x="403.333" y="502" type="curve" smooth="yes"/>
      <point x="439.333" y="502"/>
      <point x="468.333" y="495.667"/>
      <point x="487.333" y="485" type="curve"/>
      <point x="489.333" y="486.333" type="line"/>
      <point x="525.333" y="639.334" type="line" smooth="yes"/>
      <point x="527.333" y="648.667"/>
      <point x="528.667" y="655.334"/>
      <point x="528.667" y="661.334" type="curve" smooth="yes"/>
      <point x="528.667" y="674"/>
      <point x="523.333" y="679"/>
      <point x="509.333" y="681" type="curve" smooth="yes"/>
      <point x="455.333" y="687.667" type="line"/>
      <point x="462" y="716" type="line"/>
      <point x="666.667" y="742" type="line"/>
      <point x="673" y="736.333" type="line"/>
      <point x="523" y="109.667" type="line" smooth="yes"/>
      <point x="520.333" y="98.333"/>
      <point x="518.333" y="88.333"/>
      <point x="518.333" y="80" type="curve" smooth="yes"/>
      <point x="518.333" y="67.667"/>
      <point x="522.333" y="58"/>
      <point x="532.333" y="58" type="curve" smooth="yes"/>
      <point x="558.333" y="58"/>
      <point x="598.333" y="119"/>
      <point x="621" y="160.667" type="curve"/>
      <point x="648.333" y="146.667" type="line"/>
      <point x="610.333" y="61.333"/>
      <point x="549" y="-12.667"/>
      <point x="462.667" y="-12.667" type="curve" smooth="yes"/>
      <point x="418.333" y="-12.667"/>
      <point x="393.667" y="7.333"/>
      <point x="393.667" y="51.333" type="curve" smooth="yes"/>
      <point x="393.667" y="65"/>
      <point x="396" y="83.667"/>
      <point x="401.333" y="103" type="curve" smooth="yes"/>
      <point x="432.333" y="214.667" type="line"/>
      <point x="429" y="215.667" type="line"/>
      <point x="363" y="98"/>
      <point x="285.667" y="-12"/>
      <point x="175" y="-12" type="curve" smooth="yes"/>
      <point x="88.667" y="-12"/>
      <point x="67" y="54.333"/>
    </contour>
    <contour>
      <point x="202" y="123.667" type="curve" smooth="yes"/>
      <point x="202" y="83.667"/>
      <point x="216" y="58"/>
      <point x="244" y="58" type="curve" smooth="yes"/>
      <point x="331" y="58"/>
      <point x="445" y="287"/>
      <point x="478.333" y="442.334" type="curve"/>
      <point x="466.333" y="452.667"/>
      <point x="445" y="459.667"/>
      <point x="422" y="459.667" type="curve" smooth="yes"/>
      <point x="287" y="459.667"/>
      <point x="202" y="221.333"/>
    </contour>
  </outline>
</glyph>
<glyph name="e" format="2">
  <advance width="468"/>
  <unicode hex="0065"/>
  <outline>
    <contour>
      <point x="75.333" y="158" type="curve" smooth="yes"/>
      <point x="75.333" y="328"/>
      <point x="202.999" y="502"/>
      <point x="383.334" y="502" type="curve" smooth="yes"/>
      <point x="467.334" y="502"/>
      <point x="523.334" y="456.334"/>
      <point x="523.334" y="391.334" type="curve" smooth="yes"/>
      <point x="523.334" y="251"/>
      <point x="317.333" y="205"/>
      <point x="207.999" y="188.667" type="curve"/>
      <point x="207.666" y="182.809"/>
      <point x="207.666" y="171.492"/>
      <point x="207.666" y="167.333" type="curve" smooth="yes"/>
      <point x="207.666" y="105"/>
      <point x="227.333" y="48.333"/>
      <point x="290" y="48.333" type="curve" smooth="yes"/>
      <point x="355" y="48.333"/>
      <point x="404.334" y="101.333"/>
      <point x="451.667" y="167.667" type="curve"/>
      <point x="479.334" y="145" type="line"/>
      <point x="408" y="20"/>
      <point x="316" y="-12"/>
      <point x="233.666" y="-12" type="curve" smooth="yes"/>
      <point x="166.333" y="-12"/>
      <point x="75.333" y="19.333"/>
    </contour>
    <contour>
      <point x="211.333" y="230" type="curve"/>
      <point x="345" y="257.333"/>
      <point x="406.667" y="335.333"/>
      <point x="406.667" y="410.667" type="curve" smooth="yes"/>
      <point x="406.667" y="441"/>
      <point x="390.334" y="459.667"/>
      <point x="362.667" y="459.667" type="curve" smooth="yes"/>
      <point x="296.666" y="459.667"/>
      <point x="226.333" y="347"/>
    </contour>
  </outline>
</glyph>
<glyph name="f" format="2">
  <advance width="337"/>
  <unicode hex="0066"/>
  <outline>
    <contour>
      <point x="-86.667" y="-173.333" type="curve" smooth="yes"/>
      <point x="-86.667" y="-144.333"/>
      <point x="-60.334" y="-117.333"/>
      <point x="-31.667" y="-117.333" type="curve" smooth="yes"/>
      <point x="-12.667" y="-117.333"/>
      <point x="-5" y="-132"/>
      <point x="3.333" y="-145.333" type="curve" smooth="yes"/>
      <point x="28.333" y="-187"/>
      <point x="42" y="-199"/>
      <point x="52.333" y="-199" type="curve" smooth="yes"/>
      <point x="61" y="-199"/>
      <point x="69" y="-191"/>
      <point x="75.666" y="-158.333" type="curve" smooth="yes"/>
      <point x="196.333" y="445.333" type="line"/>
      <point x="107.333" y="445.333" type="line"/>
      <point x="120.333" y="490" type="line"/>
      <point x="206.666" y="490" type="line"/>
      <point x="214.666" y="519.667" type="line" smooth="yes"/>
      <point x="244.666" y="631.667"/>
      <point x="298.999" y="742"/>
      <point x="438.333" y="742" type="curve" smooth="yes"/>
      <point x="515.666" y="742"/>
      <point x="571.666" y="702.334"/>
      <point x="571.666" y="657.334" type="curve" smooth="yes"/>
      <point x="571.666" y="625"/>
      <point x="536.666" y="602.667"/>
      <point x="509.333" y="602.667" type="curve" smooth="yes"/>
      <point x="488.333" y="602.667"/>
      <point x="479.333" y="614.334"/>
      <point x="472.333" y="628.334" type="curve"/>
      <point x="446.999" y="683"/>
      <point x="432.333" y="699.667"/>
      <point x="413.333" y="699.667" type="curve" smooth="yes"/>
      <point x="393.333" y="699.667"/>
      <point x="380.333" y="678.334"/>
      <point x="367.333" y="625" type="curve" smooth="yes"/>
      <point x="334.666" y="490" type="line"/>
      <point x="463.333" y="490" type="line"/>
      <point x="451.999" y="445.333" type="line"/>
      <point x="326.666" y="445.333" type="line"/>
      <point x="231" y="29" type="line" smooth="yes"/>
      <point x="189" y="-154.333"/>
      <point x="135" y="-242"/>
      <point x="23.666" y="-242" type="curve" smooth="yes"/>
      <point x="-43.334" y="-242"/>
      <point x="-86.667" y="-212.333"/>
    </contour>
  </outline>
</glyph>
<glyph name="g" format="2">
  <advance width="514"/>
  <unicode hex="0067"/>
  <outline>
    <contour>
      <point x="24" y="-102" type="curve" smooth="yes"/>
      <point x="24" y="-20.333"/>
      <point x="112" y="15.667"/>
      <point x="180.666" y="25.667" type="curve"/>
      <point x="180.666" y="27.667" type="line"/>
      <point x="129" y="46"/>
      <point x="96.333" y="73.667"/>
      <point x="96.333" y="106" type="curve" smooth="yes"/>
      <point x="96.333" y="153.334"/>
      <point x="155.667" y="178"/>
      <point x="202.666" y="190.334" type="curve"/>
      <point x="202.666" y="192.334" type="line"/>
      <point x="164.666" y="204.667"/>
      <point x="110.667" y="243.334"/>
      <point x="110.667" y="314.667" type="curve" smooth="yes"/>
      <point x="110.667" y="389.667"/>
      <point x="163" y="502"/>
      <point x="347.667" y="502" type="curve" smooth="yes"/>
      <point x="398" y="502"/>
      <point x="451" y="489"/>
      <point x="481.667" y="472" type="curve"/>
      <point x="626" y="512" type="line"/>
      <point x="632" y="503" type="line"/>
      <point x="600.333" y="432" type="line"/>
      <point x="521.667" y="420" type="line"/>
      <point x="532.667" y="404.334"/>
      <point x="540" y="381.334"/>
      <point x="540" y="354.334" type="curve" smooth="yes"/>
      <point x="540" y="247.334"/>
      <point x="449" y="176.667"/>
      <point x="308.667" y="176.667" type="curve" smooth="yes"/>
      <point x="290.334" y="176.667"/>
      <point x="274.001" y="177.334"/>
      <point x="250.667" y="180.334" type="curve"/>
      <point x="231.333" y="174.334"/>
      <point x="214.666" y="163.667"/>
      <point x="214.666" y="146" type="curve"/>
      <point x="215.333" y="121.334"/>
      <point x="245.667" y="111.334"/>
      <point x="336.334" y="90" type="curve" smooth="yes"/>
      <point x="444.334" y="64.667"/>
      <point x="514.667" y="15.333"/>
      <point x="514.667" y="-71.667" type="curve" smooth="yes"/>
      <point x="514.667" y="-185.667"/>
      <point x="409" y="-242"/>
      <point x="256.667" y="-242" type="curve" smooth="yes"/>
      <point x="118.334" y="-242"/>
      <point x="24" y="-185.667"/>
    </contour>
    <contour>
      <point x="146" y="-91" type="curve" smooth="yes"/>
      <point x="146" y="-161"/>
      <point x="208.333" y="-199.667"/>
      <point x="280.001" y="-199.667" type="curve" smooth="yes"/>
      <point x="340.334" y="-199.667"/>
      <point x="401.667" y="-169.334"/>
      <point x="401.667" y="-101.333" type="curve" smooth="yes"/>
      <point x="401.667" y="-21.333"/>
      <point x="291.667" y="-0.667"/>
      <point x="231.333" y="8.333" type="curve"/>
      <point x="202.333" y="3.667"/>
      <point x="146" y="-24.333"/>
    </contour>
    <contour>
      <point x="243.334" y="294.334" type="curve" smooth="yes"/>
      <point x="243.334" y="251.667"/>
      <point x="265.334" y="220.334"/>
      <point x="309.667" y="220.334" type="curve" smooth="yes"/>
      <point x="385.334" y="220.334"/>
      <point x="418.667" y="321.334"/>
      <point x="418.667" y="391" type="curve"/>
      <point x="417.334" y="446"/>
      <point x="380" y="459.667"/>
      <point x="352.667" y="459.667" type="curve" smooth="yes"/>
      <point x="277.667" y="459.667"/>
      <point x="243.334" y="362"/>
    </contour>
  </outline>
</glyph>
<glyph name="h" format="2">
  <advance width="622"/>
  <unicode hex="0068"/>
  <outline>
    <contour>
      <point x="83.333" y="-12" type="line"/>
      <point x="227.333" y="635" type="line" smooth="yes"/>
      <point x="229.687" y="644.933"/>
      <point x="230.943" y="652.774"/>
      <point x="230.943" y="658.942" type="curve" smooth="yes"/>
      <point x="230.943" y="672.893"/>
      <point x="224.55" y="678.384"/>
      <point x="210" y="680" type="curve" smooth="yes"/>
      <point x="152.333" y="687" type="line"/>
      <point x="159.666" y="716" type="line"/>
      <point x="372.333" y="742" type="line"/>
      <point x="377.333" y="737" type="line"/>
      <point x="268.666" y="289.667" type="line"/>
      <point x="273" y="289.667" type="line"/>
      <point x="330.333" y="397.666"/>
      <point x="425" y="502"/>
      <point x="526.686" y="502" type="curve" smooth="yes"/>
      <point x="584.571" y="502"/>
      <point x="611.933" y="468.192"/>
      <point x="611.933" y="415.922" type="curve" smooth="yes"/>
      <point x="611.933" y="396.344"/>
      <point x="608.102" y="374.199"/>
      <point x="600.667" y="350.333" type="curve" smooth="yes"/>
      <point x="526.333" y="108.334" type="line" smooth="yes"/>
      <point x="522.854" y="96.569"/>
      <point x="520.772" y="86.249"/>
      <point x="520.772" y="78.111" type="curve" smooth="yes"/>
      <point x="520.772" y="65.957"/>
      <point x="525.413" y="58.667"/>
      <point x="534.854" y="58.667" type="curve" smooth="yes"/>
      <point x="561.667" y="58.667"/>
      <point x="601.667" y="117.667"/>
      <point x="624.333" y="160" type="curve"/>
      <point x="651.667" y="145.334" type="line"/>
      <point x="613.667" y="62"/>
      <point x="554.333" y="-12"/>
      <point x="469.592" y="-12" type="curve" smooth="yes"/>
      <point x="421.338" y="-12"/>
      <point x="395.273" y="11.992"/>
      <point x="395.273" y="57.397" type="curve" smooth="yes"/>
      <point x="395.273" y="71.913"/>
      <point x="397.925" y="88.604"/>
      <point x="403.333" y="107.334" type="curve" smooth="yes"/>
      <point x="480" y="369.333" type="line" smooth="yes"/>
      <point x="483.146" y="379.97"/>
      <point x="484.651" y="389.45"/>
      <point x="484.651" y="397.599" type="curve" smooth="yes"/>
      <point x="484.651" y="418.91"/>
      <point x="474.36" y="431.333"/>
      <point x="454.876" y="431.333" type="curve" smooth="yes"/>
      <point x="394.333" y="431.333"/>
      <point x="306.666" y="308.667"/>
      <point x="270.666" y="215.333" type="curve" smooth="yes"/>
      <point x="247" y="156.333"/>
      <point x="232" y="102"/>
      <point x="205" y="0" type="curve"/>
    </contour>
  </outline>
</glyph>
<glyph name="i" format="2">
  <advance width="332"/>
  <unicode hex="0069"/>
  <outline>
    <contour>
      <point x="112" y="100" type="curve" smooth="yes"/>
      <point x="191.333" y="394.333" type="line" smooth="yes"/>
      <point x="193.692" y="403.464"/>
      <point x="194.983" y="410.862"/>
      <point x="194.983" y="416.795" type="curve" smooth="yes"/>
      <point x="194.983" y="430.208"/>
      <point x="188.454" y="436.279"/>
      <point x="173" y="437.666" type="curve" smooth="yes"/>
      <point x="115.333" y="443.333" type="line"/>
      <point x="122.666" y="473.333" type="line"/>
      <point x="336.666" y="502" type="line"/>
      <point x="342.333" y="496.333" type="line"/>
      <point x="237.333" y="108.334" type="line" smooth="yes"/>
      <point x="234.216" y="96.955"/>
      <point x="232.203" y="86.634"/>
      <point x="232.203" y="78.388" type="curve" smooth="yes"/>
      <point x="232.203" y="66.319"/>
      <point x="236.508" y="58.667"/>
      <point x="248" y="58.667" type="curve" smooth="yes"/>
      <point x="272.666" y="58.667"/>
      <point x="312.666" y="117.667"/>
      <point x="335.333" y="159.333" type="curve"/>
      <point x="363.333" y="143.334" type="line"/>
      <point x="324" y="62"/>
      <point x="264.666" y="-12"/>
      <point x="176" y="-12" type="curve" smooth="yes"/>
      <point x="128.364" y="-12"/>
      <point x="105.15" y="12.032"/>
      <point x="105.15" y="54.528" type="curve" smooth="yes"/>
      <point x="105.15" y="67.93"/>
      <point x="107.451" y="83.153"/>
    </contour>
    <contour>
      <point x="231.333" y="637.666" type="curve" smooth="yes"/>
      <point x="231.333" y="677"/>
      <point x="257.333" y="718.333"/>
      <point x="311" y="718.333" type="curve" smooth="yes"/>
      <point x="349.666" y="718.333"/>
      <point x="382.333" y="697"/>
      <point x="382.333" y="651.333" type="curve" smooth="yes"/>
      <point x="382.333" y="601.333"/>
      <point x="350.666" y="570.333"/>
      <point x="303.666" y="570.333" type="curve" smooth="yes"/>
      <point x="261.666" y="570.333"/>
      <point x="231.333" y="595.333"/>
    </contour>
  </outline>
</glyph>
<glyph name="j" format="2">
  <advance width="325"/>
  <unicode hex="006A"/>
  <outline>
    <contour>
      <point x="-76.666" y="-177.334" type="curve" smooth="yes"/>
      <point x="-76.666" y="-151"/>
      <point x="-48.333" y="-120.667"/>
      <point x="-21.666" y="-120.667" type="curve" smooth="yes"/>
      <point x="-6.666" y="-120.667"/>
      <point x="4.334" y="-136.334"/>
      <point x="13" y="-149.334" type="curve" smooth="yes"/>
      <point x="38.667" y="-188"/>
      <point x="52" y="-199.667"/>
      <point x="62" y="-199.667" type="curve" smooth="yes"/>
      <point x="71.334" y="-199.667"/>
      <point x="77" y="-191"/>
      <point x="82.334" y="-166.667" type="curve" smooth="yes"/>
      <point x="204.334" y="392.333" type="line" smooth="yes"/>
      <point x="211" y="422"/>
      <point x="210" y="435.666"/>
      <point x="189.334" y="437.666" type="curve" smooth="yes"/>
      <point x="126" y="443.333" type="line"/>
      <point x="132.667" y="473.333" type="line"/>
      <point x="347" y="502" type="line"/>
      <point x="353.334" y="497" type="line"/>
      <point x="239" y="-4.334" type="line" smooth="yes"/>
      <point x="213" y="-117.334"/>
      <point x="176.334" y="-242"/>
      <point x="39" y="-242" type="curve" smooth="yes"/>
      <point x="-35.666" y="-242"/>
      <point x="-76.666" y="-212.334"/>
    </contour>
    <contour>
      <point x="236.667" y="637.666" type="curve" smooth="yes"/>
      <point x="236.667" y="677"/>
      <point x="262.667" y="718.333"/>
      <point x="316.334" y="718.333" type="curve" smooth="yes"/>
      <point x="355" y="718.333"/>
      <point x="387.667" y="697"/>
      <point x="387.667" y="651.333" type="curve" smooth="yes"/>
      <point x="387.667" y="601.333"/>
      <point x="356" y="570.333"/>
      <point x="309" y="570.333" type="curve" smooth="yes"/>
      <point x="267" y="570.333"/>
      <point x="236.667" y="595.333"/>
    </contour>
  </outline>
</glyph>
<glyph name="k" format="2">
  <advance width="562"/>
  <unicode hex="006B"/>
  <outline>
    <contour>
      <point x="80" y="-12" type="line"/>
      <point x="230.333" y="635" type="line" smooth="yes"/>
      <point x="238" y="667.333"/>
      <point x="234" y="677.667"/>
      <point x="213" y="680" type="curve" smooth="yes"/>
      <point x="155.333" y="687" type="line"/>
      <point x="164.667" y="716" type="line"/>
      <point x="373.667" y="742" type="line"/>
      <point x="378.667" y="737" type="line"/>
      <point x="205.333" y="0" type="line"/>
    </contour>
    <contour>
      <point x="275" y="258.333" type="curve"/>
      <point x="326.333" y="333.666"/>
      <point x="479.667" y="502"/>
      <point x="568" y="502" type="curve" smooth="yes"/>
      <point x="608.333" y="502"/>
      <point x="626.667" y="475.333"/>
      <point x="626.667" y="446.333" type="curve" smooth="yes"/>
      <point x="626.667" y="410"/>
      <point x="603.667" y="376.333"/>
      <point x="569.667" y="376.333" type="curve" smooth="yes"/>
      <point x="554" y="376.333"/>
      <point x="542" y="383"/>
      <point x="530.333" y="391" type="curve" smooth="yes"/>
      <point x="508.667" y="406.333"/>
      <point x="497.667" y="411.333"/>
      <point x="484.667" y="411.333" type="curve" smooth="yes"/>
      <point x="458.667" y="411.333"/>
      <point x="408.667" y="360.333"/>
      <point x="377.333" y="324.333" type="curve"/>
      <point x="387" y="287.333"/>
      <point x="450" y="59.667"/>
      <point x="494.333" y="59.667" type="curve" smooth="yes"/>
      <point x="516" y="59.667"/>
      <point x="540.333" y="95.334"/>
      <point x="569.667" y="149.333" type="curve"/>
      <point x="598.667" y="134.334" type="line"/>
      <point x="562.667" y="45"/>
      <point x="512.667" y="-12"/>
      <point x="440.667" y="-12" type="curve" smooth="yes"/>
      <point x="387.333" y="-12"/>
      <point x="357" y="21"/>
      <point x="333.333" y="80.334" type="curve" smooth="yes"/>
      <point x="310" y="137.334"/>
      <point x="288.667" y="205.667"/>
    </contour>
  </outline>
</glyph>
<glyph name="l" format="2">
  <advance width="320"/>
  <unicode hex="006C"/>
  <outline>
    <contour>
      <point x="119" y="149.479" type="line"/>
      <point x="237" y="635.928" type="line" smooth="yes"/>
      <point x="239.333" y="645.944"/>
      <point x="240.667" y="653.623"/>
      <point x="240.667" y="659.967" type="curve" smooth="yes"/>
      <point x="240.667" y="674.323"/>
      <point x="234" y="679.665"/>
      <point x="219.667" y="681" type="curve" smooth="yes"/>
      <point x="162" y="687.803" type="line"/>
      <point x="168.667" y="716" type="line"/>
      <point x="379.667" y="742" type="line"/>
      <point x="385.333" y="737" type="line"/>
      <point x="241" y="149.479" type="line"/>
    </contour>
    <contour>
      <point x="106.667" y="100.067" type="curve" smooth="yes"/>
      <point x="119" y="149.479" type="line"/>
      <point x="241" y="149.479" type="line"/>
      <point x="232" y="108.413" type="line" smooth="yes"/>
      <point x="229.499" y="96.752"/>
      <point x="227.584" y="86.196"/>
      <point x="227.584" y="77.84" type="curve" smooth="yes"/>
      <point x="227.584" y="66.085"/>
      <point x="231.361" y="58.667"/>
      <point x="240.783" y="58.667" type="curve" smooth="yes"/>
      <point x="267.333" y="58.667"/>
      <point x="307.333" y="117.762"/>
      <point x="330" y="159.496" type="curve"/>
      <point x="358" y="143.47" type="line"/>
      <point x="318.667" y="62.009"/>
      <point x="259.333" y="-12"/>
      <point x="171.91" y="-12" type="curve" smooth="yes"/>
      <point x="122.789" y="-12"/>
      <point x="100.364" y="11.868"/>
      <point x="100.364" y="54.932" type="curve" smooth="yes"/>
      <point x="100.364" y="68.227"/>
      <point x="102.499" y="83.327"/>
    </contour>
  </outline>
</glyph>
<glyph name="m" format="2">
  <advance width="913"/>
  <unicode hex="006D"/>
  <outline>
    <contour>
      <point x="86.667" y="-12" type="line"/>
      <point x="188.333" y="393" type="line" smooth="yes"/>
      <point x="195.667" y="421.666"/>
      <point x="194.333" y="435.666"/>
      <point x="173.667" y="437.666" type="curve" smooth="yes"/>
      <point x="114.667" y="443.333" type="line"/>
      <point x="121.333" y="473.333" type="line"/>
      <point x="333.667" y="502" type="line"/>
      <point x="338.667" y="496.333" type="line"/>
      <point x="275" y="285.333" type="line"/>
      <point x="279.333" y="285.333" type="line"/>
      <point x="343.667" y="406"/>
      <point x="437.333" y="502"/>
      <point x="527.333" y="502" type="curve" smooth="yes"/>
      <point x="603.333" y="502"/>
      <point x="614.667" y="442.333"/>
      <point x="588" y="355" type="curve" smooth="yes"/>
      <point x="567.333" y="286" type="line"/>
      <point x="572" y="285.333" type="line"/>
      <point x="637.333" y="407.666"/>
      <point x="727" y="502"/>
      <point x="823" y="502" type="curve" smooth="yes"/>
      <point x="903.333" y="502"/>
      <point x="918.333" y="435.333"/>
      <point x="894.667" y="357" type="curve" smooth="yes"/>
      <point x="820.333" y="108.334" type="line" smooth="yes"/>
      <point x="811.333" y="80.334"/>
      <point x="811" y="58.667"/>
      <point x="830.333" y="58.667" type="curve" smooth="yes"/>
      <point x="855.667" y="58.667"/>
      <point x="895.667" y="117.667"/>
      <point x="918.333" y="159.333" type="curve"/>
      <point x="944.333" y="142.667" type="line"/>
      <point x="906.333" y="62"/>
      <point x="847.667" y="-12"/>
      <point x="758" y="-12" type="curve" smooth="yes"/>
      <point x="702" y="-12"/>
      <point x="676" y="27.334"/>
      <point x="696" y="100" type="curve"/>
      <point x="775.333" y="369.333" type="line" smooth="yes"/>
      <point x="786.333" y="406.333"/>
      <point x="781" y="431.333"/>
      <point x="752" y="431.333" type="curve" smooth="yes"/>
      <point x="692.667" y="431.333"/>
      <point x="603" y="294.667"/>
      <point x="570" y="216.333" type="curve" smooth="yes"/>
      <point x="546" y="157.333"/>
      <point x="528" y="102"/>
      <point x="499.667" y="0" type="curve"/>
      <point x="378.667" y="-12" type="line"/>
      <point x="482" y="371.333" type="line" smooth="yes"/>
      <point x="493.333" y="415.333"/>
      <point x="484.667" y="431.333"/>
      <point x="458.667" y="431.333" type="curve" smooth="yes"/>
      <point x="399.667" y="431.333"/>
      <point x="307" y="291.333"/>
      <point x="275.667" y="212.333" type="curve" smooth="yes"/>
      <point x="254" y="157.333"/>
      <point x="236.667" y="102"/>
      <point x="207.667" y="0" type="curve"/>
    </contour>
  </outline>
</glyph>
<glyph name="n" format="2">
  <advance width="629"/>
  <unicode hex="006E"/>
  <outline>
    <contour>
      <point x="86.729" y="-12" type="line"/>
      <point x="190.396" y="393" type="line" smooth="yes"/>
      <point x="193.02" y="402.86"/>
      <point x="194.535" y="410.933"/>
      <point x="194.535" y="417.367" type="curve"/>
      <point x="194.534" y="430.081"/>
      <point x="188.978" y="436.936"/>
      <point x="175.396" y="438.333" type="curve" smooth="yes"/>
      <point x="114.729" y="443.897" type="line"/>
      <point x="122.062" y="473.333" type="line"/>
      <point x="338.396" y="502" type="line"/>
      <point x="343.396" y="497" type="line"/>
      <point x="276.396" y="279.667" type="line"/>
      <point x="281.396" y="279.667" type="line"/>
      <point x="342.729" y="396"/>
      <point x="438.062" y="502"/>
      <point x="540.204" y="502" type="curve" smooth="yes"/>
      <point x="598.107" y="502"/>
      <point x="621.705" y="467.899"/>
      <point x="621.705" y="419.18" type="curve" smooth="yes"/>
      <point x="621.705" y="400.253"/>
      <point x="618.129" y="379.137"/>
      <point x="611.716" y="357" type="curve" smooth="yes"/>
      <point x="536.09" y="108.334" type="line" smooth="yes"/>
      <point x="532.819" y="97.269"/>
      <point x="530.878" y="87.214"/>
      <point x="530.878" y="79.099" type="curve" smooth="yes"/>
      <point x="530.878" y="66.629"/>
      <point x="535.45" y="58.667"/>
      <point x="545.258" y="58.667" type="curve" smooth="yes"/>
      <point x="571.916" y="58.667"/>
      <point x="611.726" y="117.667"/>
      <point x="633.667" y="159.333" type="curve"/>
      <point x="661" y="142.667" type="line"/>
      <point x="622.333" y="61.334"/>
      <point x="563.966" y="-12"/>
      <point x="477.871" y="-12" type="curve" smooth="yes"/>
      <point x="427.928" y="-12"/>
      <point x="403.386" y="12.443"/>
      <point x="403.386" y="55.403" type="curve" smooth="yes"/>
      <point x="403.386" y="68.62"/>
      <point x="405.698" y="83.559"/>
      <point x="410.396" y="100" type="curve" smooth="yes"/>
      <point x="489.729" y="368.333" type="line" smooth="yes"/>
      <point x="492.966" y="379.328"/>
      <point x="495.07" y="390.064"/>
      <point x="495.07" y="399.38" type="curve" smooth="yes"/>
      <point x="495.07" y="418.078"/>
      <point x="486.835" y="431.333"/>
      <point x="467.652" y="431.333" type="curve" smooth="yes"/>
      <point x="406.396" y="431.333"/>
      <point x="314.396" y="293.333"/>
      <point x="282.062" y="214.667" type="curve" smooth="yes"/>
      <point x="258.062" y="155.333"/>
      <point x="239.062" y="102"/>
      <point x="210.062" y="0" type="curve"/>
    </contour>
  </outline>
</glyph>
<glyph name="o" format="2">
  <advance width="554"/>
  <unicode hex="006F"/>
  <outline>
    <contour>
      <point x="79.333" y="172.333" type="curve" smooth="yes"/>
      <point x="79.333" y="318.333"/>
      <point x="178.333" y="502"/>
      <point x="381.216" y="502" type="curve" smooth="yes"/>
      <point x="475.667" y="502"/>
      <point x="579.667" y="463"/>
      <point x="579.667" y="308.97" type="curve" smooth="yes"/>
      <point x="579.667" y="142.667"/>
      <point x="458.334" y="-12"/>
      <point x="271.785" y="-12" type="curve" smooth="yes"/>
      <point x="140" y="-12"/>
      <point x="79.333" y="64.666"/>
    </contour>
    <contour>
      <point x="208.333" y="116.607" type="curve" smooth="yes"/>
      <point x="208.333" y="57.333"/>
      <point x="234.333" y="30.333"/>
      <point x="273.099" y="30.333" type="curve" smooth="yes"/>
      <point x="394" y="30.333"/>
      <point x="450.667" y="297"/>
      <point x="450.667" y="378.642" type="curve" smooth="yes"/>
      <point x="450.667" y="418.667"/>
      <point x="436.667" y="459.667"/>
      <point x="387.668" y="459.667" type="curve" smooth="yes"/>
      <point x="266.333" y="459.667"/>
      <point x="208.333" y="205"/>
    </contour>
  </outline>
</glyph>
<glyph name="p" format="2">
  <advance width="601"/>
  <unicode hex="0070"/>
  <outline>
    <contour>
      <point x="42.333" y="-242" type="line"/>
      <point x="181" y="393" type="line" smooth="yes"/>
      <point x="187.333" y="420.333"/>
      <point x="186.666" y="435.666"/>
      <point x="166" y="437.666" type="curve" smooth="yes"/>
      <point x="106" y="443.333" type="line"/>
      <point x="112.666" y="473.333" type="line"/>
      <point x="325.666" y="502" type="line"/>
      <point x="330.666" y="497" type="line"/>
      <point x="273.666" y="286" type="line"/>
      <point x="277.333" y="286" type="line"/>
      <point x="354" y="429"/>
      <point x="443.666" y="502"/>
      <point x="527.333" y="502" type="curve" smooth="yes"/>
      <point x="602.667" y="502"/>
      <point x="639" y="453"/>
      <point x="639" y="372" type="curve" smooth="yes"/>
      <point x="639" y="288"/>
      <point x="570" y="-12"/>
      <point x="329" y="-12" type="curve" smooth="yes"/>
      <point x="277" y="-12"/>
      <point x="242" y="-3"/>
      <point x="221.666" y="9.333" type="curve"/>
      <point x="165.333" y="-230" type="line"/>
    </contour>
    <contour>
      <point x="232.333" y="60.333" type="curve"/>
      <point x="251.666" y="42"/>
      <point x="278" y="30.333"/>
      <point x="311.666" y="30.333" type="curve" smooth="yes"/>
      <point x="443" y="30.333"/>
      <point x="503.333" y="285.333"/>
      <point x="503.333" y="367" type="curve" smooth="yes"/>
      <point x="503.333" y="408.666"/>
      <point x="490" y="431.333"/>
      <point x="460.666" y="431.333" type="curve" smooth="yes"/>
      <point x="415.666" y="431.333"/>
      <point x="356.666" y="366"/>
      <point x="310.666" y="284" type="curve" smooth="yes"/>
      <point x="274" y="217.666"/>
      <point x="244.666" y="117"/>
    </contour>
  </outline>
</glyph>
<glyph name="q" format="2">
  <advance width="576"/>
  <unicode hex="0071"/>
  <outline>
    <contour>
      <point x="67" y="106.334" type="curve" smooth="yes"/>
      <point x="67" y="246"/>
      <point x="169.334" y="502"/>
      <point x="420.334" y="502" type="curve" smooth="yes"/>
      <point x="472.667" y="502"/>
      <point x="511.667" y="490.333"/>
      <point x="535.667" y="479.334" type="curve"/>
      <point x="576.667" y="517" type="line"/>
      <point x="626.667" y="517" type="line"/>
      <point x="451.334" y="-221.333" type="line"/>
      <point x="323.667" y="-242" type="line"/>
      <point x="422" y="190" type="line"/>
      <point x="419" y="190" type="line"/>
      <point x="344.334" y="64.667"/>
      <point x="256.334" y="-12"/>
      <point x="170" y="-12" type="curve" smooth="yes"/>
      <point x="105.667" y="-12"/>
      <point x="67" y="32"/>
    </contour>
    <contour>
      <point x="202.667" y="122.334" type="curve" smooth="yes"/>
      <point x="202.667" y="88.667"/>
      <point x="210.667" y="58.667"/>
      <point x="241.334" y="58.667" type="curve" smooth="yes"/>
      <point x="274.334" y="58.667"/>
      <point x="313" y="89.334"/>
      <point x="364" y="159.334" type="curve" smooth="yes"/>
      <point x="416.667" y="232"/>
      <point x="462" y="333.667"/>
      <point x="486.667" y="443.334" type="curve"/>
      <point x="472.334" y="453"/>
      <point x="452" y="459.667"/>
      <point x="428.667" y="459.667" type="curve" smooth="yes"/>
      <point x="282.667" y="459.667"/>
      <point x="202.667" y="218.334"/>
    </contour>
  </outline>
</glyph>
<glyph name="r" format="2">
  <advance width="427"/>
  <unicode hex="0072"/>
  <outline>
    <contour>
      <point x="92" y="-12" type="line"/>
      <point x="184.667" y="393" type="line" smooth="yes"/>
      <point x="191" y="421.667"/>
      <point x="190.333" y="435.667"/>
      <point x="169.667" y="437.667" type="curve" smooth="yes"/>
      <point x="109.667" y="443.334" type="line"/>
      <point x="116.333" y="473.333" type="line"/>
      <point x="315.667" y="502" type="line"/>
      <point x="320.667" y="497" type="line"/>
      <point x="280.745" y="344.59" type="line"/>
      <point x="285" y="345" type="line"/>
      <point x="336.334" y="441.667"/>
      <point x="400" y="502"/>
      <point x="459.334" y="502" type="curve" smooth="yes"/>
      <point x="494.667" y="502"/>
      <point x="515.667" y="484.333"/>
      <point x="515.667" y="448" type="curve" smooth="yes"/>
      <point x="515.667" y="412.334"/>
      <point x="489.667" y="370"/>
      <point x="454.667" y="370" type="curve" smooth="yes"/>
      <point x="419.334" y="370"/>
      <point x="403.667" y="401.667"/>
      <point x="374" y="401.667" type="curve" smooth="yes"/>
      <point x="340" y="401.667"/>
      <point x="300.667" y="326.333"/>
      <point x="268" y="210" type="curve" smooth="yes"/>
      <point x="250" y="146"/>
      <point x="231" y="71.667"/>
      <point x="214" y="0" type="curve"/>
    </contour>
  </outline>
</glyph>
<glyph name="s" format="2">
  <advance width="408"/>
  <unicode hex="0073"/>
  <outline>
    <contour>
      <point x="48" y="87" type="curve" smooth="yes"/>
      <point x="48" y="120.666"/>
      <point x="79.333" y="151"/>
      <point x="108.369" y="151" type="curve" smooth="yes"/>
      <point x="166.268" y="151"/>
      <point x="159.32" y="30.333"/>
      <point x="241.295" y="30.333" type="curve" smooth="yes"/>
      <point x="277.55" y="30.333"/>
      <point x="302.333" y="53.666"/>
      <point x="302.333" y="89.179" type="curve"/>
      <point x="300.333" y="133"/>
      <point x="264.233" y="172.333"/>
      <point x="224.975" y="203.708" type="curve" smooth="yes"/>
      <point x="176.333" y="243"/>
      <point x="132.333" y="288.283"/>
      <point x="132.333" y="352.502" type="curve" smooth="yes"/>
      <point x="132.333" y="428.064"/>
      <point x="193" y="502"/>
      <point x="312.96" y="502" type="curve" smooth="yes"/>
      <point x="412.667" y="502"/>
      <point x="455.333" y="450.334"/>
      <point x="455.333" y="414.009" type="curve" smooth="yes"/>
      <point x="455.333" y="381"/>
      <point x="420" y="363.334"/>
      <point x="397.711" y="363.334" type="curve" smooth="yes"/>
      <point x="345.739" y="363.334"/>
      <point x="350.283" y="459.667"/>
      <point x="286.929" y="459.667" type="curve" smooth="yes"/>
      <point x="254.43" y="459.667"/>
      <point x="232" y="434.678"/>
      <point x="232" y="401.976" type="curve" smooth="yes"/>
      <point x="232" y="368.632"/>
      <point x="255.043" y="338.333"/>
      <point x="314.126" y="292.727" type="curve" smooth="yes"/>
      <point x="364.775" y="253"/>
      <point x="403.667" y="205.333"/>
      <point x="403.667" y="140.403" type="curve" smooth="yes"/>
      <point x="403.667" y="60.333"/>
      <point x="345.615" y="-12"/>
      <point x="216.309" y="-12" type="curve" smooth="yes"/>
      <point x="103" y="-12"/>
      <point x="48" y="43.333"/>
    </contour>
  </outline>
</glyph>
<glyph name="t" format="2">
  <advance width="353"/>
  <unicode hex="0074"/>
  <outline>
    <contour>
      <point x="114.333" y="102.667" type="curve" smooth="yes"/>
      <point x="200.333" y="445.333" type="line"/>
      <point x="117.333" y="445.333" type="line"/>
      <point x="129" y="490" type="line"/>
      <point x="210" y="490" type="line"/>
      <point x="227.667" y="555.667" type="line"/>
      <point x="360.667" y="632.667" type="line"/>
      <point x="373.333" y="625" type="line"/>
      <point x="332.667" y="490" type="line"/>
      <point x="455" y="490" type="line"/>
      <point x="443.333" y="445.333" type="line"/>
      <point x="323" y="445.333" type="line"/>
      <point x="238.667" y="103.334" type="line" smooth="yes"/>
      <point x="236.784" y="95.211"/>
      <point x="235.481" y="87.254"/>
      <point x="235.481" y="80.36" type="curve" smooth="yes"/>
      <point x="235.481" y="67.731"/>
      <point x="239.85" y="58.667"/>
      <point x="252.554" y="58.667" type="curve" smooth="yes"/>
      <point x="282.667" y="58.667"/>
      <point x="326.333" y="113"/>
      <point x="354" y="159.333" type="curve"/>
      <point x="380" y="141" type="line"/>
      <point x="334.667" y="55.334"/>
      <point x="266.667" y="-12"/>
      <point x="183.28" y="-12" type="curve" smooth="yes"/>
      <point x="134.885" y="-12"/>
      <point x="107.97" y="10.68"/>
      <point x="107.97" y="57.788" type="curve" smooth="yes"/>
      <point x="107.97" y="70.938"/>
      <point x="110.047" y="85.921"/>
    </contour>
  </outline>
</glyph>
<glyph name="u" format="2">
  <advance width="629"/>
  <unicode hex="0075"/>
  <outline>
    <contour>
      <point x="112.09" y="67.045" type="curve" smooth="yes"/>
      <point x="112.09" y="86.838"/>
      <point x="115.768" y="109.258"/>
      <point x="122" y="133" type="curve" smooth="yes"/>
      <point x="189.667" y="393" type="line" smooth="yes"/>
      <point x="192.397" y="403.366"/>
      <point x="193.964" y="411.855"/>
      <point x="193.964" y="418.611" type="curve" smooth="yes"/>
      <point x="193.964" y="431.688"/>
      <point x="188.211" y="438.349"/>
      <point x="174.667" y="439.666" type="curve" smooth="yes"/>
      <point x="114.667" y="445.333" type="line"/>
      <point x="122" y="475.333" type="line"/>
      <point x="336.667" y="502" type="line"/>
      <point x="341.667" y="497" type="line"/>
      <point x="247" y="128" type="line" smooth="yes"/>
      <point x="242.98" y="112.855"/>
      <point x="240.715" y="99.9"/>
      <point x="240.715" y="89.437" type="curve" smooth="yes"/>
      <point x="240.715" y="69.516"/>
      <point x="248.845" y="58.667"/>
      <point x="266.472" y="58.667" type="curve" smooth="yes"/>
      <point x="327" y="58.667"/>
      <point x="410.667" y="190.333"/>
      <point x="452.128" y="287.073" type="curve" smooth="yes"/>
      <point x="472.667" y="335"/>
      <point x="488.667" y="388"/>
      <point x="517.667" y="490" type="curve"/>
      <point x="642" y="502" type="line"/>
      <point x="539" y="108" type="line" smooth="yes"/>
      <point x="536.253" y="97.429"/>
      <point x="534.535" y="87.782"/>
      <point x="534.532" y="79.879" type="curve" smooth="yes"/>
      <point x="534.527" y="66.937"/>
      <point x="539.123" y="58.667"/>
      <point x="549.159" y="58.667" type="curve" smooth="yes"/>
      <point x="576" y="58.667"/>
      <point x="615.334" y="118"/>
      <point x="639.334" y="159.333" type="curve"/>
      <point x="666.667" y="142.334" type="line"/>
      <point x="627.667" y="62.334"/>
      <point x="567" y="-12"/>
      <point x="484.078" y="-12" type="curve" smooth="yes"/>
      <point x="437.209" y="-12"/>
      <point x="413.883" y="11.702"/>
      <point x="413.883" y="53.314" type="curve" smooth="yes"/>
      <point x="413.883" y="65.888"/>
      <point x="415.988" y="80.192"/>
      <point x="420.334" y="96" type="curve" smooth="yes"/>
      <point x="452.084" y="210.31" type="line"/>
      <point x="448.667" y="210" type="line"/>
      <point x="386.667" y="94"/>
      <point x="296.334" y="-12"/>
      <point x="190.837" y="-12" type="curve" smooth="yes"/>
      <point x="132.742" y="-12"/>
      <point x="112.09" y="20.145"/>
    </contour>
  </outline>
</glyph>
<glyph name="v" format="2">
  <advance width="515"/>
  <unicode hex="0076"/>
  <outline>
    <contour>
      <point x="108.333" y="445.334" type="line"/>
      <point x="115" y="475.334" type="line"/>
      <point x="324.667" y="502" type="line"/>
      <point x="329.667" y="497" type="line"/>
      <point x="245.333" y="128" type="line" smooth="yes"/>
      <point x="235" y="83.334"/>
      <point x="249" y="58.667"/>
      <point x="278" y="58.667" type="curve"/>
      <point x="350.667" y="57"/>
      <point x="453" y="212.334"/>
      <point x="461" y="355.334" type="curve"/>
      <point x="461" y="407.334"/>
      <point x="459" y="446"/>
      <point x="449" y="481" type="curve"/>
      <point x="478" y="494"/>
      <point x="512.667" y="502"/>
      <point x="544.667" y="502" type="curve" smooth="yes"/>
      <point x="552.667" y="502"/>
      <point x="575.667" y="465.667"/>
      <point x="575.667" y="424" type="curve"/>
      <point x="574.667" y="362"/>
      <point x="527.334" y="253"/>
      <point x="453.333" y="158.334" type="curve" smooth="yes"/>
      <point x="382.333" y="66.667"/>
      <point x="296" y="-12"/>
      <point x="204.667" y="-12" type="curve" smooth="yes"/>
      <point x="134.333" y="-12"/>
      <point x="101" y="30.667"/>
      <point x="122.333" y="125" type="curve" smooth="yes"/>
      <point x="183.333" y="393" type="line" smooth="yes"/>
      <point x="190.333" y="424"/>
      <point x="188" y="437.667"/>
      <point x="168.333" y="439.667" type="curve" smooth="yes"/>
    </contour>
  </outline>
</glyph>
<glyph name="w" format="2">
  <advance width="804"/>
  <unicode hex="0077"/>
  <outline>
    <contour>
      <point x="115.334" y="445.334" type="line"/>
      <point x="121.667" y="475.334" type="line"/>
      <point x="332.667" y="502" type="line"/>
      <point x="337.667" y="497" type="line"/>
      <point x="251.667" y="133.667" type="line" smooth="yes"/>
      <point x="248.363" y="119.954"/>
      <point x="246.877" y="108.444"/>
      <point x="246.877" y="98.886" type="curve" smooth="yes"/>
      <point x="246.877" y="69.822"/>
      <point x="260.609" y="58.667"/>
      <point x="279.987" y="58.667" type="curve" smooth="yes"/>
      <point x="387.846" y="58.667"/>
      <point x="482.458" y="407.904"/>
      <point x="501.333" y="487" type="curve"/>
      <point x="620.667" y="493" type="line"/>
      <point x="551.333" y="182.667" type="line" smooth="yes"/>
      <point x="545.028" y="154.518"/>
      <point x="541.689" y="131.237"/>
      <point x="541.689" y="112.747" type="curve" smooth="yes"/>
      <point x="541.689" y="76.5"/>
      <point x="554.523" y="58.667"/>
      <point x="578.938" y="58.667" type="curve" smooth="yes"/>
      <point x="652.333" y="58.667"/>
      <point x="749.333" y="219.914"/>
      <point x="749.333" y="358.667" type="curve" smooth="yes"/>
      <point x="749.333" y="405.334"/>
      <point x="746" y="443.334"/>
      <point x="736" y="481" type="curve"/>
      <point x="767.667" y="494"/>
      <point x="797.333" y="502"/>
      <point x="828.666" y="502" type="curve" smooth="yes"/>
      <point x="836.666" y="502"/>
      <point x="859.666" y="465.667"/>
      <point x="859.666" y="419.309" type="curve" smooth="yes"/>
      <point x="859.666" y="285.925"/>
      <point x="669.303" y="-12"/>
      <point x="511.463" y="-12" type="curve" smooth="yes"/>
      <point x="452.667" y="-12"/>
      <point x="427.333" y="29.334"/>
      <point x="427.333" y="85.734" type="curve" smooth="yes"/>
      <point x="427.333" y="115.667"/>
      <point x="434.527" y="156.256"/>
      <point x="444" y="194" type="curve"/>
      <point x="440.667" y="194.667" type="line"/>
      <point x="378.667" y="74"/>
      <point x="291.667" y="-12"/>
      <point x="204.811" y="-12" type="curve" smooth="yes"/>
      <point x="155.329" y="-12"/>
      <point x="120.523" y="16.28"/>
      <point x="120.523" y="76.81" type="curve" smooth="yes"/>
      <point x="120.523" y="91.506"/>
      <point x="122.573" y="108.105"/>
      <point x="127.001" y="126.667" type="curve" smooth="yes"/>
      <point x="190.001" y="393" type="line" smooth="yes"/>
      <point x="192.382" y="403.498"/>
      <point x="193.694" y="411.846"/>
      <point x="193.694" y="418.41" type="curve" smooth="yes"/>
      <point x="193.694" y="432.188"/>
      <point x="188.038" y="438.313"/>
      <point x="175.001" y="439.667" type="curve" smooth="yes"/>
    </contour>
  </outline>
</glyph>
<glyph name="x" format="2">
  <advance width="516"/>
  <unicode hex="0078"/>
  <outline>
    <contour>
      <point x="16.333" y="46.334" type="curve" smooth="yes"/>
      <point x="16.333" y="80.334"/>
      <point x="40.667" y="112.334"/>
      <point x="69.333" y="112.334" type="curve" smooth="yes"/>
      <point x="87.667" y="112.334"/>
      <point x="103.333" y="100.334"/>
      <point x="114.667" y="93.334" type="curve"/>
      <point x="125" y="86.334"/>
      <point x="134.333" y="81.667"/>
      <point x="145.667" y="81.667" type="curve" smooth="yes"/>
      <point x="165.667" y="81.667"/>
      <point x="195.333" y="125"/>
      <point x="231" y="190" type="curve" smooth="yes"/>
      <point x="235.433" y="198.552"/>
      <point x="250.478" y="224.629"/>
      <point x="255" y="234" type="curve"/>
      <point x="217" y="389.666" type="line" smooth="yes"/>
      <point x="209.333" y="422.333"/>
      <point x="200.333" y="426.666"/>
      <point x="178.333" y="426.333" type="curve"/>
      <point x="113.333" y="423.333" type="line"/>
      <point x="110.333" y="452" type="line"/>
      <point x="305.333" y="502" type="line"/>
      <point x="312" y="498" type="line"/>
      <point x="346" y="344.666" type="line"/>
      <point x="348" y="344.666" type="line"/>
      <point x="356.433" y="359.396"/>
      <point x="380.333" y="397.06"/>
      <point x="393.333" y="415.333" type="curve" smooth="yes"/>
      <point x="430.333" y="468.667"/>
      <point x="470" y="502"/>
      <point x="518.333" y="502" type="curve" smooth="yes"/>
      <point x="549" y="502"/>
      <point x="576" y="486"/>
      <point x="576" y="449.667" type="curve" smooth="yes"/>
      <point x="576" y="416"/>
      <point x="551" y="387.666"/>
      <point x="524.333" y="387.666" type="curve" smooth="yes"/>
      <point x="510.333" y="387.666"/>
      <point x="496.333" y="393.666"/>
      <point x="485.667" y="398.333" type="curve"/>
      <point x="472.667" y="405"/>
      <point x="462.667" y="408.333"/>
      <point x="452.333" y="408.333" type="curve" smooth="yes"/>
      <point x="425.333" y="408.333"/>
      <point x="388.333" y="349"/>
      <point x="357.667" y="295" type="curve"/>
      <point x="397" y="136" type="line" smooth="yes"/>
      <point x="411.667" y="77"/>
      <point x="419.667" y="58.667"/>
      <point x="437.333" y="58.667" type="curve"/>
      <point x="463.333" y="59.334"/>
      <point x="492.333" y="112.334"/>
      <point x="517.667" y="165.333" type="curve"/>
      <point x="547" y="150.667" type="line"/>
      <point x="516.333" y="73"/>
      <point x="466.333" y="-12"/>
      <point x="378.667" y="-12" type="curve" smooth="yes"/>
      <point x="321" y="-12"/>
      <point x="300.667" y="35"/>
      <point x="284.333" y="105" type="curve" smooth="yes"/>
      <point x="267.667" y="176.333" type="line"/>
      <point x="265" y="176.333" type="line"/>
      <point x="257.99" y="162.9"/>
      <point x="235.8" y="124.088"/>
      <point x="229.667" y="112.334" type="curve"/>
      <point x="191.333" y="45.334"/>
      <point x="155" y="-12"/>
      <point x="89.667" y="-12" type="curve" smooth="yes"/>
      <point x="43.667" y="-12"/>
      <point x="16.333" y="13.333"/>
    </contour>
  </outline>
</glyph>
<glyph name="y" format="2">
  <advance width="482"/>
  <unicode hex="0079"/>
  <outline>
    <contour>
      <point x="-11" y="-182.333" type="curve"/>
      <point x="-12.334" y="-146.666"/>
      <point x="18.666" y="-109.333"/>
      <point x="51.333" y="-108.333" type="curve"/>
      <point x="71" y="-108.333"/>
      <point x="79.666" y="-118.333"/>
      <point x="94.333" y="-138.333" type="curve" smooth="yes"/>
      <point x="109.333" y="-159.666"/>
      <point x="123" y="-173.333"/>
      <point x="137.333" y="-173.333" type="curve" smooth="yes"/>
      <point x="155.333" y="-173.333"/>
      <point x="174" y="-152.333"/>
      <point x="188" y="-111.666" type="curve" smooth="yes"/>
      <point x="201.333" y="-74"/>
      <point x="203.333" y="-37.666"/>
      <point x="203.333" y="-2.333" type="curve" smooth="yes"/>
      <point x="203.333" y="88.334"/>
      <point x="176.666" y="285"/>
      <point x="163" y="363" type="curve" smooth="yes"/>
      <point x="155" y="410.334"/>
      <point x="148.666" y="427.334"/>
      <point x="126.666" y="426.334" type="curve"/>
      <point x="62.666" y="425.667" type="line"/>
      <point x="61.666" y="454" type="line"/>
      <point x="262.333" y="502" type="line"/>
      <point x="270.333" y="498" type="line"/>
      <point x="285" y="437.667"/>
      <point x="304" y="219.334"/>
      <point x="307" y="68.334" type="curve"/>
      <point x="310" y="68.334" type="line"/>
      <point x="370" y="175"/>
      <point x="418.334" y="275"/>
      <point x="432.334" y="339" type="curve" smooth="yes"/>
      <point x="441.667" y="381"/>
      <point x="443.667" y="442"/>
      <point x="442.667" y="477" type="curve"/>
      <point x="477.667" y="494.667"/>
      <point x="515.667" y="502"/>
      <point x="538" y="502" type="curve" smooth="yes"/>
      <point x="545.667" y="502"/>
      <point x="558" y="475"/>
      <point x="558" y="447.334" type="curve" smooth="yes"/>
      <point x="558" y="406"/>
      <point x="497.667" y="309"/>
      <point x="440" y="213.667" type="curve" smooth="yes"/>
      <point x="378.667" y="113"/>
      <point x="320.667" y="5.667"/>
      <point x="300" y="-28.333" type="curve" smooth="yes"/>
      <point x="216" y="-168.333"/>
      <point x="171" y="-242"/>
      <point x="74" y="-242" type="curve" smooth="yes"/>
      <point x="20.666" y="-242"/>
      <point x="-11" y="-212"/>
    </contour>
  </outline>
</glyph>
<glyph name="z" format="2">
  <advance width="467"/>
  <unicode hex="007A"/>
  <outline>
    <contour>
      <point x="25" y="18.667" type="curve" smooth="yes"/>
      <point x="25" y="37.333"/>
      <point x="36.333" y="61.333"/>
      <point x="51" y="76" type="curve" smooth="yes"/>
      <point x="384.666" y="404.333" type="line"/>
      <point x="384.666" y="406.333" type="line"/>
      <point x="229.333" y="406" type="line"/>
      <point x="178.333" y="406"/>
      <point x="158.666" y="377"/>
      <point x="126.333" y="316.333" type="curve"/>
      <point x="101.333" y="328" type="line"/>
      <point x="123.333" y="408.333"/>
      <point x="155" y="467.334"/>
      <point x="175" y="490" type="curve"/>
      <point x="525.333" y="490" type="line"/>
      <point x="533.333" y="474.667" type="line"/>
      <point x="195.333" y="145.333" type="line"/>
      <point x="195.333" y="140.667" type="line"/>
      <point x="257.333" y="132.333"/>
      <point x="316" y="92"/>
      <point x="379.666" y="92" type="curve" smooth="yes"/>
      <point x="424.666" y="92"/>
      <point x="454" y="142"/>
      <point x="481.666" y="203.333" type="curve"/>
      <point x="510.333" y="194.333" type="line"/>
      <point x="483.333" y="83.333"/>
      <point x="452.666" y="-12"/>
      <point x="381" y="-12" type="curve" smooth="yes"/>
      <point x="295" y="-12"/>
      <point x="153" y="70"/>
      <point x="126.666" y="70" type="curve" smooth="yes"/>
      <point x="120" y="70"/>
      <point x="115" y="63"/>
      <point x="115.666" y="52" type="curve" smooth="yes"/>
      <point x="118.333" y="17.333" type="line" smooth="yes"/>
      <point x="120.333" y="-4.333"/>
      <point x="89.333" y="-12"/>
      <point x="58" y="-12" type="curve" smooth="yes"/>
      <point x="31.667" y="-12"/>
      <point x="25" y="4.333"/>
    </contour>
  </outline>
</glyph>
<glyph name="braceleft" format="2">
  <advance width="340"/>
  <unicode hex="007B"/>
  <outline>
    <contour>
      <point x="129.334" y="266.333" type="curve"/>
      <point x="136.667" y="297.666" type="line"/>
      <point x="227.001" y="298.333"/>
      <point x="240.667" y="340.999"/>
      <point x="249" y="407" type="curve" smooth="yes"/>
      <point x="251" y="426.666"/>
      <point x="253" y="447"/>
      <point x="254.667" y="466.333" type="curve"/>
      <point x="256.334" y="480"/>
      <point x="257.334" y="493"/>
      <point x="259" y="506.666" type="curve" smooth="yes"/>
      <point x="269.334" y="593.667"/>
      <point x="294.667" y="688.333"/>
      <point x="425.333" y="691.667" type="curve" smooth="yes"/>
      <point x="433" y="692"/>
      <point x="440.667" y="692"/>
      <point x="449" y="692" type="curve" smooth="yes"/>
      <point x="468.667" y="692" type="line"/>
      <point x="461" y="661" type="line"/>
      <point x="399.667" y="656.333"/>
      <point x="373.667" y="629"/>
      <point x="361.667" y="587.667" type="curve"/>
      <point x="357.333" y="574.333"/>
      <point x="355" y="560.666"/>
      <point x="353" y="545.666" type="curve" smooth="yes"/>
      <point x="350.667" y="525.333"/>
      <point x="348.667" y="505"/>
      <point x="347" y="485.666" type="curve" smooth="yes"/>
      <point x="346.333" y="478.666"/>
      <point x="345.667" y="471.333"/>
      <point x="344.667" y="464.666" type="curve"/>
      <point x="336" y="364.999"/>
      <point x="330.333" y="309.333"/>
      <point x="218.001" y="284.999" type="curve"/>
      <point x="217.334" y="279" type="line"/>
      <point x="321.333" y="257.333"/>
      <point x="295.667" y="189.333"/>
      <point x="267" y="108.666" type="curve" smooth="yes"/>
      <point x="262" y="94.333"/>
      <point x="256" y="80"/>
      <point x="250.334" y="65.667" type="curve" smooth="yes"/>
      <point x="245.334" y="53.333"/>
      <point x="241" y="40.667"/>
      <point x="235.667" y="27.333" type="curve" smooth="yes"/>
      <point x="226.001" y="2"/>
      <point x="218.334" y="-22.667"/>
      <point x="219.334" y="-42.333" type="curve"/>
      <point x="220.001" y="-72.667"/>
      <point x="238" y="-93"/>
      <point x="289.667" y="-97" type="curve"/>
      <point x="282.334" y="-128" type="line"/>
      <point x="260.667" y="-128" type="line" smooth="yes"/>
      <point x="177.001" y="-128"/>
      <point x="136" y="-95.333"/>
      <point x="133.667" y="-39" type="curve" smooth="yes"/>
      <point x="132.667" y="-8.333"/>
      <point x="142.667" y="26"/>
      <point x="155" y="60.667" type="curve" smooth="yes"/>
      <point x="161" y="78"/>
      <point x="167.667" y="95.333"/>
      <point x="174" y="112.333" type="curve"/>
      <point x="178.667" y="126"/>
      <point x="184.334" y="139"/>
      <point x="189.001" y="152.666" type="curve" smooth="yes"/>
      <point x="212.001" y="219.666"/>
      <point x="211.001" y="265.666"/>
    </contour>
  </outline>
</glyph>
<glyph name="bar" format="2">
  <advance width="267"/>
  <unicode hex="007C"/>
  <outline>
    <contour>
      <point x="156.333" y="-250" type="line"/>
      <point x="156.333" y="750" type="line"/>
      <point x="248.333" y="750" type="line"/>
      <point x="248.333" y="-250" type="line"/>
    </contour>
  </outline>
</glyph>
<glyph name="braceright" format="2">
  <advance width="340"/>
  <unicode hex="007D"/>
  <outline>
    <contour>
      <point x="0.334" y="-128" type="line"/>
      <point x="8" y="-97" type="line"/>
      <point x="69.334" y="-92.333"/>
      <point x="95.334" y="-65"/>
      <point x="107.334" y="-23.667" type="curve"/>
      <point x="111.667" y="-10.333"/>
      <point x="114" y="3.333"/>
      <point x="116" y="18.333" type="curve" smooth="yes"/>
      <point x="119" y="38.667"/>
      <point x="120.334" y="59.667"/>
      <point x="122.667" y="78.333" type="curve"/>
      <point x="122.667" y="85.333"/>
      <point x="123.334" y="92.666"/>
      <point x="124.334" y="99.333" type="curve"/>
      <point x="133" y="199"/>
      <point x="138.667" y="254.666"/>
      <point x="251" y="279" type="curve"/>
      <point x="251.667" y="284.999" type="line"/>
      <point x="147.667" y="306.999"/>
      <point x="173.333" y="374.666"/>
      <point x="202" y="455.333" type="curve"/>
      <point x="207.667" y="469.666"/>
      <point x="213" y="484.333"/>
      <point x="219.333" y="499" type="curve"/>
      <point x="223.667" y="510.666"/>
      <point x="229" y="523.333"/>
      <point x="233.334" y="536.666" type="curve"/>
      <point x="243.334" y="562"/>
      <point x="250.667" y="586.667"/>
      <point x="249.667" y="606.333" type="curve"/>
      <point x="249" y="636.667"/>
      <point x="231" y="657"/>
      <point x="179.333" y="661" type="curve"/>
      <point x="186.667" y="692" type="line"/>
      <point x="208" y="692" type="line" smooth="yes"/>
      <point x="291.667" y="692"/>
      <point x="332.667" y="659.333"/>
      <point x="335" y="603" type="curve" smooth="yes"/>
      <point x="336" y="572.667"/>
      <point x="326" y="539"/>
      <point x="314.333" y="505.333" type="curve" smooth="yes"/>
      <point x="308.333" y="487.666"/>
      <point x="301.333" y="469.333"/>
      <point x="294.667" y="451.666" type="curve"/>
      <point x="290" y="438"/>
      <point x="284.334" y="425"/>
      <point x="279.667" y="411.333" type="curve" smooth="yes"/>
      <point x="256.667" y="344.333"/>
      <point x="257.667" y="298.333"/>
      <point x="339.333" y="297.666" type="curve"/>
      <point x="332" y="266.333" type="line"/>
      <point x="238.334" y="265.666"/>
      <point x="228.333" y="223"/>
      <point x="220" y="157" type="curve" smooth="yes"/>
      <point x="218" y="137.333"/>
      <point x="215.667" y="117"/>
      <point x="214" y="97.666" type="curve"/>
      <point x="212.333" y="84"/>
      <point x="211.333" y="71"/>
      <point x="209.667" y="57.333" type="curve" smooth="yes"/>
      <point x="199.667" y="-29.667"/>
      <point x="175.333" y="-124.333"/>
      <point x="43.334" y="-127.667" type="curve" smooth="yes"/>
      <point x="36" y="-128"/>
      <point x="28.334" y="-128"/>
      <point x="20.334" y="-128" type="curve" smooth="yes"/>
    </contour>
  </outline>
</glyph>
<glyph name="asciitilde" format="2">
  <advance width="590"/>
  <unicode hex="007E"/>
  <outline>
    <contour>
      <point x="114.333" y="190.333" type="line"/>
      <point x="138.333" y="245"/>
      <point x="175.333" y="317.666"/>
      <point x="261" y="317.666" type="curve" smooth="yes"/>
      <point x="295" y="317.666"/>
      <point x="329.667" y="304.666"/>
      <point x="362.667" y="291.333" type="curve" smooth="yes"/>
      <point x="395.667" y="277.666"/>
      <point x="428" y="264.333"/>
      <point x="456.667" y="264.333" type="curve" smooth="yes"/>
      <point x="491.333" y="264.333"/>
      <point x="511.333" y="281"/>
      <point x="540.333" y="331.333" type="curve"/>
      <point x="589.667" y="304.333" type="line"/>
      <point x="561.667" y="240"/>
      <point x="522.667" y="182"/>
      <point x="445.667" y="182" type="curve" smooth="yes"/>
      <point x="407.333" y="182"/>
      <point x="373.333" y="195.333"/>
      <point x="342" y="209" type="curve" smooth="yes"/>
      <point x="310" y="222.333"/>
      <point x="280" y="235.333"/>
      <point x="246.667" y="235.333" type="curve" smooth="yes"/>
      <point x="211.333" y="235.333"/>
      <point x="188.333" y="211"/>
      <point x="165.333" y="163.333" type="curve"/>
    </contour>
  </outline>
</glyph>
<glyph name="exclamdown" format="2">
  <advance width="275"/>
  <unicode hex="00A1"/>
  <outline>
    <contour>
      <point x="152.333" y="412.334" type="curve" smooth="yes"/>
      <point x="152.333" y="467"/>
      <point x="189" y="502"/>
      <point x="236" y="502" type="curve" smooth="yes"/>
      <point x="288" y="502"/>
      <point x="313" y="469.667"/>
      <point x="313" y="430.333" type="curve" smooth="yes"/>
      <point x="313" y="376"/>
      <point x="275.333" y="341.667"/>
      <point x="227.333" y="341.667" type="curve" smooth="yes"/>
      <point x="176.666" y="341.667"/>
      <point x="152.333" y="375"/>
    </contour>
    <contour>
      <point x="39.333" y="-125" type="curve" smooth="yes"/>
      <point x="180" y="275.667" type="line"/>
      <point x="226" y="275.667" type="line"/>
      <point x="187" y="-100.333" type="line" smooth="yes"/>
      <point x="184.666" y="-121"/>
      <point x="182" y="-140"/>
      <point x="178.333" y="-157.333" type="curve" smooth="yes"/>
      <point x="170" y="-195.333"/>
      <point x="150.333" y="-217"/>
      <point x="91.333" y="-217" type="curve" smooth="yes"/>
      <point x="17.666" y="-217"/>
      <point x="17.666" y="-185"/>
    </contour>
  </outline>
</glyph>
<glyph name="cent" format="2">
  <advance width="550"/>
  <unicode hex="00A2"/>
  <outline>
    <contour>
      <point x="248" y="271.666" type="curve" smooth="yes"/>
      <point x="247" y="212.666"/>
      <point x="260.667" y="160.333"/>
      <point x="318.333" y="145.333" type="curve"/>
      <point x="412.333" y="556.333" type="line"/>
      <point x="310" y="557"/>
      <point x="250" y="371.333"/>
    </contour>
    <contour>
      <point x="119.667" y="278.333" type="curve" smooth="yes"/>
      <point x="120" y="340.333"/>
      <point x="140" y="416.666"/>
      <point x="185.667" y="480.333" type="curve" smooth="yes"/>
      <point x="235" y="548.666"/>
      <point x="315" y="597.333"/>
      <point x="421.667" y="599" type="curve"/>
      <point x="436.667" y="668.333" type="line"/>
      <point x="486.333" y="668" type="line"/>
      <point x="471.667" y="597.667" type="line"/>
      <point x="538.667" y="597"/>
      <point x="631" y="556.333"/>
      <point x="630" y="493.333" type="curve" smooth="yes"/>
      <point x="629.333" y="456"/>
      <point x="589.667" y="438.666"/>
      <point x="562" y="439.666" type="curve"/>
      <point x="545.333" y="439.666"/>
      <point x="536" y="448.333"/>
      <point x="531" y="460" type="curve"/>
      <point x="529" y="463.333"/>
      <point x="527.667" y="467.333"/>
      <point x="526.333" y="471.333" type="curve"/>
      <point x="509.667" y="531"/>
      <point x="483.333" y="556.666"/>
      <point x="461.667" y="556.333" type="curve"/>
      <point x="367.333" y="136.333" type="line"/>
      <point x="428" y="133.666"/>
      <point x="488.333" y="157"/>
      <point x="543.333" y="229.333" type="curve"/>
      <point x="569.333" y="208.333" type="line"/>
      <point x="519.333" y="124.666"/>
      <point x="438" y="88"/>
      <point x="356" y="87" type="curve"/>
      <point x="331.333" y="-21" type="line"/>
      <point x="281" y="-21" type="line"/>
      <point x="305.667" y="87" type="line"/>
      <point x="219.667" y="89.667"/>
      <point x="119" y="136.333"/>
    </contour>
  </outline>
</glyph>
<glyph name="sterling" format="2">
  <advance width="550"/>
  <unicode hex="00A3"/>
  <outline>
    <contour>
      <point x="35.334" y="7.667" type="line"/>
      <point x="63" y="63" type="line"/>
      <point x="135.667" y="83.333"/>
      <point x="207.667" y="117"/>
      <point x="231.334" y="174.333" type="curve" smooth="yes"/>
      <point x="235.667" y="184.333"/>
      <point x="238.667" y="195"/>
      <point x="239.667" y="206.666" type="curve"/>
      <point x="242.667" y="231.666"/>
      <point x="240.667" y="257.333"/>
      <point x="232" y="290.333" type="curve"/>
      <point x="110" y="290.333" type="line"/>
      <point x="120.334" y="335" type="line"/>
      <point x="222.667" y="335" type="line"/>
      <point x="210.334" y="370.667"/>
      <point x="201.667" y="417"/>
      <point x="201" y="460.667" type="curve"/>
      <point x="201" y="466.667"/>
      <point x="201" y="473"/>
      <point x="201.667" y="479" type="curve"/>
      <point x="207" y="575.667"/>
      <point x="274.334" y="675.334"/>
      <point x="417.334" y="679.001" type="curve"/>
      <point x="420.334" y="679.334"/>
      <point x="423" y="679.334"/>
      <point x="426" y="679.334" type="curve" smooth="yes"/>
      <point x="556.334" y="679.334"/>
      <point x="602.333" y="614"/>
      <point x="606" y="576" type="curve"/>
      <point x="606.667" y="573.334"/>
      <point x="606.667" y="571.334"/>
      <point x="606.667" y="569.334" type="curve"/>
      <point x="606" y="528.667"/>
      <point x="564.667" y="514"/>
      <point x="540.334" y="514" type="curve" smooth="yes"/>
      <point x="522.667" y="514"/>
      <point x="513" y="522.334"/>
      <point x="506.667" y="533" type="curve"/>
      <point x="503.334" y="539"/>
      <point x="500.334" y="545.334"/>
      <point x="498" y="552.334" type="curve"/>
      <point x="477.667" y="603.667"/>
      <point x="452.334" y="631"/>
      <point x="419.334" y="635.667" type="curve" smooth="yes"/>
      <point x="413.667" y="636.334"/>
      <point x="408.001" y="636.667"/>
      <point x="402.334" y="636.334" type="curve" smooth="yes"/>
      <point x="359.334" y="633.334"/>
      <point x="326.334" y="595.667"/>
      <point x="322.001" y="534" type="curve"/>
      <point x="321.667" y="531.667"/>
      <point x="321.334" y="529"/>
      <point x="321.334" y="526.334" type="curve"/>
      <point x="321.001" y="497"/>
      <point x="323.667" y="466.667"/>
      <point x="332.001" y="430.333" type="curve" smooth="yes"/>
      <point x="339.334" y="397.333"/>
      <point x="349.667" y="364.333"/>
      <point x="357.667" y="335" type="curve"/>
      <point x="504.334" y="335" type="line"/>
      <point x="495.334" y="290.333" type="line"/>
      <point x="362.334" y="290.333" type="line"/>
      <point x="363.334" y="271"/>
      <point x="362.334" y="255.333"/>
      <point x="358.334" y="236" type="curve" smooth="yes"/>
      <point x="348.667" y="184.666"/>
      <point x="303.334" y="134.333"/>
      <point x="239.334" y="102.666" type="curve"/>
      <point x="239" y="99.333" type="line"/>
      <point x="434" y="99.333" type="line" smooth="yes"/>
      <point x="472" y="99.333"/>
      <point x="494.667" y="113.333"/>
      <point x="511.334" y="133" type="curve" smooth="yes"/>
      <point x="517" y="139.666"/>
      <point x="522" y="147"/>
      <point x="527.667" y="153.666" type="curve"/>
      <point x="558.333" y="139" type="line"/>
      <point x="490.334" y="0" type="line"/>
      <point x="43" y="0" type="line"/>
    </contour>
  </outline>
</glyph>
<glyph name="currency" format="2">
  <advance width="550"/>
  <unicode hex="00A4"/>
  <outline>
    <contour>
      <point x="208.333" y="334" type="curve" smooth="yes"/>
      <point x="208.333" y="246"/>
      <point x="267.333" y="178.667"/>
      <point x="346.333" y="178.667" type="curve" smooth="yes"/>
      <point x="425.333" y="178.667"/>
      <point x="484.333" y="246"/>
      <point x="484.333" y="334" type="curve" smooth="yes"/>
      <point x="484.333" y="422"/>
      <point x="425.333" y="489.333"/>
      <point x="346.333" y="489.333" type="curve" smooth="yes"/>
      <point x="267.333" y="489.333"/>
      <point x="208.333" y="422"/>
    </contour>
    <contour>
      <point x="112" y="92.334" type="curve" smooth="yes"/>
      <point x="84.333" y="117.667"/>
      <point x="90.333" y="143.334"/>
      <point x="114.666" y="162.667" type="curve" smooth="yes"/>
      <point x="160.333" y="198.667" type="line"/>
      <point x="129.666" y="235.334"/>
      <point x="116.333" y="285"/>
      <point x="116.333" y="334" type="curve" smooth="yes"/>
      <point x="116.333" y="383"/>
      <point x="129.666" y="432.666"/>
      <point x="160.333" y="469.333" type="curve"/>
      <point x="114.666" y="505.333" type="line" smooth="yes"/>
      <point x="90.333" y="524.666"/>
      <point x="84.333" y="550.333"/>
      <point x="112" y="575.666" type="curve" smooth="yes"/>
      <point x="136" y="598.333"/>
      <point x="164.333" y="592"/>
      <point x="180.666" y="569.333" type="curve" smooth="yes"/>
      <point x="215" y="523.666" type="line"/>
      <point x="249.333" y="554"/>
      <point x="302" y="566.333"/>
      <point x="346.333" y="566.333" type="curve" smooth="yes"/>
      <point x="390.666" y="566.333"/>
      <point x="443.333" y="554"/>
      <point x="477.666" y="523.666" type="curve"/>
      <point x="512" y="569.333" type="line" smooth="yes"/>
      <point x="528.333" y="592"/>
      <point x="556.666" y="598.333"/>
      <point x="580.666" y="575.666" type="curve" smooth="yes"/>
      <point x="608.333" y="550.333"/>
      <point x="602.333" y="524.666"/>
      <point x="578" y="505.333" type="curve" smooth="yes"/>
      <point x="532.333" y="469.333" type="line"/>
      <point x="563" y="432.666"/>
      <point x="576.333" y="383"/>
      <point x="576.333" y="334" type="curve" smooth="yes"/>
      <point x="576.333" y="285"/>
      <point x="563" y="235.334"/>
      <point x="532.333" y="198.667" type="curve"/>
      <point x="578" y="162.667" type="line" smooth="yes"/>
      <point x="602.333" y="143.334"/>
      <point x="608.333" y="117.667"/>
      <point x="580.666" y="92.334" type="curve" smooth="yes"/>
      <point x="556.666" y="69.667"/>
      <point x="528.333" y="76"/>
      <point x="512" y="98.667" type="curve" smooth="yes"/>
      <point x="477.666" y="144.334" type="line"/>
      <point x="443.333" y="114"/>
      <point x="390.666" y="101.667"/>
      <point x="346.333" y="101.667" type="curve" smooth="yes"/>
      <point x="302" y="101.667"/>
      <point x="249.333" y="114"/>
      <point x="215" y="144.334" type="curve"/>
      <point x="180.666" y="98.667" type="line" smooth="yes"/>
      <point x="164.333" y="76"/>
      <point x="136" y="69.667"/>
    </contour>
  </outline>
</glyph>
<glyph name="yen" format="2">
  <advance width="550"/>
  <unicode hex="00A5"/>
  <outline>
    <contour>
      <point x="102.333" y="181.667" type="line"/>
      <point x="113" y="225.667" type="line"/>
      <point x="261.666" y="225.667" type="line"/>
      <point x="269" y="260.667" type="line"/>
      <point x="274.333" y="282.667"/>
      <point x="274" y="298.333"/>
      <point x="273.666" y="313" type="curve"/>
      <point x="134" y="313" type="line"/>
      <point x="144.666" y="357" type="line"/>
      <point x="263.333" y="357" type="line"/>
      <point x="239.333" y="456.333"/>
      <point x="218.333" y="534"/>
      <point x="203" y="592" type="curve" smooth="yes"/>
      <point x="196" y="618.333"/>
      <point x="187.666" y="628.667"/>
      <point x="171" y="630.333" type="curve" smooth="yes"/>
      <point x="139.333" y="634.333" type="line"/>
      <point x="147.666" y="668" type="line"/>
      <point x="405.666" y="668" type="line"/>
      <point x="397.666" y="634.333" type="line"/>
      <point x="352.333" y="631" type="line" smooth="yes"/>
      <point x="331.333" y="629.333"/>
      <point x="328.333" y="620.333"/>
      <point x="331" y="603" type="curve" smooth="yes"/>
      <point x="343" y="535.333"/>
      <point x="362.333" y="447.333"/>
      <point x="382.333" y="356.333" type="curve"/>
      <point x="384.333" y="356.333" type="line"/>
      <point x="446.666" y="450.667"/>
      <point x="515.666" y="561.333"/>
      <point x="537.999" y="599" type="curve" smooth="yes"/>
      <point x="548.666" y="617.333"/>
      <point x="547.666" y="628"/>
      <point x="531.999" y="629.667" type="curve" smooth="yes"/>
      <point x="478.333" y="634.333" type="line"/>
      <point x="486.333" y="668" type="line"/>
      <point x="700.666" y="668" type="line"/>
      <point x="693.333" y="634.333" type="line"/>
      <point x="666.999" y="632" type="line" smooth="yes"/>
      <point x="641.333" y="629.667"/>
      <point x="626.333" y="616"/>
      <point x="600.666" y="583.333" type="curve" smooth="yes"/>
      <point x="571.333" y="545.333"/>
      <point x="504.333" y="453"/>
      <point x="438.999" y="357" type="curve"/>
      <point x="570.666" y="357" type="line"/>
      <point x="560.999" y="313" type="line"/>
      <point x="410.333" y="313" type="line"/>
      <point x="406.333" y="301.667"/>
      <point x="399" y="282"/>
      <point x="394" y="261.334" type="curve" smooth="yes"/>
      <point x="386" y="225.667" type="line"/>
      <point x="548.999" y="225.667" type="line"/>
      <point x="539.333" y="181.667" type="line"/>
      <point x="376" y="181.667" type="line"/>
      <point x="353.666" y="79.667" type="line"/>
      <point x="352" y="73"/>
      <point x="350.666" y="67"/>
      <point x="351" y="61" type="curve"/>
      <point x="350" y="49.334"/>
      <point x="355" y="42.334"/>
      <point x="368.666" y="40" type="curve"/>
      <point x="370" y="39.334"/>
      <point x="371.666" y="39"/>
      <point x="374" y="38.667" type="curve"/>
      <point x="433.333" y="33.667" type="line"/>
      <point x="426.666" y="0" type="line"/>
      <point x="128.666" y="0" type="line"/>
      <point x="135.333" y="33.667" type="line"/>
      <point x="193.333" y="38" type="line" smooth="yes"/>
      <point x="213.333" y="39.667"/>
      <point x="223.666" y="53.334"/>
      <point x="228.333" y="73.667" type="curve" smooth="yes"/>
      <point x="252.333" y="181.667" type="line"/>
    </contour>
  </outline>
</glyph>
<glyph name="brokenbar" format="2">
  <advance width="267"/>
  <unicode hex="00A6"/>
  <outline>
    <contour>
      <point x="156.333" y="158.333" type="line"/>
      <point x="156.333" y="508.333" type="line"/>
      <point x="248.333" y="508.333" type="line"/>
      <point x="248.333" y="158.333" type="line"/>
    </contour>
    <contour>
      <point x="156.333" y="-8.333" type="line"/>
      <point x="156.333" y="341.667" type="line"/>
      <point x="248.333" y="341.667" type="line"/>
      <point x="248.333" y="-8.333" type="line"/>
    </contour>
  </outline>
</glyph>
<glyph name="section" format="2">
  <advance width="555"/>
  <unicode hex="00A7"/>
  <outline>
    <contour>
      <point x="191.666" y="408" type="curve" smooth="yes"/>
      <point x="191.333" y="365.333"/>
      <point x="212.333" y="316"/>
      <point x="296" y="257.667" type="curve"/>
      <point x="303.667" y="252"/>
      <point x="311.333" y="247"/>
      <point x="319.667" y="241.333" type="curve" smooth="yes"/>
      <point x="387.333" y="195.667"/>
      <point x="436.333" y="142"/>
      <point x="444.333" y="101" type="curve"/>
      <point x="467.666" y="118.667"/>
      <point x="496.667" y="151"/>
      <point x="499.333" y="197" type="curve" smooth="yes"/>
      <point x="499.667" y="202"/>
      <point x="500" y="207.333"/>
      <point x="500" y="213" type="curve"/>
      <point x="497.667" y="262.667"/>
      <point x="471.333" y="315"/>
      <point x="393" y="369" type="curve" smooth="yes"/>
      <point x="328.333" y="413.667"/>
      <point x="271.333" y="460"/>
      <point x="262" y="512.667" type="curve"/>
      <point x="225.333" y="498"/>
      <point x="191.999" y="458.333"/>
    </contour>
    <contour>
      <point x="96" y="-15.667" type="curve"/>
      <point x="96" y="18.667"/>
      <point x="124.333" y="41.667"/>
      <point x="156" y="41.667" type="curve" smooth="yes"/>
      <point x="173.333" y="41.667"/>
      <point x="184.333" y="29"/>
      <point x="191.666" y="11.667" type="curve" smooth="yes"/>
      <point x="218.666" y="-50.333"/>
      <point x="253" y="-69.333"/>
      <point x="282" y="-72" type="curve"/>
      <point x="286.667" y="-72.667"/>
      <point x="291" y="-72.333"/>
      <point x="295.333" y="-72" type="curve" smooth="yes"/>
      <point x="329.333" y="-70"/>
      <point x="361.667" y="-44.667"/>
      <point x="364.333" y="-4.333" type="curve"/>
      <point x="364.667" y="-2"/>
      <point x="365" y="0"/>
      <point x="365" y="2.333" type="curve"/>
      <point x="365.333" y="46"/>
      <point x="348.667" y="92.333"/>
      <point x="251.667" y="154.333" type="curve" smooth="yes"/>
      <point x="143" y="223.333"/>
      <point x="120" y="289.333"/>
      <point x="119.666" y="345.667" type="curve"/>
      <point x="119.666" y="351"/>
      <point x="119.666" y="356.667"/>
      <point x="120.333" y="362" type="curve"/>
      <point x="125.666" y="448.333"/>
      <point x="181.999" y="517.333"/>
      <point x="257.333" y="564.667" type="curve"/>
      <point x="261.333" y="618.333"/>
      <point x="312" y="707"/>
      <point x="435.666" y="707" type="curve" smooth="yes"/>
      <point x="535.667" y="707"/>
      <point x="585.333" y="661.333"/>
      <point x="585.333" y="622" type="curve"/>
      <point x="585" y="590"/>
      <point x="553.333" y="573.333"/>
      <point x="528" y="573.333" type="curve" smooth="yes"/>
      <point x="511.333" y="573.333"/>
      <point x="503.667" y="583"/>
      <point x="494" y="601" type="curve" smooth="yes"/>
      <point x="473.667" y="641.333"/>
      <point x="449" y="660.667"/>
      <point x="420.666" y="664" type="curve" smooth="yes"/>
      <point x="416" y="664.667"/>
      <point x="411" y="664.333"/>
      <point x="405.666" y="664" type="curve" smooth="yes"/>
      <point x="372" y="662"/>
      <point x="345.333" y="637"/>
      <point x="342.667" y="601.667" type="curve"/>
      <point x="342.333" y="599.667"/>
      <point x="342" y="597.667"/>
      <point x="342" y="595.667" type="curve" smooth="yes"/>
      <point x="342" y="568"/>
      <point x="350.667" y="531.333"/>
      <point x="432.333" y="476" type="curve" smooth="yes"/>
      <point x="440" y="470.667"/>
      <point x="448.333" y="465"/>
      <point x="457" y="459.667" type="curve"/>
      <point x="543.666" y="402.333"/>
      <point x="573.666" y="342.333"/>
      <point x="573.333" y="265" type="curve" smooth="yes"/>
      <point x="572.666" y="179"/>
      <point x="510.333" y="97.333"/>
      <point x="452.666" y="45.667" type="curve"/>
      <point x="446.666" y="-42.667"/>
      <point x="382.333" y="-111.666"/>
      <point x="273.667" y="-114.666" type="curve" smooth="yes"/>
      <point x="265.333" y="-115"/>
      <point x="256.667" y="-115"/>
      <point x="248" y="-114.333" type="curve" smooth="yes"/>
      <point x="151.333" y="-109"/>
      <point x="95.666" y="-61.667"/>
    </contour>
  </outline>
</glyph>
<glyph name="dieresis" format="2">
  <advance width="400"/>
  <unicode hex="00A8"/>
  <outline>
    <contour>
      <point x="232.333" y="630.334" type="curve" smooth="yes"/>
      <point x="232.333" y="667.667"/>
      <point x="259.666" y="700.667"/>
      <point x="304.667" y="700.667" type="curve" smooth="yes"/>
      <point x="349.333" y="700.667"/>
      <point x="373.333" y="668"/>
      <point x="373.333" y="634.334" type="curve" smooth="yes"/>
      <point x="373.333" y="597.667"/>
      <point x="347.667" y="564.667"/>
      <point x="301.333" y="564.667" type="curve" smooth="yes"/>
      <point x="256.666" y="564.667"/>
      <point x="232.333" y="595.334"/>
    </contour>
    <contour>
      <point x="323" y="630.334" type="curve" smooth="yes"/>
      <point x="323" y="667.667"/>
      <point x="350.333" y="700.667"/>
      <point x="395.333" y="700.667" type="curve" smooth="yes"/>
      <point x="440" y="700.667"/>
      <point x="464" y="668"/>
      <point x="464" y="634.334" type="curve" smooth="yes"/>
      <point x="464" y="597.667"/>
      <point x="438.333" y="564.667"/>
      <point x="392" y="564.667" type="curve" smooth="yes"/>
      <point x="347.333" y="564.667"/>
      <point x="323" y="595.334"/>
    </contour>
  </outline>
</glyph>
<glyph name="copyright" format="2">
  <advance width="828"/>
  <unicode hex="00A9"/>
  <outline>
    <contour>
      <point x="298" y="348" type="curve" smooth="yes"/>
      <point x="298" y="461.667"/>
      <point x="364" y="548.667"/>
      <point x="510.333" y="548.667" type="curve" smooth="yes"/>
      <point x="563" y="548.667"/>
      <point x="615" y="538.334"/>
      <point x="646.667" y="519" type="curve"/>
      <point x="646.667" y="417" type="line"/>
      <point x="622" y="417" type="line"/>
      <point x="608.667" y="466.333"/>
      <point x="582" y="518"/>
      <point x="514.333" y="518" type="curve" smooth="yes"/>
      <point x="437.667" y="518"/>
      <point x="405" y="443.333"/>
      <point x="405" y="355" type="curve" smooth="yes"/>
      <point x="405" y="265.333"/>
      <point x="434.333" y="181"/>
      <point x="520" y="181" type="curve" smooth="yes"/>
      <point x="579.667" y="181"/>
      <point x="610.333" y="228.333"/>
      <point x="631.333" y="286.667" type="curve"/>
      <point x="656" y="286.667" type="line"/>
      <point x="645" y="181.333" type="line"/>
      <point x="615" y="161.666"/>
      <point x="563.333" y="150.333"/>
      <point x="507.333" y="150.333" type="curve" smooth="yes"/>
      <point x="354.333" y="150.333"/>
      <point x="298" y="235.667"/>
    </contour>
    <contour>
      <point x="202.667" y="346" type="curve" smooth="yes"/>
      <point x="202.667" y="175"/>
      <point x="330.667" y="42"/>
      <point x="490" y="42" type="curve" smooth="yes"/>
      <point x="649.334" y="42"/>
      <point x="777.333" y="175"/>
      <point x="777.333" y="346" type="curve" smooth="yes"/>
      <point x="777.333" y="517"/>
      <point x="649.334" y="650"/>
      <point x="490" y="650" type="curve" smooth="yes"/>
      <point x="330.667" y="650"/>
      <point x="202.667" y="517"/>
    </contour>
    <contour>
      <point x="126" y="346" type="curve" smooth="yes"/>
      <point x="126" y="546"/>
      <point x="289" y="707"/>
      <point x="490" y="707" type="curve" smooth="yes"/>
      <point x="691" y="707"/>
      <point x="854" y="546"/>
      <point x="854" y="346" type="curve" smooth="yes"/>
      <point x="854" y="146"/>
      <point x="691" y="-15"/>
      <point x="490" y="-15" type="curve" smooth="yes"/>
      <point x="289" y="-15"/>
      <point x="126" y="146"/>
    </contour>
  </outline>
</glyph>
<glyph name="ordfeminine" format="2">
  <advance width="438"/>
  <unicode hex="00AA"/>
  <outline>
    <contour>
      <point x="201.667" y="347.334" type="curve" smooth="yes"/>
      <point x="201.667" y="329.334"/>
      <point x="208" y="319.667"/>
      <point x="219" y="318.334" type="curve" smooth="yes"/>
      <point x="221.667" y="318"/>
      <point x="225.334" y="317.667"/>
      <point x="228.334" y="318.334" type="curve"/>
      <point x="247.667" y="321.667"/>
      <point x="271.334" y="344"/>
      <point x="296.334" y="376" type="curve"/>
      <point x="303" y="383.667"/>
      <point x="308.667" y="392.667"/>
      <point x="314.334" y="401.334" type="curve" smooth="yes"/>
      <point x="346.334" y="451.333"/>
      <point x="365.334" y="510.333"/>
      <point x="377" y="547.667" type="curve"/>
      <point x="369" y="555"/>
      <point x="356.334" y="558"/>
      <point x="342.334" y="558" type="curve" smooth="yes"/>
      <point x="264.667" y="558"/>
      <point x="201.667" y="412"/>
    </contour>
    <contour>
      <point x="102" y="341" type="curve" smooth="yes"/>
      <point x="102" y="422.667"/>
      <point x="176" y="584.666"/>
      <point x="333.667" y="589.666" type="curve"/>
      <point x="339.334" y="590"/>
      <point x="345.334" y="590"/>
      <point x="350.334" y="589.333" type="curve"/>
      <point x="368.334" y="588.666"/>
      <point x="383" y="584.666"/>
      <point x="394.667" y="578.333" type="curve"/>
      <point x="397" y="585" type="line"/>
      <point x="490.667" y="585" type="line"/>
      <point x="423.334" y="350" type="line" smooth="yes"/>
      <point x="418.334" y="332"/>
      <point x="416.667" y="317.667"/>
      <point x="428" y="317.667" type="curve" smooth="yes"/>
      <point x="444.667" y="317.667"/>
      <point x="472.334" y="355"/>
      <point x="488.334" y="380.334" type="curve"/>
      <point x="509.667" y="368.334" type="line"/>
      <point x="481.334" y="313.334"/>
      <point x="438.334" y="265"/>
      <point x="371.667" y="265" type="curve" smooth="yes"/>
      <point x="340.334" y="265"/>
      <point x="322" y="285.667"/>
      <point x="330" y="326.667" type="curve" smooth="yes"/>
      <point x="331.334" y="333.334"/>
      <point x="333" y="340.334"/>
      <point x="335" y="347.667" type="curve"/>
      <point x="350" y="397.334" type="line"/>
      <point x="346.334" y="398" type="line"/>
      <point x="309" y="343"/>
      <point x="257" y="265"/>
      <point x="171.667" y="265" type="curve" smooth="yes"/>
      <point x="124.667" y="265"/>
      <point x="102" y="299"/>
    </contour>
  </outline>
</glyph>
<glyph name="guillemotleft" format="2">
  <advance width="527"/>
  <unicode hex="00AB"/>
  <outline>
    <contour>
      <point x="192" y="228.333" type="line" smooth="yes"/>
      <point x="182.667" y="241.333"/>
      <point x="185.333" y="252.667"/>
      <point x="198" y="264.667" type="curve" smooth="yes"/>
      <point x="391" y="454.333" type="line"/>
      <point x="413.667" y="434.667" type="line"/>
      <point x="306.333" y="266.333" type="line" smooth="yes"/>
      <point x="298" y="252.667"/>
      <point x="295.666" y="241.667"/>
      <point x="299.667" y="228.333" type="curve" smooth="yes"/>
      <point x="349.333" y="54.667" type="line"/>
      <point x="323" y="38.333" type="line"/>
    </contour>
    <contour>
      <point x="260.333" y="228.333" type="line" smooth="yes"/>
      <point x="251" y="241.333"/>
      <point x="253.666" y="252.667"/>
      <point x="266.333" y="264.667" type="curve" smooth="yes"/>
      <point x="459.333" y="454.333" type="line"/>
      <point x="482" y="434.667" type="line"/>
      <point x="374.667" y="266.333" type="line" smooth="yes"/>
      <point x="366.333" y="252.667"/>
      <point x="364" y="241.667"/>
      <point x="368" y="228.333" type="curve" smooth="yes"/>
      <point x="417.667" y="54.667" type="line"/>
      <point x="391.334" y="38.333" type="line"/>
    </contour>
  </outline>
</glyph>
<glyph name="logicalnot" format="2">
  <advance width="590"/>
  <unicode hex="00AC"/>
  <outline>
    <contour>
      <point x="109.667" y="321.667" type="line"/>
      <point x="109.667" y="394.334" type="line"/>
      <point x="593.667" y="394.334" type="line"/>
      <point x="593.667" y="97.334" type="line"/>
      <point x="507" y="97.334" type="line"/>
      <point x="507" y="321.667" type="line"/>
    </contour>
  </outline>
</glyph>
